<?xml version="1.0" encoding="UTF-8" standalone="no"?>
<svg width="278px" height="152px" viewBox="0 0 278 152" version="1.1" xmlns="http://www.w3.org/2000/svg" xmlns:xlink="http://www.w3.org/1999/xlink" xmlns:sketch="http://www.bohemiancoding.com/sketch/ns">
    <title>Untitled 6</title>
    <description>Created with Sketch (http://www.bohemiancoding.com/sketch)</description>
    <defs></defs>
    <g id="Page-1" stroke="none" stroke-width="1" fill="none" fill-rule="evenodd" sketch:type="MSPage">
        <g id="br" sketch:type="MSLayerGroup" transform="translate(21.000000, 47.000000)" fill="#C73F3B">
            <path id="path2886" sketch:type="MSShapeGroup" d="M80.334,43.4443709 C80.703,42.6874172 79.779,43.3043046 80.334,43.4443709"></path>
            <path id="path2814" sketch:type="MSShapeGroup" d="M49.407,15.6248344 C49.623,15.5860927 49.815,15.4698675 49.971,15.3357616 C49.734,15.3059603 49.473,15.4013245 49.407,15.6248344"></path>
            <path id="path2816" sketch:type="MSShapeGroup" d="M49.92,15.8900662 C50.097,15.7172185 50.379,15.7559603 50.571,15.6039735 C50.376,15.3089404 49.797,15.5831126 49.92,15.8900662"></path>
            <path id="path2846" sketch:type="MSShapeGroup" d="M53.832,7.2 C53.88,7.13741722 53.928,7.0718543 53.979,7.00927152 C53.736,6.94668874 53.688,7.01225166 53.832,7.2"></path>
            <path id="path2848" sketch:type="MSShapeGroup" d="M54.036,7.75728477 C54.366,7.61125828 54.189,7.35496689 54.027,7.16423841 C53.703,7.29536424 53.883,7.57847682 54.036,7.75728477"></path>
            <path d="M50.595,15.5056291 C51.189,15.3774834 52.641,14.1198675 52.311,13.5208609 C51.972,12.9099338 51.288,13.7324503 51.195,14.0602649 C51.126,14.2986755 51.24,14.5549669 50.967,14.7129139 C50.67,14.8827815 50.448,15.1748344 50.595,15.5056291" id="path2818" sketch:type="MSShapeGroup"></path>
            <path d="M51.804,13.2198675 C52.029,13.0887417 52.641,12.7221854 52.356,12.4301325 C52.041,12.5761589 51.912,12.9456954 51.804,13.2198675" id="path2820" sketch:type="MSShapeGroup"></path>
            <path d="M51.795,14.9096026 C52.119,14.8112583 52.377,14.4 52.173,14.1228477 C52.164,14.4327815 51.795,14.6056291 51.795,14.9096026" id="path2822" sketch:type="MSShapeGroup"></path>
            <path d="M52.734,14.1049669 C52.488,14.1764901 52.302,14.3761589 52.254,14.602649 C52.554,14.5400662 52.629,14.242053 52.869,14.1049669 L52.734,14.1049669" id="path2824" sketch:type="MSShapeGroup"></path>
            <path id="path2826" sketch:type="MSShapeGroup" d="M52.425,13.3539735 C52.524,13.1662252 52.572,12.9516556 52.821,12.8741722 C52.491,12.5761589 52.344,13.1453642 52.425,13.3539735"></path>
            <path d="M52.365,14.3165563 C52.566,14.1228477 52.695,13.8725166 52.935,13.7086093 C53.067,13.6192053 53.145,13.3748344 52.881,13.4582781 C52.593,13.5476821 52.347,14.063245 52.365,14.3165563" id="path2828" sketch:type="MSShapeGroup"></path>
            <path id="path2830" sketch:type="MSShapeGroup" d="M52.533,13.3718543 C52.707,13.3271523 52.848,13.2019868 52.776,13.0291391 C52.62,13.0917219 52.512,13.2168874 52.533,13.3718543"></path>
            <path d="M53.019,12.757947 C53.181,12.6059603 53.391,12.5046358 53.553,12.352649 C53.754,12.1589404 53.418,12.0874172 53.268,12.1470199 C52.959,12.2721854 52.356,12.6417219 53.019,12.757947" id="path2832" sketch:type="MSShapeGroup"></path>
            <path d="M52.725,13.431457 C52.911,13.3450331 53.301,13.2228477 53.166,12.9695364 C52.887,12.9874172 52.845,13.2615894 52.725,13.431457" id="path2834" sketch:type="MSShapeGroup"></path>
            <path id="path2836" sketch:type="MSShapeGroup" d="M52.824,14.0453642 C52.935,13.9887417 53.016,13.905298 53.064,13.7980132 C52.884,13.7980132 52.785,13.881457 52.824,14.0453642"></path>
            <path id="path2838" sketch:type="MSShapeGroup" d="M52.92,12.0844371 C52.929,12.1231788 52.935,12.1619205 52.941,12.2006623 C53.112,12.1827815 53.256,12.1172185 53.373,12.0099338 C53.211,11.902649 53.031,11.9503311 52.92,12.0844371"></path>
            <path d="M53.166,15.4877483 C53.322,15.7172185 53.427,15.9854305 53.64,16.1821192 C53.802,16.3281457 54.474,16.3728477 54.129,16.2 C54.435,16.2327815 54.822,16.0688742 55.107,16.1433775 C55.308,16.1970199 55.602,16.3400662 55.536,16.0092715 C55.581,16.0807947 55.629,16.1523179 55.683,16.2178808 C55.899,16.0897351 56.118,15.907947 56.124,15.660596 C56.238,16.0599338 57.015,15.7738411 57.261,15.660596 C57.714,15.4519868 57.708,15.0347682 57.975,14.6890728 C58.23,14.3582781 58.314,14.0274834 58.407,13.6430464 C58.494,13.2794702 58.977,12.6625828 58.266,12.6238411 C57.711,12.5940397 57.012,12.2870861 56.481,12.4897351 C56.247,12.5791391 56.502,12.6655629 56.133,12.6536424 C55.806,12.6387417 55.542,12.6 55.227,12.5254967 C54.648,12.3913907 53.895,12.1589404 53.505,12.7370861 C53.286,13.0529801 53.262,13.5566225 53.739,13.6788079 C53.565,13.6460265 53.394,13.6072848 53.223,13.5655629 C53.148,13.7413907 53.292,13.8218543 53.277,13.9887417 C53.262,14.1824503 53.085,14.3284768 53.199,14.534106 C53.319,14.7576159 53.685,14.4625828 53.874,14.5072848 C53.574,14.9513245 53.64,14.6324503 53.115,14.7009934 C53.226,14.939404 53.184,15.2344371 53.166,15.4877483" id="path2840" sketch:type="MSShapeGroup"></path>
            <path id="path2842" sketch:type="MSShapeGroup" d="M53.697,12.0844371 C53.985,12.2751656 53.979,12.0009934 53.883,11.8311258 C53.658,11.4437086 53.433,11.857947 53.697,12.0844371"></path>
            <path id="path2844" sketch:type="MSShapeGroup" d="M53.973,11.7 C54.186,11.4139073 54.345,11.0771523 54.042,10.7761589 C53.91,11.0115894 53.664,11.6254967 53.973,11.7"></path>
            <path d="M54.819,12.0844371 C55.026,12.4629139 55.437,11.8639073 55.611,11.7029801 C56.061,11.2827815 55.245,11.3572848 54.99,11.4258278 C54.741,11.497351 54.18,11.5182119 54.099,11.7983444 C54.03,12.0307947 54.675,12.0695364 54.819,12.0844371" id="path2850" sketch:type="MSShapeGroup"></path>
            <path d="M54.396,11.2976821 C54.516,11.2112583 55.092,10.8149007 54.87,10.6480132 C54.513,10.3827815 54.126,11.0562914 54.396,11.2976821" id="path2852" sketch:type="MSShapeGroup"></path>
            <path id="path2854" sketch:type="MSShapeGroup" d="M54.423,11.565894 C54.558,11.5122517 54.672,11.4377483 54.765,11.3364238 C54.582,11.3096026 54.462,11.4168874 54.423,11.565894"></path>
            <path id="path2856" sketch:type="MSShapeGroup" d="M54.405,10.3738411 C54.618,10.3678808 54.885,10.3142384 54.852,10.0668874 C54.621,10.0072848 54.321,10.1205298 54.405,10.3738411"></path>
            <path id="path2858" sketch:type="MSShapeGroup" d="M54.912,9.95066225 C55.05,9.87615894 55.068,9.78377483 54.975,9.66456954 C54.846,9.73609272 54.825,9.83145695 54.912,9.95066225"></path>
            <path id="path2860" sketch:type="MSShapeGroup" d="M55.533,12.0844371 C55.221,12.5076159 55.983,12.4271523 56.226,12.3556291 C56.652,12.2274834 55.896,11.7596026 55.533,12.0844371"></path>
            <path id="path2862" sketch:type="MSShapeGroup" d="M57.324,16.2566225 C57.399,16.0897351 57.444,15.9168874 57.462,15.7380795 C57.192,15.8245033 57.045,16.0897351 57.324,16.2566225"></path>
            <path id="path2864" sketch:type="MSShapeGroup" d="M58.494,14.7784768 C59.073,15.2880795 58.632,14.1586093 58.494,14.7784768"></path>
            <path id="path2866" sketch:type="MSShapeGroup" d="M60.24,13.6788079 C60.468,13.7711921 60.252,13.4791391 60.246,13.4701987 C60.243,13.5387417 60.243,13.6102649 60.24,13.6788079"></path>
            <path id="path2872" sketch:type="MSShapeGroup" d="M62.952,14.4476821 C63.069,14.4208609 63.129,14.3493377 63.129,14.2390728 C62.898,14.1943709 62.838,14.2629139 62.952,14.4476821"></path>
            <path id="path2874" sketch:type="MSShapeGroup" d="M66.435,15.3357616 C66.603,15.2821192 66.699,15.1599338 66.615,15.007947 C66.528,15.2254967 66.471,15.2701987 66.438,15.1390728 C66.438,15.2046358 66.438,15.2701987 66.435,15.3357616"></path>
            <path id="path2876" sketch:type="MSShapeGroup" d="M66.945,15.9496689 C67.026,15.9228477 67.104,15.8990066 67.185,15.8721854 C66.981,15.75 66.9,15.7768212 66.945,15.9496689"></path>
            <path id="path2878" sketch:type="MSShapeGroup" d="M67.374,19.1801325 C67.518,18.9298013 67.629,18.6764901 67.623,18.3903974 C67.278,18.5215232 67.392,18.9268212 67.374,19.1801325"></path>
            <path id="path2882" sketch:type="MSShapeGroup" d="M69.408,17.5261589 C69.474,17.460596 69.54,17.3980132 69.606,17.3324503 C69.375,17.3145695 69.309,17.3771523 69.408,17.5261589"></path>
            <path d="M-0.036,29.4854305 C0.183,29.294702 0.096,29.160596 0.414,29.0264901 C0.774,28.8804636 0.393,28.5466887 0.498,28.2099338 C0.705,27.563245 1.485,27.6496689 1.806,27.2056291 C2.034,26.8927152 1.872,26.5917219 1.803,26.2728477 C1.743,25.9807947 1.929,25.718543 2.124,25.4890728 C2.517,25.0271523 2.16,24.3536424 2.559,23.9483444 C2.763,23.736755 3.177,23.7248344 3.411,23.5251656 C3.618,23.3493377 3.645,23.152649 3.93,23.0662252 C4.293,22.9559603 4.491,22.6311258 4.842,22.5059603 C5.166,22.386755 5.667,22.3956954 6.015,22.3301325 C6.432,22.2556291 6.777,22.2705298 7.092,21.9844371 C7.14,21.936755 7.593,21.5076159 7.686,21.6536424 C7.773,21.7877483 7.95,21.7519868 8.13,21.7311258 C8.331,21.7072848 8.544,21.981457 8.658,22.1215232 C8.715,22.0559603 8.775,21.9933775 8.835,21.9278146 C9.138,22.386755 9.315,21.4718543 9.345,21.307947 C9.486,20.5688742 9.624,19.8268212 9.726,19.0817881 C9.864,18.0715232 10.077,17.0701987 10.26,16.0629139 C10.335,15.6397351 10.602,15.2493377 10.497,14.8112583 C10.398,14.3910596 10.101,14.1288079 10.098,13.6788079 C10.092,13.2139073 9.78,13.1006623 9.399,12.8741722 C8.91,12.5850993 9.027,12.1350993 9.018,11.6791391 C9.012,11.4139073 8.904,11.0771523 9.06,10.8327815 C9.147,10.6956954 9.729,10.5317881 9.891,10.5854305 C10.158,10.6718543 10.242,10.3708609 10.59,10.5317881 C10.947,10.6986755 11.07,10.6062914 11.034,10.2427152 C10.977,9.67350993 9.993,9.31291391 9.45,9.64370861 C9.495,9.24735099 9.273,8.59768212 9.462,8.24006623 C9.648,7.88543046 10.353,8.10596026 10.629,8.10596026 C11.286,8.10596026 11.943,8.1089404 12.6,8.13278146 C12.717,8.13576159 13.098,8.17152318 13.128,8.00761589 C13.146,7.92417219 13.2,7.51291391 13.35,7.5218543 C13.605,7.5397351 13.506,8.29072848 13.959,8.01655629 C14.253,7.83774834 14.412,7.52781457 14.661,7.30728477 C15.003,7.00629139 15.378,7.50993377 15.528,7.7513245 C15.813,8.21324503 15.783,8.50529801 15.735,9.00596026 C15.723,9.12218543 15.678,9.38443709 15.918,9.34569536 C16.251,9.29205298 16.299,9.28311258 16.566,9.52152318 C16.896,9.81059603 17.205,10.1533113 17.634,10.3291391 C18.21,10.5645695 18.381,10.0668874 18.813,9.86423841 C19.623,9.47980132 19.164,10.394702 19.365,10.6033113 C19.575,10.5437086 19.944,10.0490066 20.07,9.88509934 C20.286,9.60198675 20.379,9.44701987 20.76,9.31291391 C21.081,9.20264901 21.312,9.13708609 21.555,8.92251656 C21.723,8.7705298 22.083,8.49635762 22.074,8.91357616 C22.323,8.53211921 22.608,8.39503311 22.722,7.95099338 C22.815,7.60231788 22.974,7.58145695 23.34,7.49801325 C23.463,7.47119205 24.099,7.17019868 24.18,7.0718543 C24.621,6.54139073 23.955,6.39834437 23.466,6.42218543 C23.226,6.43410596 23.01,6.40430464 22.815,6.26721854 C22.698,6.18377483 22.887,5.89470199 22.863,5.78145695 C22.722,5.18543046 22.209,4.80993377 22.341,4.14536424 C22.437,3.66258278 22.023,3.50761589 21.687,3.21258278 C21.495,3.04569536 20.877,2.43774834 21.156,2.18443709 C21.354,2.2589404 21.438,2.52417219 21.648,2.54205298 C21.939,2.56887417 22.5,2.37516556 22.632,2.75364238 C22.74,3.05761589 22.842,3.12615894 23.172,2.97715232 C23.496,2.83112583 23.871,3.30198675 24.135,3.07251656 C24.6,2.67615894 24.951,3.97549669 25.563,3.83543046 C25.95,3.74602649 25.572,3.05761589 25.731,2.8281457 C25.848,2.66125828 26.175,2.74470199 26.346,2.55695364 C26.598,2.28576159 26.865,2.62251656 27.141,2.59569536 C27.6,2.55397351 28.464,2.32748344 28.611,1.96092715 C28.602,1.98178808 29.235,1.66291391 29.178,1.65099338 C29.475,1.71059603 29.652,1.70165563 29.856,1.4692053 C30.204,1.07284768 31.209,0.557284768 30.378,0.0685430464 C30.702,0.0238410596 30.987,0.0894039735 31.314,0.0059602649 C31.581,-0.0625827815 31.878,-0.0447019868 32.016,0.208609272 C32.289,0.715231788 31.803,1.07582781 31.845,1.53178808 C31.869,1.77317881 32.55,1.78509934 32.73,1.94304636 C32.808,2.00860927 32.643,2.20231788 32.709,2.33642384 C32.817,2.55099338 32.943,2.74768212 33.081,2.94139073 C33.234,3.1589404 32.469,3.7013245 32.421,3.88013245 C32.37,4.0589404 32.454,4.2705298 32.403,4.46423841 C32.313,4.81887417 32.085,5.15264901 32.043,5.51622517 C31.983,6.05562914 32.232,6.39238411 32.496,6.83344371 C32.619,7.03907285 32.472,7.85860927 32.856,7.83774834 C32.829,7.90033113 32.802,7.96589404 32.772,8.02847682 C33.21,8.08211921 33.513,8.55 33.759,8.82417219 C33.957,9.04470199 34.332,8.91655629 34.506,9.15496689 C34.662,9.37251656 34.74,9.36655629 34.962,9.25629139 C35.103,9.18774834 35.619,9.08046358 35.505,8.87781457 C35.289,8.50231788 36.345,8.57980132 36.489,8.53509934 C36.69,8.47251656 36.846,8.25794702 37.044,8.16854305 C37.323,8.04337748 37.509,8.25496689 37.749,7.99271523 C38.064,7.64701987 38.415,7.29238411 38.895,7.60231788 C39.36,7.90033113 39.744,7.51291391 40.227,7.62615894 C40.542,7.70364238 41.28,8.06125828 41.388,7.58741722 C41.49,7.15231788 40.692,7.05397351 40.995,6.66059603 C41.358,6.1897351 41.544,6.49072848 42.066,6.46688742 C42.405,6.45198675 42.687,6.40430464 42.966,6.29701987 C43.554,6.07350993 43.419,6.13907285 43.875,6.46986755 C43.965,6.53543046 43.935,6.32086093 44.043,6.46688742 C44.181,6.65165563 44.379,6.73509934 44.577,6.8692053 C44.832,7.03907285 45.084,7.03907285 45.348,7.16721854 C45.648,7.31324503 45.525,7.05099338 45.765,7.00927152 C45.975,6.9705298 46.029,6.77682119 46.2,6.69039735 C46.347,6.61887417 46.536,6.79172185 46.692,6.80662252 C46.884,6.82152318 47.607,6.67549669 47.472,7.03013245 C47.685,6.94072848 48.024,7.16125828 48.198,7.02119205 C48.441,6.82450331 48.75,6.68741722 48.933,6.43410596 C49.191,6.07350993 49.398,5.64735099 49.515,5.23311258 C49.818,4.13940397 50.67,3.34668874 51.435,2.47350993 C51.465,2.62549669 51.54,2.75960265 51.66,2.87582781 C51.558,2.62549669 51.318,2.31556291 51.561,2.06821192 C52.224,2.42880795 52.317,3.01291391 52.257,3.64470199 C52.29,3.45993377 52.308,3.25430464 52.485,3.12615894 C52.476,3.96357616 52.587,4.83675497 52.932,5.62350993 C53.073,5.94536424 53.649,6.92284768 53.244,7.22086093 C53.559,7.12847682 53.616,7.4294702 53.718,7.61423841 C53.916,7.9718543 54.372,7.82880795 54.708,7.95099338 C55.476,8.23410596 55.341,9.03576159 54.684,9.29801325 C54.855,9.25331126 55.05,9.28013245 55.185,9.39337748 C54.897,9.65264901 54.396,9.88509934 54.285,10.260596 C54.228,10.4543046 53.982,10.5407285 53.868,10.7016556 C53.694,10.9400662 53.622,11.2082781 53.409,11.4288079 C53.121,11.7268212 52.749,11.9443709 52.422,12.2125828 C52.014,12.5403974 51.795,12.981457 51.447,13.3539735 C51.126,13.702649 51.003,13.9678808 51.042,14.4149007 C51.06,14.6652318 50.541,14.7099338 50.517,15.052649 C50.484,15.5175497 50.109,15.2672185 49.842,15.2582781 C49.599,15.2523179 48.825,15.5860927 48.732,15.794702 C48.948,15.75 50.118,15.5533113 49.785,16.0271523 C50.01,15.8125828 50.352,15.8304636 50.622,15.6903974 C50.937,15.5294702 51.18,15.3506623 51.519,15.2225166 C51.96,15.0556291 52.617,14.5698675 52.866,14.2003311 C53.427,14.4953642 52.875,15.2523179 53.235,15.6576159 C53.382,15.8215232 53.232,16.2566225 53.475,16.3221854 C53.679,16.3758278 54.036,16.268543 53.904,16.5874172 C54.384,16.6708609 55.254,15.8930464 55.329,16.7781457 C55.29,16.5039735 55.593,16.4533113 55.824,16.4145695 C55.938,16.4175497 56.022,16.3728477 56.07,16.2774834 C56.163,16.065894 56.418,16.1463576 56.616,16.1046358 C56.346,16.8198675 56.1,17.2847682 56.127,18.0268212 C56.499,17.6066225 56.298,16.6917219 56.916,16.4354305 C57.33,16.2625828 57.399,16.2119205 57.645,15.8602649 C58.056,15.2791391 58.158,15.7082781 58.56,15.9317881 C58.554,15.8096026 58.521,15.6933775 58.461,15.5860927 C58.686,15.5711921 58.908,15.5264901 59.13,15.4877483 C58.905,15.3864238 58.647,15.4698675 58.416,15.5086093 C58.362,15.2254967 58.587,15.2135762 58.764,15.0645695 C59.037,14.8350993 58.755,14.3284768 59.091,14.039404 C59.484,13.6966887 59.37,13.9827815 59.631,13.8933775 C59.814,13.8307947 60.201,13.4225166 60.237,13.836755 C60.6,13.5238411 60.615,13.9589404 60.948,13.8546358 C60.807,13.7443709 60.777,13.5804636 60.867,13.431457 C61.071,13.4850993 61.557,13.5923841 61.446,13.8725166 C61.518,13.8397351 61.59,13.8069536 61.665,13.7771523 C61.692,13.8486755 61.719,13.9201987 61.749,13.9917219 C61.935,13.8576159 61.965,13.8576159 61.962,14.084106 C62.136,14.0334437 62.259,13.9023179 62.271,13.7384106 C62.157,13.9887417 62.538,14.0334437 62.433,14.2778146 C62.463,14.1228477 62.577,14.0215232 62.76,14.084106 C62.754,14.2480132 62.631,14.3731788 62.451,14.4119205 C62.763,14.2539735 63.039,14.6443709 63.339,14.3940397 C63.291,14.7546358 63.597,14.5430464 63.687,14.355298 C63.555,14.7903974 63.972,14.6115894 63.936,14.894702 C64.053,14.8529801 64.14,14.781457 64.2,14.6831126 C64.158,14.9304636 64.506,14.8410596 64.56,15.0675497 C64.635,15.0049669 64.707,14.939404 64.779,14.8738411 C64.791,15.0198675 64.848,15.1480132 64.947,15.2582781 C65.019,15.2076159 65.091,15.1569536 65.163,15.1033113 C65.196,15.2970199 65.28,15.389404 65.487,15.1986755 C65.328,15.3 65.283,15.4609272 65.394,15.6039735 C65.442,15.4549669 65.571,15.3417219 65.745,15.3149007 C65.499,15.5115894 65.577,15.9258278 65.799,16.1046358 C65.898,15.9437086 65.787,15.6695364 66.033,15.5831126 C66.486,15.4281457 66.279,15.7142384 66.495,15.7768212 C66.483,15.615894 66.594,15.4907285 66.759,15.434106 C66.681,15.5592715 66.642,15.6933775 66.642,15.8364238 C67.161,15.5622517 66.567,16.3788079 67.116,16.0837748 C67.041,16.1463576 66.969,16.2089404 66.897,16.2774834 C67.071,16.3311258 67.233,16.2536424 67.332,16.1254967 C67.179,16.4086093 67.701,16.2536424 67.47,16.6350993 C67.266,16.9748344 67.356,17.257947 66.858,17.392053 C67.038,17.2937086 67.176,17.3831126 67.224,17.5440397 C67.239,17.2996689 67.548,16.9241722 67.797,17.2430464 C68.061,17.5827815 67.587,17.6870861 67.434,17.9433775 C67.302,18.1609272 67.065,18.831457 67.149,19.0668874 C67.242,19.3261589 66.774,19.5437086 66.975,19.7374172 C67.008,19.3708609 67.497,19.260596 67.677,18.968543 C67.854,18.6794702 67.749,18.1937086 67.941,17.955298 C68.037,17.8331126 68.478,17.5559603 68.616,17.7675497 C68.841,18.113245 68.106,18.2980132 68.052,18.584106 C68.268,18.4619205 68.337,18.5066225 68.265,18.7211921 C68.52,18.6109272 68.886,17.7347682 69.009,18.1817881 C69.036,17.8718543 69.705,17.7049669 69.963,17.8360927 C69.945,17.2311258 71.349,17.9016556 71.598,18.0298013 C71.775,18.1221854 72.747,18.4768212 72.762,18.6437086 C72.978,18.518543 73.536,18.831457 73.437,18.4321192 C73.719,18.4887417 73.908,18.6764901 74.166,18.7778146 C74.46,18.8910596 74.781,18.8731788 75.024,19.0877483 C75.027,18.7152318 75.282,18.7569536 75.606,18.7450331 C76.254,18.7241722 76.827,18.494702 77.487,18.6198675 C78.69,18.8493377 79.794,19.7642384 80.727,20.4228477 C81.039,20.6403974 81.396,20.6761589 81.654,20.9533113 C81.9,21.2155629 82.089,21.510596 82.32,21.7817881 C82.581,22.0887417 82.935,22.2228477 83.175,22.5238411 C83.433,22.8456954 83.91,22.8784768 84.192,23.2122517 C84.477,23.5430464 84.897,23.4089404 85.221,23.6950331 C85.593,24.0288079 86.262,23.894702 86.73,23.8410596 C87.807,23.7218543 88.587,24.0794702 88.872,25.0241722 C88.983,25.3907285 89.154,25.7543046 89.148,26.1417219 C89.148,26.2609272 89.031,26.4546358 89.13,26.4993377 C89.247,26.5529801 89.307,26.6930464 89.349,26.7913907 C89.532,27.2056291 89.838,28.1264901 89.574,28.5615894 C89.646,28.4692053 89.712,28.3738411 89.775,28.2754967 C89.715,28.710596 90.06,29.2380795 89.544,29.5629139 C89.625,29.5778146 89.703,29.5986755 89.781,29.6195364 C89.568,29.9831126 89.877,30.4182119 89.619,30.7460265 C89.352,31.0857616 89.532,31.544702 89.322,31.8993377 C89.076,32.3135762 88.98,32.7784768 88.752,33.1986755 C88.5,33.6635762 87.972,33.9645695 87.756,34.4443709 C87.684,34.3966887 87.612,34.3460265 87.543,34.2923841 C87.555,34.4890728 87.48,34.7304636 87.279,34.4086093 C87.312,34.5307947 87.396,34.5963576 87.534,34.6023179 C87.204,35.1536424 86.706,35.8748344 86.16,36.2950331 C85.935,36.4649007 85.641,36.5364238 85.41,36.7062914 C85.173,36.8850993 84.981,37.1205298 84.702,37.2516556 C84.756,37.0877483 84.642,36.9715232 84.477,36.9268212 C84.447,37.1056291 84.699,37.1622517 84.654,37.3291391 C84.594,37.5437086 84.372,37.8327815 84.144,37.5615894 C84.255,37.6986755 84.531,37.8327815 84.351,38.0413907 C84.246,38.160596 83.814,38.5599338 84.003,38.1188742 C83.859,38.3096026 83.874,38.5509934 83.67,38.7149007 C83.76,38.6910596 83.847,38.6672185 83.934,38.6374172 C83.427,39.2423841 82.509,42.2850993 81.276,42.1003311 C81.528,41.6384106 81.003,41.5549669 80.865,41.1943709 C80.844,41.4029801 80.553,41.9870861 80.37,41.5400662 C80.424,41.7278146 80.748,41.805298 80.727,42.007947 C80.691,42.3625828 80.172,42.6129139 80.292,43.0033113 C79.956,42.794702 79.998,43.3251656 79.98,43.5427152 C80.01,43.4413907 80.052,43.3460265 80.103,43.2536424 C80.208,43.5218543 80.199,43.7572848 80.172,44.0403974 C80.091,43.9807947 80.013,43.9182119 79.944,43.8496689 C80.124,43.9897351 80.268,44.4456954 80.184,44.6572848 C80.25,44.5231788 80.316,44.3860927 80.379,44.2519868 C80.364,45.0596026 80.034,45.7927152 80.124,46.6152318 C80.187,47.318543 80.478,48.0546358 80.466,48.757947 C80.439,50.0036424 79.461,51.165894 79.755,52.4443709 C79.92,53.1566225 79.401,53.2430464 79.011,53.7794702 C78.561,54.3993377 78.438,55.1652318 78.486,55.8596026 C78.519,56.3543046 78.774,57.3496689 78.087,57.6059603 C77.436,57.8503311 77.85,58.9291391 77.091,59.018543 C77.586,59.4298013 76.632,59.9483444 76.305,60.2016556 C76.023,60.4192053 76.083,60.5831126 75.963,60.8721854 C75.786,61.3043046 75.525,61.6917219 75.558,62.1506623 C75.579,62.3890728 75.741,62.7615894 75.516,62.9791391 C75.141,63.336755 74.625,63.3278146 74.178,63.5483444 C73.875,63.697351 73.548,63.9774834 73.392,64.2486755 C73.29,64.4245033 73.374,64.5884106 73.416,64.755298 C73.461,64.9281457 73.197,65.0175497 73.278,65.2082781 C73.005,64.9192053 72.126,65.0622517 71.739,65.1307947 C71.511,65.1725166 71.145,65.2798013 70.938,65.1695364 C70.635,65.0115894 70.89,64.7403974 70.896,64.4990066 C70.176,64.5705298 70.734,64.8298013 70.608,65.1397351 C70.485,65.4466887 69.075,65.3274834 68.739,65.4794702 C68.976,65.2768212 69.342,65.3662252 69.621,65.2857616 C69.354,65.0592715 69.039,64.9370861 68.661,65.1278146 C68.322,65.2976821 68.193,65.1635762 67.857,65.1963576 C67.617,65.2172185 67.215,65.2410596 67.104,65.4913907 C67.002,65.7208609 67.401,65.8221854 67.545,65.9205298 C67.17,66.1678808 66.732,65.9086093 66.474,66.2006623 C66.249,66.4539735 65.931,66.4837748 65.643,66.6476821 C65.388,66.7937086 65.661,67.0142384 65.406,67.1513245 C65.052,67.342053 64.539,66.8056291 64.029,67.1513245 C63.975,67.1900662 63.591,67.7115894 63.489,67.5834437 C63.396,67.4701987 63.495,67.3062914 63.234,67.3450331 C63.333,67.6937086 62.808,67.7354305 62.499,67.9023179 C62.124,68.107947 61.926,68.4 61.617,68.6652318 C61.281,68.9513245 60.801,69.0317881 60.444,69.2910596 C60.135,69.5115894 59.937,69.8483444 59.592,70.0331126 C59.658,70.0718543 59.727,70.1135762 59.796,70.1523179 C59.511,70.3758278 59.223,70.6350993 59.031,70.9211921 C59.031,70.7751656 59.097,70.6470199 59.223,70.536755 C58.98,70.6231788 58.746,70.5665563 58.545,70.4771523 C58.584,70.8764901 58.29,71.1059603 57.9,70.784106 C57.858,71.0135762 58.449,71.2519868 58.695,71.2281457 C58.506,71.3622517 58.422,71.5410596 58.35,71.7258278 C58.296,71.8748344 57.957,71.8271523 57.837,71.9016556 C57.984,71.8956954 58.134,71.9016556 58.278,71.9195364 C58.182,72.1013245 58.239,72.2860927 58.152,72.4678808 C58.044,72.6824503 57.777,72.7182119 57.744,72.4768212 C57.807,72.6347682 57.735,72.8493377 57.924,72.9238411 C58.173,73.0221854 57.942,73.5049669 57.978,73.6897351 C58.029,73.9847682 58.386,74.4168874 58.14,74.7834437 C58.479,74.7178808 58.392,75.0486755 58.116,75.0903974 C58.383,75.284106 58.023,76.1066225 58.206,76.4463576 C58.377,76.7652318 57.861,77.5549669 57.792,77.8798013 C57.684,77.805298 57.603,77.715894 57.54,77.6086093 C57.597,77.7754967 57.558,77.9692053 57.789,78.0347682 C57.492,78.3357616 57.063,78.5175497 56.706,78.7559603 C56.322,79.0122517 56.031,79.3519868 55.767,79.6917219 C55.119,80.5142384 54.828,81.3933775 54.363,82.2844371 C53.925,83.1218543 53.271,83.8847682 52.548,84.5970199 C51.849,85.2824503 50.946,85.7711921 50.166,86.3970199 C50.334,86.1496689 50.241,85.8486755 50.229,85.6072848 C50.544,85.6847682 50.67,85.7086093 51.006,85.5357616 C51.303,85.3807947 51.528,85.0231788 51.789,84.9099338 C52.152,84.7549669 52.236,84.6238411 52.305,84.3019868 C52.35,84.0963576 52.473,83.7327815 52.704,84.0307947 C52.662,83.7268212 52.854,83.610596 53.112,83.3960265 C53.322,83.2231788 53.403,83.0235099 53.412,82.8 C53.421,82.6390728 53.337,82.102649 53.682,82.4334437 C53.712,82.35 53.688,81.8344371 53.523,81.8821192 C53.418,81.9089404 52.803,82.2576159 52.776,82.3589404 C52.659,82.215894 52.611,82.0460265 52.404,81.9774834 C52.161,81.9 52.281,81.584106 52.068,81.4768212 C51.933,82.0013245 52.23,81.9804636 52.392,82.3589404 C51.849,82.4692053 52.113,82.9788079 52.014,83.2619205 C52.008,83.1218543 51.969,82.9937086 51.894,82.8774834 C51.78,83.0592715 51.93,83.294702 51.792,83.4466887 C51.729,83.5122517 51.564,83.5003311 51.564,83.6046358 C51.567,84.0427152 51.075,84.2781457 50.673,84.4539735 C50.352,84.5940397 50.4,84.8980132 50.265,85.1304636 C50.154,85.3211921 49.476,85.792053 50.016,85.8397351 C49.689,85.994702 49.821,86.3344371 50.151,86.1466887 C50.145,86.3910596 49.881,86.6175497 49.716,86.8261589 C49.449,87.1629139 49.374,87.5711921 49.23,87.9347682 C48.948,88.6529801 48.333,89.0791391 47.76,89.6602649 C47.292,90.134106 46.809,90.0298013 46.86,89.4844371 C46.881,89.2460265 46.839,88.9718543 46.899,88.7364238 C46.98,88.4384106 47.442,88.1880795 47.64,87.9317881 C47.955,87.5235099 47.388,87.368543 47.097,87.2433775 C46.761,87.1003311 46.635,86.8440397 46.512,86.5519868 C46.242,85.9142384 45.525,85.9142384 45.012,85.4970199 C44.742,85.2764901 44.649,84.9248344 44.286,84.7817881 C44.13,84.757947 43.977,84.734106 43.824,84.7043046 C43.662,84.6298013 43.635,84.4480132 43.47,84.3794702 C43.218,84.2692053 43.047,84.4003311 42.855,84.1112583 C42.654,83.8072848 42.48,83.4824503 42.036,83.3781457 C42.138,83.7089404 41.1,84.2245033 41.211,83.5688742 C41.307,83.0115894 40.617,82.6539735 40.227,82.3589404 C39.936,82.1384106 39.387,81.381457 38.802,81.7003311 C38.604,81.8076159 38.586,82.0788079 38.313,82.0549669 C37.995,82.0281457 37.728,82.0847682 37.56,81.8374172 C38.082,81.6764901 38.217,81.0983444 38.673,80.8331126 C39.186,80.5321192 39.483,80.0850993 39.732,79.6380795 C40.014,79.1374172 40.584,78.7589404 40.953,78.2970199 C41.139,78.0645695 41.538,77.4089404 41.859,77.7456954 C41.979,77.5877483 41.922,77.4506623 41.742,77.3970199 C42.099,77.084106 42.519,76.7682119 42.969,76.568543 C43.431,76.3629139 43.524,76.1513245 43.863,75.8801325 C44.205,75.6059603 44.58,75.5403974 44.97,75.3794702 C45.255,75.263245 45.822,74.7417219 46.137,74.8788079 C46.293,74.4049669 46.341,74.0235099 46.404,73.5496689 C46.485,72.9745033 46.473,72.6735099 46.338,72.1370861 C46.242,71.7586093 46.215,71.3205298 45.753,71.1715232 C45.486,71.0850993 44.958,71.0523179 44.838,71.4009934 C44.598,71.2549669 44.283,71.1178808 44.448,70.7930464 C44.679,70.3370861 44.691,70.0152318 44.811,69.547351 C44.892,69.2284768 44.934,68.8112583 45.135,68.5192053 C45.345,68.2122517 44.823,67.9172185 45.249,67.6698675 C44.997,67.5089404 44.817,67.1870861 44.469,67.1513245 C44.103,67.1125828 43.809,67.4195364 43.476,67.5149007 C42.552,67.7741722 42.42,66.9963576 42.303,66.4003311 C42.234,66.0427152 42.045,65.6344371 42.015,65.2708609 C41.985,64.9311258 42.138,64.6092715 41.856,64.3589404 C41.592,64.1235099 41.745,63.7778146 41.283,63.6675497 C40.92,63.584106 40.638,63.5036424 40.365,63.2622517 C40.098,63.0298013 39.831,63.0774834 39.876,63.3665563 C40.038,64.3470199 39.099,63.6496689 38.811,63.6168874 C38.397,63.5692053 37.944,63.5245033 37.59,63.3456954 C37.401,63.2503311 36.612,63.1788079 36.579,62.9582781 C36.546,62.7317881 36.78,62.6304636 36.792,62.4009934 C36.804,62.1864238 36.678,61.8854305 36.795,61.6768212 C37.005,61.313245 36.873,60.9794702 37.005,60.6278146 C37.104,60.3566225 36.57,60.2463576 36.906,59.9423841 C36.651,59.9274834 36.63,59.7039735 36.63,59.5251656 C36.636,59.2390728 36.471,59.1705298 36.321,58.95 C35.979,58.4612583 37.389,58.4493377 36.861,58.0619205 C36.219,57.5970199 36.492,57.2364238 36.888,56.5837748 C36.996,56.4049669 37.35,56.0741722 37.26,55.9043046 C37.11,55.6211921 37.266,55.3738411 37.383,55.0549669 C37.476,54.7986755 37.725,54.4112583 37.728,54.1519868 C37.728,53.886755 37.431,53.6930464 37.341,53.460596 C37.23,53.1745033 37.269,52.5725166 36.888,52.536755 C36.372,52.492053 35.802,52.1582781 35.682,51.6993377 C35.601,51.3923841 35.499,51.0258278 35.523,50.7039735 C35.547,50.3791391 35.85,50.107947 35.874,49.7682119 C35.118,49.9172185 34.356,49.8486755 33.618,49.7801325 C33.15,49.7384106 32.046,49.8635762 31.743,49.5298013 C31.464,49.2258278 31.605,48.6178808 31.572,48.239404 C31.53,47.7357616 30.885,47.4377483 30.915,46.9817881 C31.104,46.9639073 31.293,46.957947 31.482,46.9639073 C31.401,46.4096026 31.407,45.8284768 31.161,45.3129139 C31.065,45.113245 30.93,44.9701987 31.002,44.7377483 C31.086,44.4725166 31.146,44.302649 30.93,44.0850993 C30.213,43.3668874 29.073,43.1761589 28.017,43.3847682 C27.72,43.4443709 27.261,42.7619205 27.132,42.5950331 C26.991,42.413245 26.874,42.4996689 26.67,42.4847682 C26.487,42.4698675 26.091,42.2433775 25.968,42.1271523 C25.863,42.0258278 25.65,42.1211921 25.521,42.0347682 C25.32,41.9066225 25.227,41.6562914 25.092,41.4804636 C24.918,41.2509934 24.834,41.2927152 24.564,41.3970199 C24.249,41.5162252 24.147,41.2182119 23.949,41.0990066 C23.43,40.7831126 23.205,41.1377483 22.662,41.0215232 C22.041,40.8903974 21.981,40.8486755 21.672,40.4225166 C21.528,40.2198675 20.988,39.8860927 20.724,39.8622517 C20.463,39.8384106 20.571,39.5076159 20.427,39.3556291 C20.322,39.2423841 20.061,39.263245 20.076,39.0903974 C20.112,38.7119205 19.725,38.4884106 19.713,38.0592715 C19.707,37.8268212 19.941,37.5705298 19.905,37.3619205 C19.869,37.1741722 19.629,37.1354305 19.611,36.9178808 C19.596,36.742053 19.626,36.5602649 19.587,36.3874172 C19.539,36.157947 19.836,35.9970199 19.899,35.7884106 C20.013,35.392053 19.989,34.718543 19.587,34.4652318 C19.482,34.5486755 19.386,34.763245 19.221,34.7513245 C18.804,34.7215232 18.483,34.7274834 18.06,34.7692053 C17.598,34.8168874 16.812,34.8288079 16.512,35.2221854 C16.059,35.7913907 15.471,35.7913907 14.907,36.1758278 C14.742,36.2890728 14.484,36.4649007 14.43,36.652649 C14.346,36.9476821 14.028,36.7122517 13.836,36.6943709 C13.533,36.6675497 13.377,36.9596026 13.26,37.1592715 C13.101,37.4334437 12.816,37.5824503 12.504,37.7016556 C12.423,37.7344371 11.874,37.8953642 11.928,37.6718543 C12,37.3887417 11.625,37.4483444 11.391,37.4423841 C10.782,37.4274834 9.885,37.1860927 9.288,37.3440397 C8.982,37.4245033 8.676,37.7135762 8.343,37.6211921 C8.145,37.5645695 7.896,37.2754967 7.662,37.4453642 C7.626,36.742053 7.716,36.0298013 7.677,35.3264901 C7.65,34.986755 7.74,34.8794702 7.869,34.5903974 C7.881,34.4950331 7.854,34.4115894 7.785,34.3370861 C7.683,34.1463576 7.89,34.0599338 7.947,33.8870861 C7.374,33.8930464 6.804,34.6976821 6.408,35.0016556 C5.796,35.4576159 4.815,35.2728477 4.125,35.1953642 C4.26,34.8615894 3.99,34.313245 3.723,34.0986755 C3.243,33.7201987 2.346,34.0062914 1.812,33.7529801 C2.487,33.0139073 2.292,32.805298 1.641,32.1824503 C1.503,32.0513245 1.491,31.9231788 1.44,31.7533113 C1.386,31.5745033 1.158,31.5298013 1.041,31.3897351 C0.774,31.0678808 0.861,30.6625828 0.429,30.4062914 C0.897,30.1619205 0.096,29.6791391 -0.036,29.4854305" id="path2812" sketch:type="MSShapeGroup"></path>
            <path id="path2868" sketch:type="MSShapeGroup" d="M58.026,72.9745033 C58.083,73.034106 58.14,73.0907285 58.2,73.147351 C58.305,72.9596026 58.422,72.7599338 58.263,72.5900662 C58.122,72.697351 58.041,72.8254967 58.026,72.9745033"></path>
            <path id="path2870" sketch:type="MSShapeGroup" d="M58.251,76.3807947 C58.491,76.139404 58.746,75.6596026 58.539,75.397351 C58.185,75.5642384 58.257,76.1245033 58.251,76.3807947"></path>
            <path d="M65.901,67.4761589 C65.952,67.3003311 65.796,67.1811258 65.907,66.9963576 C65.631,66.9427152 65.511,67.1960265 65.445,67.3807947 C65.616,67.3629139 65.769,67.3956954 65.901,67.4761589" id="path2880" sketch:type="MSShapeGroup"></path>
            <path id="path2884" sketch:type="MSShapeGroup" d="M68.007,65.7476821 C68.19,65.7238411 68.358,65.6254967 68.475,65.497351 C68.274,65.363245 67.926,65.497351 68.007,65.7476821"></path>
            <path id="path2888" sketch:type="MSShapeGroup" d="M80.694,42.4460265 C80.865,42.3059603 81.285,42.0735099 80.961,41.8678808 C81.006,42.1062914 80.691,42.2165563 80.694,42.4460265"></path>
        </g>
        <g id="br" sketch:type="MSLayerGroup" transform="translate(160.000000, 47.000000)" fill="#CAC8D2">
            <path id="path2886" sketch:type="MSShapeGroup" d="M80.334,43.4443709 C80.703,42.6874172 79.779,43.3043046 80.334,43.4443709"></path>
            <path id="path2814" sketch:type="MSShapeGroup" d="M49.407,15.6248344 C49.623,15.5860927 49.815,15.4698675 49.971,15.3357616 C49.734,15.3059603 49.473,15.4013245 49.407,15.6248344"></path>
            <path id="path2816" sketch:type="MSShapeGroup" d="M49.92,15.8900662 C50.097,15.7172185 50.379,15.7559603 50.571,15.6039735 C50.376,15.3089404 49.797,15.5831126 49.92,15.8900662"></path>
            <path id="path2846" sketch:type="MSShapeGroup" d="M53.832,7.2 C53.88,7.13741722 53.928,7.0718543 53.979,7.00927152 C53.736,6.94668874 53.688,7.01225166 53.832,7.2"></path>
            <path id="path2848" sketch:type="MSShapeGroup" d="M54.036,7.75728477 C54.366,7.61125828 54.189,7.35496689 54.027,7.16423841 C53.703,7.29536424 53.883,7.57847682 54.036,7.75728477"></path>
            <path d="M50.595,15.5056291 C51.189,15.3774834 52.641,14.1198675 52.311,13.5208609 C51.972,12.9099338 51.288,13.7324503 51.195,14.0602649 C51.126,14.2986755 51.24,14.5549669 50.967,14.7129139 C50.67,14.8827815 50.448,15.1748344 50.595,15.5056291" id="path2818" sketch:type="MSShapeGroup"></path>
            <path d="M51.804,13.2198675 C52.029,13.0887417 52.641,12.7221854 52.356,12.4301325 C52.041,12.5761589 51.912,12.9456954 51.804,13.2198675" id="path2820" sketch:type="MSShapeGroup"></path>
            <path d="M51.795,14.9096026 C52.119,14.8112583 52.377,14.4 52.173,14.1228477 C52.164,14.4327815 51.795,14.6056291 51.795,14.9096026" id="path2822" sketch:type="MSShapeGroup"></path>
            <path d="M52.734,14.1049669 C52.488,14.1764901 52.302,14.3761589 52.254,14.602649 C52.554,14.5400662 52.629,14.242053 52.869,14.1049669 L52.734,14.1049669" id="path2824" sketch:type="MSShapeGroup"></path>
            <path id="path2826" sketch:type="MSShapeGroup" d="M52.425,13.3539735 C52.524,13.1662252 52.572,12.9516556 52.821,12.8741722 C52.491,12.5761589 52.344,13.1453642 52.425,13.3539735"></path>
            <path d="M52.365,14.3165563 C52.566,14.1228477 52.695,13.8725166 52.935,13.7086093 C53.067,13.6192053 53.145,13.3748344 52.881,13.4582781 C52.593,13.5476821 52.347,14.063245 52.365,14.3165563" id="path2828" sketch:type="MSShapeGroup"></path>
            <path id="path2830" sketch:type="MSShapeGroup" d="M52.533,13.3718543 C52.707,13.3271523 52.848,13.2019868 52.776,13.0291391 C52.62,13.0917219 52.512,13.2168874 52.533,13.3718543"></path>
            <path d="M53.019,12.757947 C53.181,12.6059603 53.391,12.5046358 53.553,12.352649 C53.754,12.1589404 53.418,12.0874172 53.268,12.1470199 C52.959,12.2721854 52.356,12.6417219 53.019,12.757947" id="path2832" sketch:type="MSShapeGroup"></path>
            <path d="M52.725,13.431457 C52.911,13.3450331 53.301,13.2228477 53.166,12.9695364 C52.887,12.9874172 52.845,13.2615894 52.725,13.431457" id="path2834" sketch:type="MSShapeGroup"></path>
            <path id="path2836" sketch:type="MSShapeGroup" d="M52.824,14.0453642 C52.935,13.9887417 53.016,13.905298 53.064,13.7980132 C52.884,13.7980132 52.785,13.881457 52.824,14.0453642"></path>
            <path id="path2838" sketch:type="MSShapeGroup" d="M52.92,12.0844371 C52.929,12.1231788 52.935,12.1619205 52.941,12.2006623 C53.112,12.1827815 53.256,12.1172185 53.373,12.0099338 C53.211,11.902649 53.031,11.9503311 52.92,12.0844371"></path>
            <path d="M53.166,15.4877483 C53.322,15.7172185 53.427,15.9854305 53.64,16.1821192 C53.802,16.3281457 54.474,16.3728477 54.129,16.2 C54.435,16.2327815 54.822,16.0688742 55.107,16.1433775 C55.308,16.1970199 55.602,16.3400662 55.536,16.0092715 C55.581,16.0807947 55.629,16.1523179 55.683,16.2178808 C55.899,16.0897351 56.118,15.907947 56.124,15.660596 C56.238,16.0599338 57.015,15.7738411 57.261,15.660596 C57.714,15.4519868 57.708,15.0347682 57.975,14.6890728 C58.23,14.3582781 58.314,14.0274834 58.407,13.6430464 C58.494,13.2794702 58.977,12.6625828 58.266,12.6238411 C57.711,12.5940397 57.012,12.2870861 56.481,12.4897351 C56.247,12.5791391 56.502,12.6655629 56.133,12.6536424 C55.806,12.6387417 55.542,12.6 55.227,12.5254967 C54.648,12.3913907 53.895,12.1589404 53.505,12.7370861 C53.286,13.0529801 53.262,13.5566225 53.739,13.6788079 C53.565,13.6460265 53.394,13.6072848 53.223,13.5655629 C53.148,13.7413907 53.292,13.8218543 53.277,13.9887417 C53.262,14.1824503 53.085,14.3284768 53.199,14.534106 C53.319,14.7576159 53.685,14.4625828 53.874,14.5072848 C53.574,14.9513245 53.64,14.6324503 53.115,14.7009934 C53.226,14.939404 53.184,15.2344371 53.166,15.4877483" id="path2840" sketch:type="MSShapeGroup"></path>
            <path id="path2842" sketch:type="MSShapeGroup" d="M53.697,12.0844371 C53.985,12.2751656 53.979,12.0009934 53.883,11.8311258 C53.658,11.4437086 53.433,11.857947 53.697,12.0844371"></path>
            <path id="path2844" sketch:type="MSShapeGroup" d="M53.973,11.7 C54.186,11.4139073 54.345,11.0771523 54.042,10.7761589 C53.91,11.0115894 53.664,11.6254967 53.973,11.7"></path>
            <path d="M54.819,12.0844371 C55.026,12.4629139 55.437,11.8639073 55.611,11.7029801 C56.061,11.2827815 55.245,11.3572848 54.99,11.4258278 C54.741,11.497351 54.18,11.5182119 54.099,11.7983444 C54.03,12.0307947 54.675,12.0695364 54.819,12.0844371" id="path2850" sketch:type="MSShapeGroup"></path>
            <path d="M54.396,11.2976821 C54.516,11.2112583 55.092,10.8149007 54.87,10.6480132 C54.513,10.3827815 54.126,11.0562914 54.396,11.2976821" id="path2852" sketch:type="MSShapeGroup"></path>
            <path id="path2854" sketch:type="MSShapeGroup" d="M54.423,11.565894 C54.558,11.5122517 54.672,11.4377483 54.765,11.3364238 C54.582,11.3096026 54.462,11.4168874 54.423,11.565894"></path>
            <path id="path2856" sketch:type="MSShapeGroup" d="M54.405,10.3738411 C54.618,10.3678808 54.885,10.3142384 54.852,10.0668874 C54.621,10.0072848 54.321,10.1205298 54.405,10.3738411"></path>
            <path id="path2858" sketch:type="MSShapeGroup" d="M54.912,9.95066225 C55.05,9.87615894 55.068,9.78377483 54.975,9.66456954 C54.846,9.73609272 54.825,9.83145695 54.912,9.95066225"></path>
            <path id="path2860" sketch:type="MSShapeGroup" d="M55.533,12.0844371 C55.221,12.5076159 55.983,12.4271523 56.226,12.3556291 C56.652,12.2274834 55.896,11.7596026 55.533,12.0844371"></path>
            <path id="path2862" sketch:type="MSShapeGroup" d="M57.324,16.2566225 C57.399,16.0897351 57.444,15.9168874 57.462,15.7380795 C57.192,15.8245033 57.045,16.0897351 57.324,16.2566225"></path>
            <path id="path2864" sketch:type="MSShapeGroup" d="M58.494,14.7784768 C59.073,15.2880795 58.632,14.1586093 58.494,14.7784768"></path>
            <path id="path2866" sketch:type="MSShapeGroup" d="M60.24,13.6788079 C60.468,13.7711921 60.252,13.4791391 60.246,13.4701987 C60.243,13.5387417 60.243,13.6102649 60.24,13.6788079"></path>
            <path id="path2872" sketch:type="MSShapeGroup" d="M62.952,14.4476821 C63.069,14.4208609 63.129,14.3493377 63.129,14.2390728 C62.898,14.1943709 62.838,14.2629139 62.952,14.4476821"></path>
            <path id="path2874" sketch:type="MSShapeGroup" d="M66.435,15.3357616 C66.603,15.2821192 66.699,15.1599338 66.615,15.007947 C66.528,15.2254967 66.471,15.2701987 66.438,15.1390728 C66.438,15.2046358 66.438,15.2701987 66.435,15.3357616"></path>
            <path id="path2876" sketch:type="MSShapeGroup" d="M66.945,15.9496689 C67.026,15.9228477 67.104,15.8990066 67.185,15.8721854 C66.981,15.75 66.9,15.7768212 66.945,15.9496689"></path>
            <path id="path2878" sketch:type="MSShapeGroup" d="M67.374,19.1801325 C67.518,18.9298013 67.629,18.6764901 67.623,18.3903974 C67.278,18.5215232 67.392,18.9268212 67.374,19.1801325"></path>
            <path id="path2882" sketch:type="MSShapeGroup" d="M69.408,17.5261589 C69.474,17.460596 69.54,17.3980132 69.606,17.3324503 C69.375,17.3145695 69.309,17.3771523 69.408,17.5261589"></path>
            <path d="M-0.036,29.4854305 C0.183,29.294702 0.096,29.160596 0.414,29.0264901 C0.774,28.8804636 0.393,28.5466887 0.498,28.2099338 C0.705,27.563245 1.485,27.6496689 1.806,27.2056291 C2.034,26.8927152 1.872,26.5917219 1.803,26.2728477 C1.743,25.9807947 1.929,25.718543 2.124,25.4890728 C2.517,25.0271523 2.16,24.3536424 2.559,23.9483444 C2.763,23.736755 3.177,23.7248344 3.411,23.5251656 C3.618,23.3493377 3.645,23.152649 3.93,23.0662252 C4.293,22.9559603 4.491,22.6311258 4.842,22.5059603 C5.166,22.386755 5.667,22.3956954 6.015,22.3301325 C6.432,22.2556291 6.777,22.2705298 7.092,21.9844371 C7.14,21.936755 7.593,21.5076159 7.686,21.6536424 C7.773,21.7877483 7.95,21.7519868 8.13,21.7311258 C8.331,21.7072848 8.544,21.981457 8.658,22.1215232 C8.715,22.0559603 8.775,21.9933775 8.835,21.9278146 C9.138,22.386755 9.315,21.4718543 9.345,21.307947 C9.486,20.5688742 9.624,19.8268212 9.726,19.0817881 C9.864,18.0715232 10.077,17.0701987 10.26,16.0629139 C10.335,15.6397351 10.602,15.2493377 10.497,14.8112583 C10.398,14.3910596 10.101,14.1288079 10.098,13.6788079 C10.092,13.2139073 9.78,13.1006623 9.399,12.8741722 C8.91,12.5850993 9.027,12.1350993 9.018,11.6791391 C9.012,11.4139073 8.904,11.0771523 9.06,10.8327815 C9.147,10.6956954 9.729,10.5317881 9.891,10.5854305 C10.158,10.6718543 10.242,10.3708609 10.59,10.5317881 C10.947,10.6986755 11.07,10.6062914 11.034,10.2427152 C10.977,9.67350993 9.993,9.31291391 9.45,9.64370861 C9.495,9.24735099 9.273,8.59768212 9.462,8.24006623 C9.648,7.88543046 10.353,8.10596026 10.629,8.10596026 C11.286,8.10596026 11.943,8.1089404 12.6,8.13278146 C12.717,8.13576159 13.098,8.17152318 13.128,8.00761589 C13.146,7.92417219 13.2,7.51291391 13.35,7.5218543 C13.605,7.5397351 13.506,8.29072848 13.959,8.01655629 C14.253,7.83774834 14.412,7.52781457 14.661,7.30728477 C15.003,7.00629139 15.378,7.50993377 15.528,7.7513245 C15.813,8.21324503 15.783,8.50529801 15.735,9.00596026 C15.723,9.12218543 15.678,9.38443709 15.918,9.34569536 C16.251,9.29205298 16.299,9.28311258 16.566,9.52152318 C16.896,9.81059603 17.205,10.1533113 17.634,10.3291391 C18.21,10.5645695 18.381,10.0668874 18.813,9.86423841 C19.623,9.47980132 19.164,10.394702 19.365,10.6033113 C19.575,10.5437086 19.944,10.0490066 20.07,9.88509934 C20.286,9.60198675 20.379,9.44701987 20.76,9.31291391 C21.081,9.20264901 21.312,9.13708609 21.555,8.92251656 C21.723,8.7705298 22.083,8.49635762 22.074,8.91357616 C22.323,8.53211921 22.608,8.39503311 22.722,7.95099338 C22.815,7.60231788 22.974,7.58145695 23.34,7.49801325 C23.463,7.47119205 24.099,7.17019868 24.18,7.0718543 C24.621,6.54139073 23.955,6.39834437 23.466,6.42218543 C23.226,6.43410596 23.01,6.40430464 22.815,6.26721854 C22.698,6.18377483 22.887,5.89470199 22.863,5.78145695 C22.722,5.18543046 22.209,4.80993377 22.341,4.14536424 C22.437,3.66258278 22.023,3.50761589 21.687,3.21258278 C21.495,3.04569536 20.877,2.43774834 21.156,2.18443709 C21.354,2.2589404 21.438,2.52417219 21.648,2.54205298 C21.939,2.56887417 22.5,2.37516556 22.632,2.75364238 C22.74,3.05761589 22.842,3.12615894 23.172,2.97715232 C23.496,2.83112583 23.871,3.30198675 24.135,3.07251656 C24.6,2.67615894 24.951,3.97549669 25.563,3.83543046 C25.95,3.74602649 25.572,3.05761589 25.731,2.8281457 C25.848,2.66125828 26.175,2.74470199 26.346,2.55695364 C26.598,2.28576159 26.865,2.62251656 27.141,2.59569536 C27.6,2.55397351 28.464,2.32748344 28.611,1.96092715 C28.602,1.98178808 29.235,1.66291391 29.178,1.65099338 C29.475,1.71059603 29.652,1.70165563 29.856,1.4692053 C30.204,1.07284768 31.209,0.557284768 30.378,0.0685430464 C30.702,0.0238410596 30.987,0.0894039735 31.314,0.0059602649 C31.581,-0.0625827815 31.878,-0.0447019868 32.016,0.208609272 C32.289,0.715231788 31.803,1.07582781 31.845,1.53178808 C31.869,1.77317881 32.55,1.78509934 32.73,1.94304636 C32.808,2.00860927 32.643,2.20231788 32.709,2.33642384 C32.817,2.55099338 32.943,2.74768212 33.081,2.94139073 C33.234,3.1589404 32.469,3.7013245 32.421,3.88013245 C32.37,4.0589404 32.454,4.2705298 32.403,4.46423841 C32.313,4.81887417 32.085,5.15264901 32.043,5.51622517 C31.983,6.05562914 32.232,6.39238411 32.496,6.83344371 C32.619,7.03907285 32.472,7.85860927 32.856,7.83774834 C32.829,7.90033113 32.802,7.96589404 32.772,8.02847682 C33.21,8.08211921 33.513,8.55 33.759,8.82417219 C33.957,9.04470199 34.332,8.91655629 34.506,9.15496689 C34.662,9.37251656 34.74,9.36655629 34.962,9.25629139 C35.103,9.18774834 35.619,9.08046358 35.505,8.87781457 C35.289,8.50231788 36.345,8.57980132 36.489,8.53509934 C36.69,8.47251656 36.846,8.25794702 37.044,8.16854305 C37.323,8.04337748 37.509,8.25496689 37.749,7.99271523 C38.064,7.64701987 38.415,7.29238411 38.895,7.60231788 C39.36,7.90033113 39.744,7.51291391 40.227,7.62615894 C40.542,7.70364238 41.28,8.06125828 41.388,7.58741722 C41.49,7.15231788 40.692,7.05397351 40.995,6.66059603 C41.358,6.1897351 41.544,6.49072848 42.066,6.46688742 C42.405,6.45198675 42.687,6.40430464 42.966,6.29701987 C43.554,6.07350993 43.419,6.13907285 43.875,6.46986755 C43.965,6.53543046 43.935,6.32086093 44.043,6.46688742 C44.181,6.65165563 44.379,6.73509934 44.577,6.8692053 C44.832,7.03907285 45.084,7.03907285 45.348,7.16721854 C45.648,7.31324503 45.525,7.05099338 45.765,7.00927152 C45.975,6.9705298 46.029,6.77682119 46.2,6.69039735 C46.347,6.61887417 46.536,6.79172185 46.692,6.80662252 C46.884,6.82152318 47.607,6.67549669 47.472,7.03013245 C47.685,6.94072848 48.024,7.16125828 48.198,7.02119205 C48.441,6.82450331 48.75,6.68741722 48.933,6.43410596 C49.191,6.07350993 49.398,5.64735099 49.515,5.23311258 C49.818,4.13940397 50.67,3.34668874 51.435,2.47350993 C51.465,2.62549669 51.54,2.75960265 51.66,2.87582781 C51.558,2.62549669 51.318,2.31556291 51.561,2.06821192 C52.224,2.42880795 52.317,3.01291391 52.257,3.64470199 C52.29,3.45993377 52.308,3.25430464 52.485,3.12615894 C52.476,3.96357616 52.587,4.83675497 52.932,5.62350993 C53.073,5.94536424 53.649,6.92284768 53.244,7.22086093 C53.559,7.12847682 53.616,7.4294702 53.718,7.61423841 C53.916,7.9718543 54.372,7.82880795 54.708,7.95099338 C55.476,8.23410596 55.341,9.03576159 54.684,9.29801325 C54.855,9.25331126 55.05,9.28013245 55.185,9.39337748 C54.897,9.65264901 54.396,9.88509934 54.285,10.260596 C54.228,10.4543046 53.982,10.5407285 53.868,10.7016556 C53.694,10.9400662 53.622,11.2082781 53.409,11.4288079 C53.121,11.7268212 52.749,11.9443709 52.422,12.2125828 C52.014,12.5403974 51.795,12.981457 51.447,13.3539735 C51.126,13.702649 51.003,13.9678808 51.042,14.4149007 C51.06,14.6652318 50.541,14.7099338 50.517,15.052649 C50.484,15.5175497 50.109,15.2672185 49.842,15.2582781 C49.599,15.2523179 48.825,15.5860927 48.732,15.794702 C48.948,15.75 50.118,15.5533113 49.785,16.0271523 C50.01,15.8125828 50.352,15.8304636 50.622,15.6903974 C50.937,15.5294702 51.18,15.3506623 51.519,15.2225166 C51.96,15.0556291 52.617,14.5698675 52.866,14.2003311 C53.427,14.4953642 52.875,15.2523179 53.235,15.6576159 C53.382,15.8215232 53.232,16.2566225 53.475,16.3221854 C53.679,16.3758278 54.036,16.268543 53.904,16.5874172 C54.384,16.6708609 55.254,15.8930464 55.329,16.7781457 C55.29,16.5039735 55.593,16.4533113 55.824,16.4145695 C55.938,16.4175497 56.022,16.3728477 56.07,16.2774834 C56.163,16.065894 56.418,16.1463576 56.616,16.1046358 C56.346,16.8198675 56.1,17.2847682 56.127,18.0268212 C56.499,17.6066225 56.298,16.6917219 56.916,16.4354305 C57.33,16.2625828 57.399,16.2119205 57.645,15.8602649 C58.056,15.2791391 58.158,15.7082781 58.56,15.9317881 C58.554,15.8096026 58.521,15.6933775 58.461,15.5860927 C58.686,15.5711921 58.908,15.5264901 59.13,15.4877483 C58.905,15.3864238 58.647,15.4698675 58.416,15.5086093 C58.362,15.2254967 58.587,15.2135762 58.764,15.0645695 C59.037,14.8350993 58.755,14.3284768 59.091,14.039404 C59.484,13.6966887 59.37,13.9827815 59.631,13.8933775 C59.814,13.8307947 60.201,13.4225166 60.237,13.836755 C60.6,13.5238411 60.615,13.9589404 60.948,13.8546358 C60.807,13.7443709 60.777,13.5804636 60.867,13.431457 C61.071,13.4850993 61.557,13.5923841 61.446,13.8725166 C61.518,13.8397351 61.59,13.8069536 61.665,13.7771523 C61.692,13.8486755 61.719,13.9201987 61.749,13.9917219 C61.935,13.8576159 61.965,13.8576159 61.962,14.084106 C62.136,14.0334437 62.259,13.9023179 62.271,13.7384106 C62.157,13.9887417 62.538,14.0334437 62.433,14.2778146 C62.463,14.1228477 62.577,14.0215232 62.76,14.084106 C62.754,14.2480132 62.631,14.3731788 62.451,14.4119205 C62.763,14.2539735 63.039,14.6443709 63.339,14.3940397 C63.291,14.7546358 63.597,14.5430464 63.687,14.355298 C63.555,14.7903974 63.972,14.6115894 63.936,14.894702 C64.053,14.8529801 64.14,14.781457 64.2,14.6831126 C64.158,14.9304636 64.506,14.8410596 64.56,15.0675497 C64.635,15.0049669 64.707,14.939404 64.779,14.8738411 C64.791,15.0198675 64.848,15.1480132 64.947,15.2582781 C65.019,15.2076159 65.091,15.1569536 65.163,15.1033113 C65.196,15.2970199 65.28,15.389404 65.487,15.1986755 C65.328,15.3 65.283,15.4609272 65.394,15.6039735 C65.442,15.4549669 65.571,15.3417219 65.745,15.3149007 C65.499,15.5115894 65.577,15.9258278 65.799,16.1046358 C65.898,15.9437086 65.787,15.6695364 66.033,15.5831126 C66.486,15.4281457 66.279,15.7142384 66.495,15.7768212 C66.483,15.615894 66.594,15.4907285 66.759,15.434106 C66.681,15.5592715 66.642,15.6933775 66.642,15.8364238 C67.161,15.5622517 66.567,16.3788079 67.116,16.0837748 C67.041,16.1463576 66.969,16.2089404 66.897,16.2774834 C67.071,16.3311258 67.233,16.2536424 67.332,16.1254967 C67.179,16.4086093 67.701,16.2536424 67.47,16.6350993 C67.266,16.9748344 67.356,17.257947 66.858,17.392053 C67.038,17.2937086 67.176,17.3831126 67.224,17.5440397 C67.239,17.2996689 67.548,16.9241722 67.797,17.2430464 C68.061,17.5827815 67.587,17.6870861 67.434,17.9433775 C67.302,18.1609272 67.065,18.831457 67.149,19.0668874 C67.242,19.3261589 66.774,19.5437086 66.975,19.7374172 C67.008,19.3708609 67.497,19.260596 67.677,18.968543 C67.854,18.6794702 67.749,18.1937086 67.941,17.955298 C68.037,17.8331126 68.478,17.5559603 68.616,17.7675497 C68.841,18.113245 68.106,18.2980132 68.052,18.584106 C68.268,18.4619205 68.337,18.5066225 68.265,18.7211921 C68.52,18.6109272 68.886,17.7347682 69.009,18.1817881 C69.036,17.8718543 69.705,17.7049669 69.963,17.8360927 C69.945,17.2311258 71.349,17.9016556 71.598,18.0298013 C71.775,18.1221854 72.747,18.4768212 72.762,18.6437086 C72.978,18.518543 73.536,18.831457 73.437,18.4321192 C73.719,18.4887417 73.908,18.6764901 74.166,18.7778146 C74.46,18.8910596 74.781,18.8731788 75.024,19.0877483 C75.027,18.7152318 75.282,18.7569536 75.606,18.7450331 C76.254,18.7241722 76.827,18.494702 77.487,18.6198675 C78.69,18.8493377 79.794,19.7642384 80.727,20.4228477 C81.039,20.6403974 81.396,20.6761589 81.654,20.9533113 C81.9,21.2155629 82.089,21.510596 82.32,21.7817881 C82.581,22.0887417 82.935,22.2228477 83.175,22.5238411 C83.433,22.8456954 83.91,22.8784768 84.192,23.2122517 C84.477,23.5430464 84.897,23.4089404 85.221,23.6950331 C85.593,24.0288079 86.262,23.894702 86.73,23.8410596 C87.807,23.7218543 88.587,24.0794702 88.872,25.0241722 C88.983,25.3907285 89.154,25.7543046 89.148,26.1417219 C89.148,26.2609272 89.031,26.4546358 89.13,26.4993377 C89.247,26.5529801 89.307,26.6930464 89.349,26.7913907 C89.532,27.2056291 89.838,28.1264901 89.574,28.5615894 C89.646,28.4692053 89.712,28.3738411 89.775,28.2754967 C89.715,28.710596 90.06,29.2380795 89.544,29.5629139 C89.625,29.5778146 89.703,29.5986755 89.781,29.6195364 C89.568,29.9831126 89.877,30.4182119 89.619,30.7460265 C89.352,31.0857616 89.532,31.544702 89.322,31.8993377 C89.076,32.3135762 88.98,32.7784768 88.752,33.1986755 C88.5,33.6635762 87.972,33.9645695 87.756,34.4443709 C87.684,34.3966887 87.612,34.3460265 87.543,34.2923841 C87.555,34.4890728 87.48,34.7304636 87.279,34.4086093 C87.312,34.5307947 87.396,34.5963576 87.534,34.6023179 C87.204,35.1536424 86.706,35.8748344 86.16,36.2950331 C85.935,36.4649007 85.641,36.5364238 85.41,36.7062914 C85.173,36.8850993 84.981,37.1205298 84.702,37.2516556 C84.756,37.0877483 84.642,36.9715232 84.477,36.9268212 C84.447,37.1056291 84.699,37.1622517 84.654,37.3291391 C84.594,37.5437086 84.372,37.8327815 84.144,37.5615894 C84.255,37.6986755 84.531,37.8327815 84.351,38.0413907 C84.246,38.160596 83.814,38.5599338 84.003,38.1188742 C83.859,38.3096026 83.874,38.5509934 83.67,38.7149007 C83.76,38.6910596 83.847,38.6672185 83.934,38.6374172 C83.427,39.2423841 82.509,42.2850993 81.276,42.1003311 C81.528,41.6384106 81.003,41.5549669 80.865,41.1943709 C80.844,41.4029801 80.553,41.9870861 80.37,41.5400662 C80.424,41.7278146 80.748,41.805298 80.727,42.007947 C80.691,42.3625828 80.172,42.6129139 80.292,43.0033113 C79.956,42.794702 79.998,43.3251656 79.98,43.5427152 C80.01,43.4413907 80.052,43.3460265 80.103,43.2536424 C80.208,43.5218543 80.199,43.7572848 80.172,44.0403974 C80.091,43.9807947 80.013,43.9182119 79.944,43.8496689 C80.124,43.9897351 80.268,44.4456954 80.184,44.6572848 C80.25,44.5231788 80.316,44.3860927 80.379,44.2519868 C80.364,45.0596026 80.034,45.7927152 80.124,46.6152318 C80.187,47.318543 80.478,48.0546358 80.466,48.757947 C80.439,50.0036424 79.461,51.165894 79.755,52.4443709 C79.92,53.1566225 79.401,53.2430464 79.011,53.7794702 C78.561,54.3993377 78.438,55.1652318 78.486,55.8596026 C78.519,56.3543046 78.774,57.3496689 78.087,57.6059603 C77.436,57.8503311 77.85,58.9291391 77.091,59.018543 C77.586,59.4298013 76.632,59.9483444 76.305,60.2016556 C76.023,60.4192053 76.083,60.5831126 75.963,60.8721854 C75.786,61.3043046 75.525,61.6917219 75.558,62.1506623 C75.579,62.3890728 75.741,62.7615894 75.516,62.9791391 C75.141,63.336755 74.625,63.3278146 74.178,63.5483444 C73.875,63.697351 73.548,63.9774834 73.392,64.2486755 C73.29,64.4245033 73.374,64.5884106 73.416,64.755298 C73.461,64.9281457 73.197,65.0175497 73.278,65.2082781 C73.005,64.9192053 72.126,65.0622517 71.739,65.1307947 C71.511,65.1725166 71.145,65.2798013 70.938,65.1695364 C70.635,65.0115894 70.89,64.7403974 70.896,64.4990066 C70.176,64.5705298 70.734,64.8298013 70.608,65.1397351 C70.485,65.4466887 69.075,65.3274834 68.739,65.4794702 C68.976,65.2768212 69.342,65.3662252 69.621,65.2857616 C69.354,65.0592715 69.039,64.9370861 68.661,65.1278146 C68.322,65.2976821 68.193,65.1635762 67.857,65.1963576 C67.617,65.2172185 67.215,65.2410596 67.104,65.4913907 C67.002,65.7208609 67.401,65.8221854 67.545,65.9205298 C67.17,66.1678808 66.732,65.9086093 66.474,66.2006623 C66.249,66.4539735 65.931,66.4837748 65.643,66.6476821 C65.388,66.7937086 65.661,67.0142384 65.406,67.1513245 C65.052,67.342053 64.539,66.8056291 64.029,67.1513245 C63.975,67.1900662 63.591,67.7115894 63.489,67.5834437 C63.396,67.4701987 63.495,67.3062914 63.234,67.3450331 C63.333,67.6937086 62.808,67.7354305 62.499,67.9023179 C62.124,68.107947 61.926,68.4 61.617,68.6652318 C61.281,68.9513245 60.801,69.0317881 60.444,69.2910596 C60.135,69.5115894 59.937,69.8483444 59.592,70.0331126 C59.658,70.0718543 59.727,70.1135762 59.796,70.1523179 C59.511,70.3758278 59.223,70.6350993 59.031,70.9211921 C59.031,70.7751656 59.097,70.6470199 59.223,70.536755 C58.98,70.6231788 58.746,70.5665563 58.545,70.4771523 C58.584,70.8764901 58.29,71.1059603 57.9,70.784106 C57.858,71.0135762 58.449,71.2519868 58.695,71.2281457 C58.506,71.3622517 58.422,71.5410596 58.35,71.7258278 C58.296,71.8748344 57.957,71.8271523 57.837,71.9016556 C57.984,71.8956954 58.134,71.9016556 58.278,71.9195364 C58.182,72.1013245 58.239,72.2860927 58.152,72.4678808 C58.044,72.6824503 57.777,72.7182119 57.744,72.4768212 C57.807,72.6347682 57.735,72.8493377 57.924,72.9238411 C58.173,73.0221854 57.942,73.5049669 57.978,73.6897351 C58.029,73.9847682 58.386,74.4168874 58.14,74.7834437 C58.479,74.7178808 58.392,75.0486755 58.116,75.0903974 C58.383,75.284106 58.023,76.1066225 58.206,76.4463576 C58.377,76.7652318 57.861,77.5549669 57.792,77.8798013 C57.684,77.805298 57.603,77.715894 57.54,77.6086093 C57.597,77.7754967 57.558,77.9692053 57.789,78.0347682 C57.492,78.3357616 57.063,78.5175497 56.706,78.7559603 C56.322,79.0122517 56.031,79.3519868 55.767,79.6917219 C55.119,80.5142384 54.828,81.3933775 54.363,82.2844371 C53.925,83.1218543 53.271,83.8847682 52.548,84.5970199 C51.849,85.2824503 50.946,85.7711921 50.166,86.3970199 C50.334,86.1496689 50.241,85.8486755 50.229,85.6072848 C50.544,85.6847682 50.67,85.7086093 51.006,85.5357616 C51.303,85.3807947 51.528,85.0231788 51.789,84.9099338 C52.152,84.7549669 52.236,84.6238411 52.305,84.3019868 C52.35,84.0963576 52.473,83.7327815 52.704,84.0307947 C52.662,83.7268212 52.854,83.610596 53.112,83.3960265 C53.322,83.2231788 53.403,83.0235099 53.412,82.8 C53.421,82.6390728 53.337,82.102649 53.682,82.4334437 C53.712,82.35 53.688,81.8344371 53.523,81.8821192 C53.418,81.9089404 52.803,82.2576159 52.776,82.3589404 C52.659,82.215894 52.611,82.0460265 52.404,81.9774834 C52.161,81.9 52.281,81.584106 52.068,81.4768212 C51.933,82.0013245 52.23,81.9804636 52.392,82.3589404 C51.849,82.4692053 52.113,82.9788079 52.014,83.2619205 C52.008,83.1218543 51.969,82.9937086 51.894,82.8774834 C51.78,83.0592715 51.93,83.294702 51.792,83.4466887 C51.729,83.5122517 51.564,83.5003311 51.564,83.6046358 C51.567,84.0427152 51.075,84.2781457 50.673,84.4539735 C50.352,84.5940397 50.4,84.8980132 50.265,85.1304636 C50.154,85.3211921 49.476,85.792053 50.016,85.8397351 C49.689,85.994702 49.821,86.3344371 50.151,86.1466887 C50.145,86.3910596 49.881,86.6175497 49.716,86.8261589 C49.449,87.1629139 49.374,87.5711921 49.23,87.9347682 C48.948,88.6529801 48.333,89.0791391 47.76,89.6602649 C47.292,90.134106 46.809,90.0298013 46.86,89.4844371 C46.881,89.2460265 46.839,88.9718543 46.899,88.7364238 C46.98,88.4384106 47.442,88.1880795 47.64,87.9317881 C47.955,87.5235099 47.388,87.368543 47.097,87.2433775 C46.761,87.1003311 46.635,86.8440397 46.512,86.5519868 C46.242,85.9142384 45.525,85.9142384 45.012,85.4970199 C44.742,85.2764901 44.649,84.9248344 44.286,84.7817881 C44.13,84.757947 43.977,84.734106 43.824,84.7043046 C43.662,84.6298013 43.635,84.4480132 43.47,84.3794702 C43.218,84.2692053 43.047,84.4003311 42.855,84.1112583 C42.654,83.8072848 42.48,83.4824503 42.036,83.3781457 C42.138,83.7089404 41.1,84.2245033 41.211,83.5688742 C41.307,83.0115894 40.617,82.6539735 40.227,82.3589404 C39.936,82.1384106 39.387,81.381457 38.802,81.7003311 C38.604,81.8076159 38.586,82.0788079 38.313,82.0549669 C37.995,82.0281457 37.728,82.0847682 37.56,81.8374172 C38.082,81.6764901 38.217,81.0983444 38.673,80.8331126 C39.186,80.5321192 39.483,80.0850993 39.732,79.6380795 C40.014,79.1374172 40.584,78.7589404 40.953,78.2970199 C41.139,78.0645695 41.538,77.4089404 41.859,77.7456954 C41.979,77.5877483 41.922,77.4506623 41.742,77.3970199 C42.099,77.084106 42.519,76.7682119 42.969,76.568543 C43.431,76.3629139 43.524,76.1513245 43.863,75.8801325 C44.205,75.6059603 44.58,75.5403974 44.97,75.3794702 C45.255,75.263245 45.822,74.7417219 46.137,74.8788079 C46.293,74.4049669 46.341,74.0235099 46.404,73.5496689 C46.485,72.9745033 46.473,72.6735099 46.338,72.1370861 C46.242,71.7586093 46.215,71.3205298 45.753,71.1715232 C45.486,71.0850993 44.958,71.0523179 44.838,71.4009934 C44.598,71.2549669 44.283,71.1178808 44.448,70.7930464 C44.679,70.3370861 44.691,70.0152318 44.811,69.547351 C44.892,69.2284768 44.934,68.8112583 45.135,68.5192053 C45.345,68.2122517 44.823,67.9172185 45.249,67.6698675 C44.997,67.5089404 44.817,67.1870861 44.469,67.1513245 C44.103,67.1125828 43.809,67.4195364 43.476,67.5149007 C42.552,67.7741722 42.42,66.9963576 42.303,66.4003311 C42.234,66.0427152 42.045,65.6344371 42.015,65.2708609 C41.985,64.9311258 42.138,64.6092715 41.856,64.3589404 C41.592,64.1235099 41.745,63.7778146 41.283,63.6675497 C40.92,63.584106 40.638,63.5036424 40.365,63.2622517 C40.098,63.0298013 39.831,63.0774834 39.876,63.3665563 C40.038,64.3470199 39.099,63.6496689 38.811,63.6168874 C38.397,63.5692053 37.944,63.5245033 37.59,63.3456954 C37.401,63.2503311 36.612,63.1788079 36.579,62.9582781 C36.546,62.7317881 36.78,62.6304636 36.792,62.4009934 C36.804,62.1864238 36.678,61.8854305 36.795,61.6768212 C37.005,61.313245 36.873,60.9794702 37.005,60.6278146 C37.104,60.3566225 36.57,60.2463576 36.906,59.9423841 C36.651,59.9274834 36.63,59.7039735 36.63,59.5251656 C36.636,59.2390728 36.471,59.1705298 36.321,58.95 C35.979,58.4612583 37.389,58.4493377 36.861,58.0619205 C36.219,57.5970199 36.492,57.2364238 36.888,56.5837748 C36.996,56.4049669 37.35,56.0741722 37.26,55.9043046 C37.11,55.6211921 37.266,55.3738411 37.383,55.0549669 C37.476,54.7986755 37.725,54.4112583 37.728,54.1519868 C37.728,53.886755 37.431,53.6930464 37.341,53.460596 C37.23,53.1745033 37.269,52.5725166 36.888,52.536755 C36.372,52.492053 35.802,52.1582781 35.682,51.6993377 C35.601,51.3923841 35.499,51.0258278 35.523,50.7039735 C35.547,50.3791391 35.85,50.107947 35.874,49.7682119 C35.118,49.9172185 34.356,49.8486755 33.618,49.7801325 C33.15,49.7384106 32.046,49.8635762 31.743,49.5298013 C31.464,49.2258278 31.605,48.6178808 31.572,48.239404 C31.53,47.7357616 30.885,47.4377483 30.915,46.9817881 C31.104,46.9639073 31.293,46.957947 31.482,46.9639073 C31.401,46.4096026 31.407,45.8284768 31.161,45.3129139 C31.065,45.113245 30.93,44.9701987 31.002,44.7377483 C31.086,44.4725166 31.146,44.302649 30.93,44.0850993 C30.213,43.3668874 29.073,43.1761589 28.017,43.3847682 C27.72,43.4443709 27.261,42.7619205 27.132,42.5950331 C26.991,42.413245 26.874,42.4996689 26.67,42.4847682 C26.487,42.4698675 26.091,42.2433775 25.968,42.1271523 C25.863,42.0258278 25.65,42.1211921 25.521,42.0347682 C25.32,41.9066225 25.227,41.6562914 25.092,41.4804636 C24.918,41.2509934 24.834,41.2927152 24.564,41.3970199 C24.249,41.5162252 24.147,41.2182119 23.949,41.0990066 C23.43,40.7831126 23.205,41.1377483 22.662,41.0215232 C22.041,40.8903974 21.981,40.8486755 21.672,40.4225166 C21.528,40.2198675 20.988,39.8860927 20.724,39.8622517 C20.463,39.8384106 20.571,39.5076159 20.427,39.3556291 C20.322,39.2423841 20.061,39.263245 20.076,39.0903974 C20.112,38.7119205 19.725,38.4884106 19.713,38.0592715 C19.707,37.8268212 19.941,37.5705298 19.905,37.3619205 C19.869,37.1741722 19.629,37.1354305 19.611,36.9178808 C19.596,36.742053 19.626,36.5602649 19.587,36.3874172 C19.539,36.157947 19.836,35.9970199 19.899,35.7884106 C20.013,35.392053 19.989,34.718543 19.587,34.4652318 C19.482,34.5486755 19.386,34.763245 19.221,34.7513245 C18.804,34.7215232 18.483,34.7274834 18.06,34.7692053 C17.598,34.8168874 16.812,34.8288079 16.512,35.2221854 C16.059,35.7913907 15.471,35.7913907 14.907,36.1758278 C14.742,36.2890728 14.484,36.4649007 14.43,36.652649 C14.346,36.9476821 14.028,36.7122517 13.836,36.6943709 C13.533,36.6675497 13.377,36.9596026 13.26,37.1592715 C13.101,37.4334437 12.816,37.5824503 12.504,37.7016556 C12.423,37.7344371 11.874,37.8953642 11.928,37.6718543 C12,37.3887417 11.625,37.4483444 11.391,37.4423841 C10.782,37.4274834 9.885,37.1860927 9.288,37.3440397 C8.982,37.4245033 8.676,37.7135762 8.343,37.6211921 C8.145,37.5645695 7.896,37.2754967 7.662,37.4453642 C7.626,36.742053 7.716,36.0298013 7.677,35.3264901 C7.65,34.986755 7.74,34.8794702 7.869,34.5903974 C7.881,34.4950331 7.854,34.4115894 7.785,34.3370861 C7.683,34.1463576 7.89,34.0599338 7.947,33.8870861 C7.374,33.8930464 6.804,34.6976821 6.408,35.0016556 C5.796,35.4576159 4.815,35.2728477 4.125,35.1953642 C4.26,34.8615894 3.99,34.313245 3.723,34.0986755 C3.243,33.7201987 2.346,34.0062914 1.812,33.7529801 C2.487,33.0139073 2.292,32.805298 1.641,32.1824503 C1.503,32.0513245 1.491,31.9231788 1.44,31.7533113 C1.386,31.5745033 1.158,31.5298013 1.041,31.3897351 C0.774,31.0678808 0.861,30.6625828 0.429,30.4062914 C0.897,30.1619205 0.096,29.6791391 -0.036,29.4854305" id="path2812" sketch:type="MSShapeGroup"></path>
            <path id="path2868" sketch:type="MSShapeGroup" d="M58.026,72.9745033 C58.083,73.034106 58.14,73.0907285 58.2,73.147351 C58.305,72.9596026 58.422,72.7599338 58.263,72.5900662 C58.122,72.697351 58.041,72.8254967 58.026,72.9745033"></path>
            <path id="path2870" sketch:type="MSShapeGroup" d="M58.251,76.3807947 C58.491,76.139404 58.746,75.6596026 58.539,75.397351 C58.185,75.5642384 58.257,76.1245033 58.251,76.3807947"></path>
            <path d="M65.901,67.4761589 C65.952,67.3003311 65.796,67.1811258 65.907,66.9963576 C65.631,66.9427152 65.511,67.1960265 65.445,67.3807947 C65.616,67.3629139 65.769,67.3956954 65.901,67.4761589" id="path2880" sketch:type="MSShapeGroup"></path>
            <path id="path2884" sketch:type="MSShapeGroup" d="M68.007,65.7476821 C68.19,65.7238411 68.358,65.6254967 68.475,65.497351 C68.274,65.363245 67.926,65.497351 68.007,65.7476821"></path>
            <path id="path2888" sketch:type="MSShapeGroup" d="M80.694,42.4460265 C80.865,42.3059603 81.285,42.0735099 80.961,41.8678808 C81.006,42.1062914 80.691,42.2165563 80.694,42.4460265"></path>
        </g>
    </g>
</svg>