<?xml version="1.0" encoding="UTF-8" standalone="no"?>
<svg width="278px" height="152px" viewBox="0 0 278 152" version="1.1" xmlns="http://www.w3.org/2000/svg" xmlns:xlink="http://www.w3.org/1999/xlink" xmlns:sketch="http://www.bohemiancoding.com/sketch/ns">
    <title>Untitled 6</title>
    <description>Created with Sketch (http://www.bohemiancoding.com/sketch)</description>
    <defs></defs>
    <g id="Page-1" stroke="none" stroke-width="1" fill="none" fill-rule="evenodd" sketch:type="MSPage">
        <path d="M11.5150502,80.6703621 C11.8249738,80.671906 12.0429891,80.5141235 11.9764242,80.1812674 C11.8842105,79.7242849 11.6652792,79.8098147 11.8039051,79.327513 C11.9162715,78.9372253 12.2405464,79.0749375 12.5260425,78.9585305 C12.8585616,78.8229797 12.9910807,78.3465446 13.3840578,78.3360463 C13.3205464,78.1927761 13.3052792,78.0445656 13.3385616,77.8914147 C13.5648212,77.9386568 14.0231418,78.1634428 14.2323021,77.9732393 C14.3892486,77.8305867 14.5635998,77.5931411 14.7874166,77.5616463 C15.0210044,77.5289165 15.1318441,78.1424463 15.2903173,78.2829375 C15.5596303,78.5216182 16.0823784,78.1977165 16.4249738,78.2279761 C17.0548975,78.2832463 17.1013097,77.3791621 17.1727601,76.9360744 C17.231386,76.5707972 17.3968822,76.4337025 17.7898593,76.4926779 C18.2884853,76.5674007 18.7507754,76.5769726 19.2316914,76.4689025 C19.4826838,76.4123972 19.8310807,76.5068814 20.0368822,76.3086498 C20.2640578,76.0897305 20.2255845,75.6574498 20.4408517,75.4017867 C20.9816151,74.7586147 22.0408517,74.6946989 22.671386,74.1741095 C22.9248212,73.9647621 23.0542868,73.8517516 23.3764242,73.8437235 C23.7901647,73.8332253 23.6774929,73.6816182 23.551386,73.3777867 C23.3907754,72.9908954 23.250928,72.6518639 23.0625311,72.2801025 C22.8155082,71.7934779 23.3394776,71.6850989 23.671386,71.5998779 C23.5422257,71.4763691 23.3956609,71.3800323 23.2316914,71.3108674 C23.3669586,71.1080042 23.5956609,70.8029375 23.8701647,70.9996253 C24.0475693,70.5929726 23.5599357,70.5528323 23.539783,70.214727 C23.5129128,69.7719481 23.0796303,69.4619411 22.8377983,69.1321726 C22.5061952,68.679513 22.1553555,68.2243832 21.9651265,67.6880463 C21.8399357,67.3345025 22.0475693,66.7592604 21.7162715,66.6058007 C21.4365769,66.4764253 20.2973402,66.6110498 20.6164242,66.1306007 C20.7974929,65.8585726 21.4735234,65.7816884 21.7739815,65.6865867 C22.321157,65.5133656 22.8625311,65.4689025 23.4133708,65.2685095 C23.9617677,65.0690428 24.0457372,65.3487902 24.4979509,65.5315832 C24.8610044,65.6782498 25.1675693,65.3012393 25.529096,65.5572112 C25.9452792,65.8520884 25.9529128,65.3645375 25.8661952,65.0770709 C25.7364242,64.646334 25.2060425,64.8961305 24.9910807,64.5746989 C24.8072639,64.2998919 25.0008517,63.7743621 25.0243631,63.4745446 C25.059783,63.0225025 24.9516914,62.5476112 24.9532181,62.0915551 C24.9544395,61.6602007 25.1364242,61.1862358 25.0506227,60.7666147 C24.9474166,60.2605375 25.2063479,60.1178849 25.6497067,60.3330989 C26.0243631,60.5146568 26.3489433,60.6872604 26.759325,60.7848323 C27.2942868,60.9117375 27.8054318,60.7088744 28.3413097,60.7629095 C28.7519967,60.8042849 28.8948975,61.3508112 29.2735234,61.0281446 C29.5651265,60.7798919 29.9651265,60.7465446 30.2408517,60.4976744 C30.7434471,60.0440884 29.4881799,58.7947972 29.3452792,58.3053937 C29.2677219,58.0398498 29.2106227,57.3145446 29.4735234,57.1283551 C29.7257372,56.9492674 30.0952028,57.1326779 30.3745922,57.0060814 C31.0820731,56.6858849 31.028638,56.3533375 30.8045158,55.6891691 C30.6582563,55.2553446 31.1498593,55.2241586 31.4301647,55.2528744 C31.8787143,55.2985726 32.0823784,55.3066007 32.5129128,55.1698147 C32.7037525,55.1092954 33.1916914,55.4856884 33.0396303,55.6385305 C32.7956609,55.8833867 33.159325,56.1384323 33.4326074,56.1967902 C33.970012,56.310727 33.5129128,56.5762709 33.8222257,56.7238639 C34.2524547,56.9285797 34.8365769,56.9066568 35.1626838,57.3083691 C35.5284853,57.7591761 36.5871112,58.3026147 37.1437525,58.1253797 C37.5123021,58.0080463 38.4460425,58.9037937 38.5574929,58.4387832 C38.7590196,58.503934 38.7703173,58.686727 38.930012,58.7944884 C39.1468059,58.9411551 39.3810044,58.953506 39.5910807,59.1304323 C39.9868059,59.4626709 40.1321494,59.9709095 40.5144395,60.31272 C40.8487906,60.61192 41.2530654,60.8144744 41.5947448,61.1041025 C42.1617677,61.5845516 41.9639051,61.9933656 42.179783,62.5896042 C42.3260425,62.9928604 42.7394776,63.0768463 42.5458899,63.5841586 C42.3828364,64.0111902 42.2439051,64.4051832 42.5929128,64.7874428 C42.8435998,65.0622498 43.1953555,65.529113 43.5929128,65.4966919 C44.0982563,65.4553165 44.610012,65.772734 45.1068059,65.7974358 C45.6078746,65.8224463 46.1235998,65.9771411 46.619783,65.9570709 C47.0948975,65.9376182 47.5510807,65.9021095 48.0271112,65.937927 C49.1629891,66.0228393 49.9461952,66.6866989 50.9752028,67.1047761 C51.4448212,67.2955972 51.8701647,67.5836814 52.3422257,67.7649305 C52.6851265,67.8964674 53.0347448,67.8717656 53.3923021,67.9214779 C53.8423784,67.9844674 53.4750502,68.3046639 53.8042105,68.5010428 C54.2521494,68.7681305 54.5052792,68.8681726 54.8118441,69.3399761 C55.0536761,69.7123551 55.3217677,70.0930709 55.6118441,70.428706 C55.9501647,70.8205375 56.4356609,71.0267972 56.8258899,71.3556393 C57.098867,71.5856744 57.2130654,71.9225446 57.5736761,71.9784323 C58.0692486,72.0550077 58.5306227,71.8783902 59.0139815,71.8289867 C60.0524547,71.7230779 61.1929128,72.2180393 62.2448212,72.28072 C62.7990196,72.3137586 63.3669586,72.3986709 63.9220731,72.3844674 C64.4539815,72.3708814 64.9242105,72.1186147 65.4652792,72.1569025 C66.0435998,72.1976604 66.6112334,72.3177726 67.1846685,72.3974358 C67.681157,72.4666007 68.249096,72.3841586 68.7229891,72.5610849 C69.170928,72.7284393 69.4530654,73.1372533 69.8707754,73.3509235 C70.4823784,73.6640182 71.2820731,73.6593867 71.9446685,73.7995691 C72.9489433,74.0120042 73.871386,74.6267691 74.9263479,74.3677095 C75.4072639,74.2497586 75.4622257,74.329113 75.7538288,74.6653656 C76.040241,74.9957516 76.6023784,74.6440604 76.8429891,74.9089867 C76.7776456,74.8370428 79.1742868,73.4972814 79.4029891,73.3793305 C79.8628364,73.1418849 80.459783,73.0310358 80.9678746,72.9655761 C81.5727601,72.8877656 82.2558135,72.7188674 82.8576456,72.7074428 C83.7550502,72.6901516 84.8200883,73.0162147 85.6390196,72.5200182 C86.0222257,72.2878218 86.7352028,72.2112463 87.020699,71.8694358 C87.2942868,71.5421375 87.3123021,71.0502639 87.5162715,70.6812814 C87.7055845,70.3385446 88.0539815,70.1918779 88.3770349,70.0090849 C88.5596303,69.9059551 88.6970349,69.7691691 88.7846685,69.574334 C88.8362715,69.460706 89.0973402,69.5712463 89.1217677,69.4662639 C89.2680273,68.8292674 87.5999357,68.2185165 87.3092486,67.7334358 C87.0289433,67.2656463 86.8442105,65.9830077 87.579783,65.8270779 C88.4835998,65.6353305 89.5449738,66.4273305 90.439325,66.5749235 C90.6326074,66.6070358 91.19047,66.7762428 91.3550502,66.6076533 C91.610928,66.3439621 91.9984089,66.1654919 92.1489433,65.8394288 C92.2826838,65.5485656 92.3626838,65.2039761 92.5657372,64.9510919 C92.760241,64.7090147 93.4118441,64.919906 93.6683326,64.9452253 C94.3526074,65.0125375 95.0164242,64.6620814 95.4005464,64.0720182 C95.5861952,63.786713 95.0976456,63.3726498 95.3327601,62.9335761 C95.5523021,62.5244533 95.7944395,62.4296604 96.2423784,62.4188533 C96.5657372,62.411134 96.8585616,62.5747832 96.800241,62.0816744 C96.7553555,61.7000323 97.2567296,61.9445797 97.419783,61.9979972 C97.5907754,62.0541937 98.1013097,61.6240744 98.3391723,61.5576884 C98.5355082,61.502727 98.7217677,61.5533656 98.9174929,61.5768323 C99.0439051,61.5950498 99.1712334,61.601534 99.298867,61.5962849 C99.349554,61.5212533 99.4014624,61.4471481 99.4545922,61.3736604 C99.6054318,61.372734 99.940699,61.5604674 100.119325,61.5953586 C100.443294,61.6580393 100.769707,61.7157797 101.098562,61.742334 C102.305279,61.8392884 101.214897,60.7761867 100.741615,60.4269656 C99.6329128,59.6090288 98.380699,58.8929867 97.1330654,58.3254639 C96.5642105,58.066713 95.7272639,57.8613797 95.3617677,58.5193726 C94.8927601,59.3632463 94.2820731,58.48232 93.5147448,58.5178288 C93.2561189,58.5298709 92.7129128,58.4245797 92.4894013,58.5341937 C92.2057372,58.6728323 92.1990196,59.0421235 91.7843631,58.8062218 C91.5208517,58.6561586 90.5663479,58.1670639 90.8097067,57.7511481 C90.9465005,57.5167902 91.1303173,57.5248182 90.948638,57.23272 C90.7681799,56.9427832 90.7642105,56.7003972 90.770928,56.3724814 C90.7901647,55.3853375 90.6903173,54.3985025 90.6152028,53.4156814 C91.339783,53.7667551 92.1370349,53.7574919 92.8359662,54.071513 C93.6319967,54.4287621 93.7465005,53.7256884 94.2377983,53.2816744 C94.5791723,52.9729025 95.5272639,53.2480182 95.4423784,52.5881726 C95.3974929,52.2364814 95.1941341,52.1586709 94.8939815,52.0913586 C94.6955082,52.0465867 94.7278746,51.7387411 94.7119967,51.5664463 C94.6869586,51.2919481 94.8719967,51.1681305 94.7471112,50.8862218 C94.671386,50.7580814 94.6600883,50.6234568 94.7138288,50.4820393 C94.8255845,50.1921025 94.660699,50.0296884 94.660699,49.7446919 C94.660699,49.140734 94.4481799,48.6757235 95.0155082,48.2483832 C95.6497067,47.7710218 94.7010044,47.2056604 94.471386,46.7848042 C94.2677219,46.4114989 93.7843631,46.1058147 93.3516914,46.2805797 C92.9645158,46.4368182 92.7791723,46.1354568 92.5507754,45.8794849 C93.1752028,45.6667411 93.0414624,44.7064604 93.7779509,44.5619551 C94.6555082,44.3899691 95.4533708,44.0657586 96.3559662,44.1160884 C97.2530654,44.1658007 98.0060425,43.8428253 98.9217677,44.0799621 C99.3123021,44.1812393 99.6979509,44.3702077 100.061004,44.5443551 C100.558104,44.7824182 101.125432,44.7858147 101.606959,45.0343761 C101.613676,44.4900112 103.226806,45.1189797 103.351081,45.3400604 C103.463142,45.5392182 104.192913,45.7896323 104.417646,45.9140674 C104.591691,46.010713 104.5236,46.1987551 104.677493,46.2920042 C104.918409,46.4377446 105.161157,46.4772674 105.388027,46.6609867 C105.635356,46.8616884 106.054287,47.0256463 106.195356,47.3112604 C106.27902,47.4813937 106.700699,47.3791902 106.710775,47.6663481 C106.725737,48.0918358 107.206959,48.3014919 107.517798,48.5080604 C107.80421,48.6979551 108.079325,49.2200884 108.414897,49.3201305 C108.866806,49.4569165 109.001462,50.0204253 109.358104,50.2906007 C109.758104,50.5931972 110.213981,50.8096463 110.603294,51.1313867 C110.933676,51.4040323 111.034745,51.8301375 111.34589,52.1135902 C111.69276,52.4294639 111.972455,52.3179972 112.135814,52.8030779 C112.4036,53.5975481 113.721768,54.2861095 114.518714,54.13512 C114.855814,54.0712042 115.266195,53.9603551 115.571844,54.1317235 C116.071081,54.4120884 116.546195,54.4682849 117.063447,54.6831902 C116.774287,54.1619832 117.675966,54.8832744 117.833218,54.8832744 C118.210317,54.8832744 118.668943,55.45512 118.992302,55.6434709 C119.514134,55.9476112 119.980394,55.7033726 120.483905,55.905927 C120.633829,55.9664463 120.575203,56.4101516 120.689707,56.5490989 C120.819783,56.7068814 121.086959,56.8205095 121.258562,56.9205516 C121.767569,57.2166639 121.65276,57.4747972 121.852455,57.9308533 C121.994439,58.2547551 122.962684,59.0242147 123.323905,58.9788253 C123.526043,58.9531972 123.708027,58.8624182 123.915356,58.8624182 C124.226501,58.8624182 124.483905,59.0569446 124.801157,59.0180393 C125.158104,58.9738849 126.193218,59.0402709 126.236882,58.6024323 C126.281462,58.1559481 126.789554,57.8218568 127.220699,57.8690989 C127.247569,57.8721867 127.627111,58.0379972 127.651844,57.9277656 C127.709249,57.6724112 127.689096,57.6004674 127.972149,57.5254358 C128.231997,57.4562709 128.720852,56.9943481 128.99047,57.1728182 C129.138256,57.2706989 129.665585,57.4596674 129.836272,57.4840604 C129.806959,57.785113 129.892149,58.0308954 130.099478,58.2458007 C130.402684,58.5601305 131.077188,59.0452112 130.782836,59.57352 C130.720241,59.6856042 130.471997,59.7087621 130.378256,59.8050989 C130.143752,60.0450147 130.492149,60.2231761 130.583142,60.4180112 C130.657035,60.5761025 130.617035,60.7632182 130.651539,60.9299551 C130.714745,61.2368744 130.999936,61.495934 130.970623,61.819527 C130.93673,62.1953025 131.665279,62.7517095 131.133981,63.0197235 C131.526959,63.3102779 131.180394,63.3896323 131.198104,63.7314428 C131.210928,63.9837095 131.503142,64.1871902 131.465279,64.4530428 C131.413371,64.81832 130.991081,64.6840042 131.227417,65.1953305 C131.311386,65.3768884 131.428638,65.5541235 131.460088,65.7560604 C131.51047,66.081506 129.753829,65.5584463 129.480241,65.4957656 C129.359936,65.4682849 128.653981,65.1542639 128.601462,65.2592463 C128.484821,65.491134 128.506806,65.9082849 128.267417,66.0484674 C128.075966,66.1608604 127.678409,66.1766077 127.546501,66.3306849 C127.419478,66.4785867 128.01673,66.8617726 128.083294,66.9312463 C128.722989,67.6006639 129.200546,68.3824744 129.609707,69.2093656 C129.952913,69.9025586 130.599325,70.3641726 130.539172,71.1842709 C130.512913,71.5418288 130.752913,71.4924253 130.343447,71.6458849 C130.016119,71.7684674 129.683294,71.68232 129.485432,72.0460533 C130.031386,72.1985867 129.934897,72.4990218 130.322073,72.801927 C129.900699,72.4573375 129.319936,72.3347551 129.005432,71.85832 C128.744974,71.4637095 128.401768,71.3525516 127.946195,71.3787972 C128.028027,71.6625586 128.476272,72.4727761 128.295508,72.7497446 C128.15505,72.9649586 127.743142,72.742334 127.550775,72.907527 C127.269249,73.1492954 127.782226,73.6470358 127.165432,73.8060533 C126.613371,73.9483972 126.033829,73.8162428 125.485127,73.9579691 C125.773676,74.3538147 126.723294,74.8296323 126.599936,75.3746147 C126.534287,75.6657867 125.379478,75.4539691 125.084821,75.4082709 C124.811233,75.3662779 124.525432,75.3057586 124.283905,75.163106 C124.000546,74.9957516 123.72818,74.5066568 123.353218,74.5489586 C123.158409,74.5711902 123.12421,74.7972112 122.889401,74.8021516 C122.907111,75.3076112 122.948943,75.5802568 122.783142,76.0671902 C122.710165,76.2820954 122.675356,76.6458288 122.481768,76.7921867 C122.382531,76.8669095 121.915356,76.8854358 121.944668,77.0534077 C121.982531,77.2717095 121.788943,77.2420674 121.689401,77.4035551 C121.578562,77.5082288 121.447875,77.5727621 121.297646,77.5971551 C121.162073,77.6660112 121.030775,77.9877516 120.953523,78.011527 C120.476272,78.1581937 120.104974,78.6880463 120.110775,79.2305586 C120.117798,79.8694077 119.152607,79.8910218 118.800852,79.5161726 C118.850623,79.8536604 118.384974,79.8153726 118.183752,79.8048744 C118.268638,80.0518919 118.047264,80.0982077 117.864058,80.1293937 C117.483905,80.1936182 117.207875,80.4881867 116.91047,80.7163691 C116.616424,80.9420814 116.413676,81.0371832 116.37734,81.4453797 C116.351081,81.742727 116.011539,81.7146288 116.095203,82.0054919 C115.949859,81.9032884 115.789249,81.8588253 115.61276,81.8721025 C115.848791,82.1932253 114.824058,82.9778147 114.59505,82.2185446 C114.475661,81.8223902 115.232607,81.8301095 115.337035,81.7149375 C115.488485,81.5478919 115.292455,81.4095621 115.275966,81.2428253 C115.255203,81.034713 115.577951,80.9257165 115.677188,80.7827551 C114.993218,81.0890568 114.63902,80.6181797 114.028333,80.5159761 C114.138256,80.35912 114.304668,80.242713 114.492455,80.204734 C114.109859,79.6211551 114.381004,79.7156393 114.80818,79.2842849 C115.003905,79.0863621 115.082989,78.4959902 115.106501,78.2261235 C115.190165,77.2544182 113.704668,77.4603691 113.588638,76.6032182 C113.658562,77.1676533 113.086653,76.9212533 112.790775,76.8141095 C112.41673,76.6785586 111.614897,77.1052814 112.184363,77.3368604 C111.751081,77.4226989 111.493981,78.0982919 111.530317,78.5120463 C111.560546,78.8529305 110.565432,79.2271621 110.337035,79.3821656 C110.116272,79.53192 109.911691,79.6418428 109.787111,79.8934919 C109.583752,80.3041586 109.980394,80.5073305 109.882684,80.8222779 C109.651233,81.5691972 109.028027,81.3187832 108.476272,81.6593586 C108.098867,81.8924814 107.706195,81.281113 107.291233,81.3601586 C106.688791,81.4750218 106.990165,82.47112 107.128485,82.8481305 C107.370928,83.5079761 108.10589,83.7497446 108.631081,84.121506 C108.796577,84.2388393 109.19047,84.2823761 109.378256,84.2070358 C109.690317,84.0826007 109.762378,84.5392744 110.028638,84.5840463 C110.101004,84.4284253 110.101004,84.2728042 110.028638,84.1171832 C110.474134,84.1171832 111.085432,84.5692253 111.294592,84.9675411 C111.582836,85.5165375 111.173371,86.0466989 111.766653,86.5076954 C112.165127,86.8170849 112.650928,86.9007621 113.135508,86.822334 C113.476272,86.7667551 113.887875,86.5768604 113.500088,86.2291832 C113.687569,86.1180253 114.562989,85.3843832 113.918409,85.3846919 C114.288485,85.4544744 114.627722,85.1256323 114.960852,85.0240463 C115.275356,84.9277095 115.78131,85.2599481 115.970012,85.4924533 C116.134287,85.6950077 116.272302,85.6709235 116.499783,85.6017586 C116.630775,85.5622358 116.789554,85.8274709 116.856119,85.8957095 C117.161157,86.2084954 117.675661,85.7481165 117.985585,86.0735621 C118.02131,85.9790779 118.050928,85.8830498 118.074134,85.7845516 C118.539172,86.1158639 119.185585,85.8688463 119.634134,86.2069516 C119.552913,86.2495621 119.472607,86.2940253 119.393218,86.3403411 C119.87902,86.7386568 119.143142,86.8504323 119.603294,87.1820533 C119.787722,87.315134 119.76421,87.5173797 119.520852,87.6149516 C119.119325,87.7761305 119.078104,87.4046779 118.910775,87.1629095 C118.860088,87.2786989 118.801157,87.3898568 118.733676,87.4963832 C118.684821,87.1619832 118.478104,87.2592463 118.292455,87.4287621 C118.184974,87.5266428 117.417951,88.0805797 117.854287,87.6078498 C117.604821,87.7708814 117.154134,88.2022358 116.872607,88.2538007 C116.673523,88.2902358 116.197798,88.021913 116.315356,88.4301095 C116.638714,88.1429516 116.92818,88.5721446 116.733371,88.8747411 C116.638714,88.6403832 116.367264,88.6246358 116.315356,88.8969726 C116.270775,89.127934 116.524516,89.2625586 116.479936,89.5006218 C116.459783,89.6096182 116.130012,89.7652393 116.031081,89.7417726 C115.719325,89.6670498 115.850623,89.2989937 115.588333,89.1637516 C115.886653,89.5941797 115.47047,89.2360042 115.237493,89.2749095 C115.2436,89.5645375 115.597493,89.9711902 115.897035,89.9640884 C115.273523,90.0591902 115.635661,91.169534 114.886043,90.9867411 C114.895814,91.2862498 114.828333,91.9189235 114.675356,92.1779832 C114.420699,92.6090288 114.634134,92.8927902 114.75505,93.3210568 C115.069859,93.0172253 115.578562,93.4507411 115.83047,93.6390919 C116.327264,94.0108533 116.907111,94.1479481 117.46192,94.4036112 C117.896424,94.6040042 118.057951,95.2660112 118.315356,95.6328323 C118.705585,96.1886218 119.076882,96.8317937 119.580088,97.2887761 C119.926653,97.6037235 120.263752,98.0761446 120.294592,98.5498007 C120.331233,99.1123832 121.174287,99.1920463 121.576119,99.3726779 C121.928485,99.5310779 121.771233,99.7419691 121.942836,100.012453 C122.075356,100.220257 122.291539,100.220566 122.495203,100.324004 C122.83047,100.494446 123.577646,100.869604 123.350775,101.36858 C122.874439,101.235499 122.348333,100.755359 121.828638,100.905422 C121.130928,101.10705 121.156272,100.603443 120.559936,100.379274 C119.961157,100.15418 119.703752,100.923948 119.19963,100.644818 C118.950165,100.506797 118.810012,100.271204 118.650928,100.043948 C118.453676,99.7620393 118.168485,99.7780954 117.900394,99.6125937 C118.036272,99.7181937 118.087264,99.9006779 118.007569,100.056916 C118.130623,99.91272 118.263142,99.9053095 118.404516,100.034685 C118.321768,99.9710779 118.241157,99.9043832 118.163294,99.8349095 C118.429859,99.7339411 118.968485,100.444425 118.450317,100.212846 C118.807569,100.454306 119.222226,100.991569 119.721768,100.762152 C119.922378,100.669829 119.899172,100.473141 120.154745,100.486727 C120.374897,100.498152 120.65734,100.596959 120.79902,100.777899 C120.886959,100.890292 120.783447,101.027387 120.93276,101.102109 C121.175814,101.224383 121.461615,101.260818 121.714439,101.360552 C122.260394,101.576383 122.731844,102.074124 123.258562,102.353871 C123.548943,102.508257 124.181615,103.121787 124.162989,103.492931 C124.154439,103.665225 123.797188,103.599457 123.700699,103.608411 C123.327264,103.642685 123.124821,103.952383 122.848791,104.160187 C122.664668,104.298825 122.438409,104.37046 122.398104,104.614081 C122.380088,104.72246 122.35902,104.985534 122.2036,104.995106 C121.938256,105.011162 121.786195,104.751176 121.484821,104.868509 C121.231691,104.967008 121.045737,105.19766 120.843905,105.370264 C120.98589,105.300173 121.516272,104.857085 121.670165,104.966081 C121.962684,105.173267 121.96818,105.736159 122.406959,105.725969 C122.31505,105.667302 122.219478,105.615429 122.120241,105.570348 C122.641462,105.65032 122.965737,105.023822 123.468333,105.169253 C123.814592,105.269295 123.986195,105.554909 124.222836,105.797295 C124.504058,106.085071 125.127875,106.147443 125.506501,106.237295 C125.247569,106.360187 125.133065,106.558727 124.956882,106.770853 C124.896424,106.883555 124.823142,106.987302 124.737035,107.082095 C124.603905,107.187387 124.425279,107.131499 124.29734,107.259948 C124.340394,107.346095 124.398409,107.420201 124.471386,107.482264 C124.607569,107.287738 124.86589,107.016018 125.109554,107.237716 C124.982226,107.107415 125.007569,106.754797 125.260699,106.894362 C125.541615,107.049674 125.295508,107.289899 125.43047,107.517773 C125.433218,107.522404 125.699172,108.272102 125.414592,108.085604 C125.256424,107.981857 125.272913,107.714769 125.130928,107.593422 C125.166348,107.73978 125.188333,107.88799 125.198104,108.038053 C125.011539,108.087457 124.887264,107.968271 124.846959,107.793197 C124.926653,108.205408 124.809707,107.943878 124.712913,107.793197 C124.674439,107.972285 124.601157,108.135316 124.49276,108.282292 C124.776119,108.224243 125.19963,108.49658 125.240852,108.793618 C125.11047,108.654053 125.008791,108.668874 124.935508,108.83839 C125.166653,108.821716 125.431081,109.147471 125.167264,109.309885 C124.839936,109.511513 124.378867,109.115976 124.098867,108.994011 C124.247569,109.113197 124.336424,109.364229 124.517188,109.438334 C124.772455,109.543008 124.946195,109.331499 125.102531,109.647681 C125.17734,109.798671 125.59047,110.180622 125.385279,110.365885 C125.19902,110.534166 124.963294,110.522124 125.067111,110.861155 C124.780394,110.727766 124.764821,110.339639 124.471691,110.216439 C124.388943,110.363415 124.379783,110.393674 124.23047,110.460987 C124.666501,110.520271 124.021004,111.831625 123.308027,110.950081 C123.403294,111.274292 124.112607,111.211611 124.019172,111.586152 C123.938867,111.908509 123.61276,112.493324 124.010317,112.706685 C123.786806,112.812594 123.791691,112.957716 123.823142,113.170769 C123.890928,113.630531 123.508943,113.14792 123.638104,113.46225 C123.489707,113.331022 123.343142,113.197632 123.198714,113.062081 C123.192302,113.222643 123.967569,113.776271 123.330012,113.640102 C123.4436,113.903794 123.242378,114.144636 123.000241,114.218124 C123.265585,114.593281 123.463752,115.260229 122.691844,115.062924 C122.924821,114.965969 123.033829,114.722657 122.933065,114.484902 C122.828027,114.569197 122.748027,114.672945 122.691844,114.796145 C122.544363,114.688074 122.429249,114.530909 122.383142,114.351513 C122.292149,114.51578 122.127569,114.615204 121.943752,114.529366 C122.05734,114.65658 122.102226,114.80479 122.077798,114.973997 C122.438714,114.809422 122.856119,115.447345 122.340394,115.396397 C122.360852,115.670895 122.698256,115.81818 122.780088,115.485324 C123.052149,115.769702 122.749859,115.756734 122.564821,115.941071 C122.373981,116.130657 122.276882,116.392495 122.187722,116.641366 C121.950775,116.417506 121.588333,116.290909 121.283905,116.197043 C121.522378,116.348032 121.669554,116.772285 122.00818,116.715162 C122.343142,116.658348 122.460088,116.304187 122.73734,116.730601 C122.511997,116.824776 122.592607,117.197155 122.521768,117.432748 C122.40421,117.821801 122.999325,117.834152 122.868943,118.242348 C122.79963,117.945927 122.718409,117.945927 122.624668,118.242348 C122.486959,118.028369 122.291539,117.846194 122.053676,117.753253 C122.037493,117.94006 121.930012,118.104636 121.769401,118.197576 C121.929096,118.285267 122.330623,118.341464 122.265279,118.619976 C122.170928,119.021688 121.857951,118.443359 121.857951,118.953759 C121.807875,118.723724 121.590775,118.326025 121.351386,118.664748 C121.654592,118.772509 121.390165,119.226404 121.744974,119.24246 C121.666195,119.488552 121.152913,119.866488 121.152913,119.442545 C120.91047,119.638306 120.966348,119.690797 121.168485,119.82079 C121.419783,119.982587 121.2036,120.368243 121.085737,120.531892 C120.956882,120.403134 120.832607,120.269436 120.713218,120.131724 C120.636577,120.424439 120.257035,120.610011 120.099478,120.265113 C119.931539,120.50966 119.521462,120.355274 119.769707,120.709436 C119.602378,120.660032 119.433523,120.652313 119.262836,120.687513 C119.41673,120.85672 119.638714,120.920945 119.855203,120.843134 C119.811539,121.020987 119.896424,121.12566 120.07505,121.132145 C120.013065,121.296411 119.864668,121.295794 119.750775,121.395218 C119.573065,121.550839 119.691233,121.847569 119.415203,122.021408 C119.512913,121.805576 119.446959,121.72406 119.217035,121.77686 C119.30589,122.016467 119.155661,122.22952 119.152913,122.466039 C119.129096,122.017394 118.68421,122.488271 118.450623,122.488271 C118.402073,122.544159 118.226806,123.319176 117.988333,123.083583 C117.778867,122.876397 117.638409,122.768636 117.598409,123.157071 C117.553829,123.584102 117.354745,123.684762 116.93276,123.622081 C117.185585,123.72058 117.50131,123.714404 117.570928,124.044481 C117.288485,123.694334 117.307111,124.239625 117.106806,124.02225 C117.018562,124.29366 117.176119,124.639794 116.822531,124.748481 C116.591386,124.819499 116.19047,124.910278 115.964516,124.778124 C116.294287,125.131667 115.022226,125.310755 115.304974,124.755892 C115.113829,124.972959 114.862226,124.881871 114.645432,124.778124 C114.688485,124.967709 115.191081,125.219976 115.058256,125.451246 C114.976424,125.592973 114.789859,125.473169 114.708027,125.416664 C114.453676,125.24159 114.218562,125.269071 114.248791,124.955976 C114.112607,125.145253 113.606959,125.454952 113.436577,125.334222 C113.824363,125.471316 113.572455,125.771752 113.338562,125.706601 C113.063752,125.630334 113.074134,125.296552 113.259783,125.134138 C112.99902,125.133211 112.766043,125.270615 112.624668,125.489843 C112.91902,125.543878 112.60421,125.848327 112.930012,125.934166 C112.865279,125.993141 112.791997,126.037604 112.709859,126.067864 C112.570928,125.590502 111.484821,125.633113 111.238104,126.023401 C111.206348,125.372509 110.401768,125.202994 110.490317,124.511653 C110.402989,124.954741 110.414897,124.690124 110.227722,124.533885 C110.373371,124.285015 110.62589,124.243022 110.887264,124.289338 C110.547111,124.049731 110.261615,124.533267 109.919325,124.378264 C110.407569,124.576804 109.896119,124.95999 109.56818,124.845127 C109.691233,124.895148 110.151997,125.068369 110.176119,125.218432 C110.127875,125.257646 110.071691,125.25919 110.007875,125.223064 C110.281768,125.407092 110.943142,126.296664 110.667417,126.690348 C110.37276,127.107808 109.754134,125.900509 109.610928,125.73439 C109.591386,126.132397 110.065279,126.48872 110.249096,126.801506 C110.086043,126.839794 109.966043,126.967008 109.940394,127.13498 C109.778562,127.053773 109.65673,126.902166 109.656424,126.71258 C109.25673,126.898152 109.673218,127.357295 109.412149,127.624074 C109.111386,127.230699 108.891539,127.54719 108.688485,127.827555 C108.551081,128.017141 108.068638,127.61265 108.33734,127.357295 C108.147722,127.432018 108.028943,127.339695 108.050623,127.13498 C108.013981,127.393113 108.201157,127.659583 108.121462,127.917716 C108.02131,128.242853 107.186806,127.65279 107.015508,127.601843 C107.411844,128.109155 106.885737,127.876032 106.600241,127.891162 C107.09673,128.089394 106.374897,128.846811 106.050623,128.380257 C105.998409,128.54792 105.889401,128.713731 105.720852,128.780425 C105.88421,128.441085 105.475966,128.647345 105.251539,128.700762 C104.973371,128.767148 104.57734,128.858545 104.401768,129.113899 C104.451539,128.986685 104.516577,128.868116 104.597188,128.758194 C104.414592,128.887569 104.271386,129.11112 104.401768,129.336215 C103.925432,129.481338 104.092149,129.137983 103.806348,128.913815 C103.693371,129.167316 104.032302,129.333127 103.810012,129.561618 C103.653065,129.722488 103.312607,129.887064 103.451844,130.178853 C103.531539,130.345899 103.765432,130.354545 103.915966,130.407036 C104.125432,130.479906 104.06192,130.955106 103.895203,130.447794 C103.926959,130.838081 104.464363,131.041253 104.436577,131.42938 C104.389859,132.083359 103.511386,131.762853 103.146806,131.937618 C103.166043,131.712832 102.907722,131.353731 103.302836,131.559681 C103.22192,131.182053 102.550165,131.25832 102.81734,130.737113 C102.507722,130.778797 102.70192,130.332004 102.442989,130.303906 C102.278409,130.285997 102.232302,129.663513 102.341615,129.54865 C102.556882,129.32232 102.289096,129.164846 102.58589,128.982053 C103.041768,128.701071 102.39902,128.539583 102.224668,128.380874 C102.264668,128.460846 102.30131,128.542362 102.334592,128.625422 C101.99505,128.699218 101.825585,128.189745 101.67505,127.980706 C101.566959,128.165043 101.645737,128.338573 101.827722,128.425029 C101.699783,128.570152 101.268333,128.95025 101.104058,128.647345 C100.83505,129.271373 100.776119,128.329001 100.639936,128.224945 C100.480241,128.102671 99.9092486,128.360187 100.245737,127.89178 C100.166959,127.863373 100.086653,127.841141 100.004821,127.824776 C99.9846685,127.98719 100.021004,128.135709 100.114439,128.269408 C99.8472639,128.228341 99.7220731,127.714236 99.4548975,127.780313 C99.5758135,127.624074 99.5232944,127.472159 99.3452792,127.402376 C99.2750502,127.561085 99.2063479,127.785562 99.1681799,127.469071 C99.1107754,127.796678 99.6048212,128.000159 99.4213097,128.33425 C99.3330654,128.494811 99.029554,128.121506 98.9055845,128.136018 C98.9898593,128.327766 98.9013097,128.507162 98.7284853,128.602881 C98.7205464,128.403415 98.2042105,128.335794 97.9553555,128.229267 C97.6072639,128.080439 97.1294013,128.547302 96.991386,128.180481 C96.9184089,128.225253 96.8451265,128.269716 96.7715387,128.31418 C96.6689433,127.939948 96.1858899,127.973913 95.9379509,127.758081 C95.8478746,127.679653 96.0377983,127.566025 95.8808517,127.518783 C95.6548975,127.450236 95.3626838,127.12726 95.1226838,127.335681 C94.9355082,126.744383 94.6164242,126.298208 94.618867,125.690853 C95.1703173,125.883218 94.9532181,124.508566 94.1794776,124.892678 C93.8649738,125.048916 93.7089433,124.774727 93.4668059,124.652453 C93.1733708,124.504552 93.0164242,124.937141 92.6930654,124.687345 C92.209096,124.313731 91.7614624,124.104383 91.3855845,123.579162 C91.2252792,123.953394 90.7810044,123.996004 90.4994776,124.232215 C90.3196303,124.383204 90.6539815,124.685801 90.428638,124.916145 C90.2432944,125.106039 89.0982563,125.669239 89.2118441,125.046138 C88.8145922,125.062194 88.7171876,126.001169 88.5758135,125.911008 C88.3742868,125.782559 88.2094013,125.577534 88.0463479,125.404622 C87.6991723,125.036874 87.7245158,125.435499 87.6060425,125.713085 C87.178867,125.216271 87.1229891,125.108818 86.7901647,125.730376 C86.4839051,126.302531 86.0518441,125.693632 85.7599357,125.448776 C85.1263479,124.91738 85.0216151,125.680355 84.7535234,126.094727 C84.6084853,126.318587 84.4176456,126.058909 84.2457372,126.074657 C84.1294013,126.084229 84.0158135,126.10646 83.9043631,126.140734 C83.7544395,126.186124 83.7910807,125.935401 83.6594776,125.935401 C83.0851265,125.935401 83.3645158,127.058404 83.5068059,127.273001 C83.6680273,127.516313 83.8744395,127.749127 83.9608517,128.034432 C84.0228364,128.124594 84.0796303,128.217843 84.1312334,128.314488 C84.1523021,128.476902 84.0155082,128.61832 84.0213097,128.781352 C84.0271112,128.953955 84.3819204,129.317071 84.219783,129.470222 C84.001157,129.677408 83.7492486,129.208074 83.4768822,129.291134 C83.0616151,129.418348 83.0136761,129.448608 82.8435998,129.015092 C82.6970349,128.642095 82.4677219,128.279906 82.4396303,127.869548 C82.0674166,128.148987 81.4283326,128.931415 80.9376456,128.611527 C80.7031418,128.458685 80.650928,128.812538 80.4545922,128.771162 C80.2536761,128.728243 80.19047,128.280832 80.2839051,128.136327 C79.5159662,128.126138 80.0799357,127.36378 79.671386,127.159373 C79.2237525,126.935204 78.6732181,126.964229 78.2042105,127.030924 C77.5996303,127.117071 78.0787143,126.234601 78.1159662,126.019387 C78.1712334,125.702278 77.8094013,124.799738 78.3935234,124.823513 C78.2371876,124.355415 77.9416151,124.312187 77.4927601,124.312187 C76.9010044,124.312187 76.9538288,123.825871 76.7098593,123.444538 C76.6875693,123.409646 76.4817677,123.179302 76.5220731,123.120945 C76.7275693,122.821745 76.31047,122.61672 76.1846685,122.394713 C75.9736761,122.021716 76.5065005,121.861155 76.4152028,121.489085 C75.8814624,121.887401 75.218867,121.381015 74.6649738,121.695962 C74.5370349,121.768524 73.7861952,122.369702 73.6552028,122.265338 C73.3877219,122.051667 73.6701647,121.828425 73.7574929,121.609197 C73.8442105,121.391822 73.6961189,121.045688 73.5785616,120.866292 C73.3962715,120.58778 73.2860425,120.624832 73.2164242,120.225281 C73.1645158,119.928243 73.2906227,119.71272 73.6029891,119.688327 C73.3654318,119.295878 73.5791723,118.988032 73.5574929,118.576748 C74.0726074,119.047934 74.1071112,117.828594 74.1529128,117.665253 C74.9098593,117.720215 74.3639051,117.393843 74.8552028,117.020538 C74.9324547,116.961871 75.2057372,117.117183 75.2231418,116.981941 C75.2579509,116.711148 74.921157,116.512608 74.8338288,116.286895 C75.2860425,116.465057 75.0536761,115.641871 75.0536761,115.416467 C75.0536761,114.926138 74.9141341,114.356145 74.75047,113.896074 C74.6200883,113.529871 74.5287906,113.146994 74.4472639,112.767513 C74.351386,112.320411 74.0930654,112.25279 73.689096,112.062895 C73.778867,112.240439 73.6857372,112.379387 73.5150502,112.441141 C73.3574929,112.120636 73.0613097,111.797969 72.9596303,111.460173 C72.8698593,111.161899 72.880241,110.905927 72.6350502,110.682994 C72.229554,110.314011 71.6008517,110.168271 71.2494013,109.773043 C71.2399357,110.075948 71.2225311,110.952552 70.7336761,110.468397 C70.4677219,110.205324 70.31047,110.444004 70.0451265,110.322039 C69.8023784,110.210881 69.5040578,109.99258 69.2280273,109.995359 C68.9727601,109.998138 68.8738288,110.328832 68.601157,110.218292 C68.4057372,110.139246 68.5654318,109.854559 68.6268059,109.744636 C68.7235998,109.571415 68.9083326,109.392636 68.9568822,109.202124 C69.0347448,108.896131 68.479325,108.756257 68.5898593,108.372145 C68.3941341,108.42865 68.1889433,108.700369 67.9666532,108.648804 C67.4710807,108.533941 68.0222257,108.070166 68.1929128,107.994516 C67.9941341,107.812341 67.7272639,107.567176 67.5080273,107.408467 C67.290928,107.250994 66.6484853,107.738853 66.4698593,107.865141 C66.2860425,107.995134 66.3758135,108.283218 66.2005464,108.404566 C66.0439051,108.513253 65.7571876,108.374924 65.6200883,108.316566 C65.5675693,108.294025 64.9141341,107.890152 65.1822257,108.216524 C64.9813097,108.097338 64.6707754,107.85279 64.4555082,107.794124 C64.2075693,107.726502 64.0133708,107.937085 63.7712334,108.081899 C63.4225311,108.290011 63.2347448,108.680299 62.9785616,108.981352 C62.6539815,109.363302 62.339783,109.354348 61.8851265,109.434629 C61.3837525,109.523246 61.5791723,109.866292 61.3608517,110.179695 C61.160241,110.467471 60.6677219,110.596846 60.579783,110.938348 C60.4643631,111.384215 60.4594776,111.710587 59.8640578,111.732201 C59.4808517,111.745787 59.1984089,111.985394 58.8219204,111.934446 C58.5449738,111.897085 58.3391723,111.868678 58.329096,111.560832 C58.3205464,111.286952 57.6170349,111.067106 57.3819204,111.037464 C57.0243631,110.992383 57.0243631,111.411078 56.6200883,111.217787 C56.2619204,111.046727 55.9229891,111.050124 55.5336761,111.044257 C55.1489433,111.038699 55.401157,110.605801 55.0585616,110.501745 C54.6219204,110.36959 54.2377983,110.397071 53.8497067,110.657674 C53.4420731,110.931555 53.129096,111.365997 52.9190196,111.807232 C52.7596303,112.142559 52.4368822,112.673338 52.409096,113.041085 C51.7614624,112.719345 52.2121494,112.015036 52.0121494,111.484874 C51.699783,110.657983 50.9373402,111.311036 50.3635998,111.351485 C50.3776456,111.433309 50.3929128,111.514825 50.409096,111.596032 C49.9119967,111.450601 49.2112334,111.637408 48.6851265,111.626601 C48.2103173,111.61672 47.9061952,111.432383 47.4661952,111.207288 C47.3126074,111.12886 47.0515387,110.960888 46.8683326,111.041169 C46.7052792,111.112495 46.810928,111.378348 46.6362715,111.41046 C46.3706227,111.459246 45.8478746,111.07606 45.8350502,110.796004 C45.7718441,110.848495 45.7587143,111.761843 45.5339815,111.382671 C45.3049738,110.996706 44.8124547,110.769141 44.668638,110.329141 C44.5910807,110.688243 43.3981036,110.53818 43.3110807,110.221071 C43.2646685,110.051555 43.4368822,109.752973 43.3019204,109.61279 C43.1620731,109.467667 42.739783,109.793731 42.4967296,109.646446 C42.1101647,109.412088 41.2408517,109.11752 41.0875693,108.658994 C40.8991723,108.094559 40.3239051,107.476706 39.7364242,108.070474 C39.5248212,108.284453 38.8442105,107.366166 38.7352028,107.234011 C38.4347448,106.870278 37.8405464,106.794011 37.3944395,106.519513 C36.699783,106.091864 36.080241,105.616664 35.4839051,105.076313 C35.2561189,104.869745 34.9428364,104.900313 34.668638,104.811078 C34.3727601,104.714741 34.3697067,105.094531 34.0518441,104.971331 C34.1727601,105.780313 33.7220731,105.882516 33.2555082,105.365324 C32.8381036,104.902474 32.3132181,104.686334 31.7336761,104.52639 C31.6112334,104.492425 31.3239051,104.45599 31.2365769,104.349155 C31.1019204,104.183962 31.3510807,103.917801 31.0594776,103.800467 C30.8387143,103.711541 30.7284853,103.685604 30.5361189,103.507134 C30.2063479,103.201141 29.9889433,103.421295 29.6368822,103.316313 C29.1055845,103.158222 28.8912334,102.579274 28.5361189,102.226348 C28.1779509,101.870025 27.79047,102.880636 27.5660425,102.169225 C27.4866532,101.918811 27.5825311,101.665001 27.4344395,101.430952 C27.2848212,101.194124 27.2261952,101.000215 27.1810044,100.726952 C27.1321494,100.433001 26.841157,100.253913 26.640241,100.072664 C26.3431418,99.8046498 26.4115387,99.3930568 26.1590196,99.1021937 C26.7584089,98.6507691 26.8759662,98.97992 27.2213097,99.3970709 C27.3916914,99.602713 27.6472639,99.6388393 27.7840578,99.4081867 C27.9544395,99.1201025 28.311386,99.1741375 28.4933708,98.9237235 C28.7174929,98.6149516 28.3541341,98.2820954 28.1748975,98.0684253 C28.0326074,97.8986007 28.1049738,97.4326639 27.930012,97.3795551 C27.2148975,97.1609446 26.9465005,96.9049726 26.6875693,96.1904744 C27.2527601,96.2463621 26.0368822,95.279906 26.9287906,95.1230498 C27.1174929,95.0900112 27.4683326,95.2586007 27.6094013,95.0711761 C27.7752028,94.850713 27.7101647,94.3650147 27.588638,94.1448604 C27.708638,94.1112042 28.1752028,94.1315832 27.9898593,93.8898147 C27.9010044,93.7737165 28.3028364,93.4207902 28.4173402,93.393927 C28.8933708,93.2818428 28.6884853,91.9559761 28.6658899,91.6104604 C28.6661952,91.6141656 28.8610044,90.8372954 28.4533708,91.1673726 C28.1190196,91.4378568 28.0179509,91.3344182 27.820699,91.0012533 C27.7416151,90.8669375 27.3092486,90.8465586 27.1718441,90.7597937 C26.8723021,90.5705165 26.6475693,90.0999481 26.3107754,89.972734 C25.9336761,89.8303902 25.098867,90.0520884 24.780699,90.2605095 C24.2564242,90.6035551 23.6872639,91.2448744 23.0454318,91.2729726 C22.3373402,91.3044674 20.2008517,91.1559481 20.1559662,90.1209446 C19.9458899,90.1755972 19.6432944,90.518334 19.4182563,90.3136182 C19.2435998,90.1546007 18.7758135,89.8745446 18.6839051,89.6682849 C18.5996303,89.4790077 18.620699,89.1016884 18.5632944,88.881534 C18.4845158,88.57832 18.3367296,88.3346989 18.109554,88.1201025 C17.7892486,87.8181235 17.2387143,87.9870218 17.0399357,87.6776323 C16.8243631,87.3429235 16.119325,86.9378147 15.8478746,87.4309235 C15.6289433,86.8942779 15.0191723,87.289506 14.8106227,86.8986007 C14.5352028,86.382334 15.4933708,86.600327 15.6319967,86.5750077 C16.2063479,86.470334 15.978867,85.9318358 15.6530654,85.7292814 C15.3776456,85.5572954 15.5077219,85.467134 15.4985616,85.1969586 C15.4945922,85.0762288 15.289096,84.7137305 15.2338288,84.5843551 C15.1556609,84.4015621 14.9361189,84.3818007 14.8649738,84.1780112 C14.7816151,83.9390218 14.8594776,83.6824323 14.8103173,83.4385025 C14.719325,82.9886218 13.9733708,82.8654218 13.6063479,82.7842147 C13.119325,82.6758358 12.7748975,83.3338288 12.4035998,82.8610989 C12.2832944,82.7082568 11.7764242,82.009506 12.2661952,82.0064182 C12.1092486,81.7828674 11.8964242,81.6114989 11.7065005,81.4194428 C11.5187143,81.2304744 11.5956609,80.8991621 11.5150502,80.6703621" id="path564" stroke="#C73F3B" fill="#C73F3B" sketch:type="MSShapeGroup"></path>
        <path d="M149.966555,80.6703621 C150.276479,80.671906 150.494494,80.5141235 150.427929,80.1812674 C150.335715,79.7242849 150.116784,79.8098147 150.25541,79.327513 C150.367777,78.9372253 150.692051,79.0749375 150.977548,78.9585305 C151.310067,78.8229797 151.442586,78.3465446 151.835563,78.3360463 C151.772051,78.1927761 151.756784,78.0445656 151.790067,77.8914147 C152.016326,77.9386568 152.474647,78.1634428 152.683807,77.9732393 C152.840754,77.8305867 153.015105,77.5931411 153.238922,77.5616463 C153.472509,77.5289165 153.583349,78.1424463 153.741822,78.2829375 C154.011135,78.5216182 154.533883,78.1977165 154.876479,78.2279761 C155.506403,78.2832463 155.552815,77.3791621 155.624265,76.9360744 C155.682891,76.5707972 155.848387,76.4337025 156.241364,76.4926779 C156.73999,76.5674007 157.20228,76.5769726 157.683196,76.4689025 C157.934189,76.4123972 158.282586,76.5068814 158.488387,76.3086498 C158.715563,76.0897305 158.67709,75.6574498 158.892357,75.4017867 C159.43312,74.7586147 160.492357,74.6946989 161.122891,74.1741095 C161.376326,73.9647621 161.505792,73.8517516 161.827929,73.8437235 C162.24167,73.8332253 162.128998,73.6816182 162.002891,73.3777867 C161.84228,72.9908954 161.702433,72.6518639 161.514036,72.2801025 C161.267013,71.7934779 161.790983,71.6850989 162.122891,71.5998779 C161.993731,71.4763691 161.847166,71.3800323 161.683196,71.3108674 C161.818464,71.1080042 162.047166,70.8029375 162.32167,70.9996253 C162.499074,70.5929726 162.011441,70.5528323 161.991288,70.214727 C161.964418,69.7719481 161.531135,69.4619411 161.289303,69.1321726 C160.9577,68.679513 160.606861,68.2243832 160.416632,67.6880463 C160.291441,67.3345025 160.499074,66.7592604 160.167777,66.6058007 C159.888082,66.4764253 158.748845,66.6110498 159.067929,66.1306007 C159.248998,65.8585726 159.925028,65.7816884 160.225486,65.6865867 C160.772662,65.5133656 161.314036,65.4689025 161.864876,65.2685095 C162.413273,65.0690428 162.497242,65.3487902 162.949456,65.5315832 C163.312509,65.6782498 163.619074,65.3012393 163.980601,65.5572112 C164.396784,65.8520884 164.404418,65.3645375 164.3177,65.0770709 C164.187929,64.646334 163.657548,64.8961305 163.442586,64.5746989 C163.258769,64.2998919 163.452357,63.7743621 163.475868,63.4745446 C163.511288,63.0225025 163.403196,62.5476112 163.404723,62.0915551 C163.405944,61.6602007 163.587929,61.1862358 163.502128,60.7666147 C163.398922,60.2605375 163.657853,60.1178849 164.101212,60.3330989 C164.475868,60.5146568 164.800448,60.6872604 165.21083,60.7848323 C165.745792,60.9117375 166.256937,60.7088744 166.792815,60.7629095 C167.203502,60.8042849 167.346403,61.3508112 167.725028,61.0281446 C168.016632,60.7798919 168.416632,60.7465446 168.692357,60.4976744 C169.194952,60.0440884 167.939685,58.7947972 167.796784,58.3053937 C167.719227,58.0398498 167.662128,57.3145446 167.925028,57.1283551 C168.177242,56.9492674 168.546708,57.1326779 168.826097,57.0060814 C169.533578,56.6858849 169.480143,56.3533375 169.256021,55.6891691 C169.109761,55.2553446 169.601364,55.2241586 169.88167,55.2528744 C170.330219,55.2985726 170.533883,55.3066007 170.964418,55.1698147 C171.155257,55.1092954 171.643196,55.4856884 171.491135,55.6385305 C171.247166,55.8833867 171.61083,56.1384323 171.884112,56.1967902 C172.421517,56.310727 171.964418,56.5762709 172.273731,56.7238639 C172.70396,56.9285797 173.288082,56.9066568 173.614189,57.3083691 C173.97999,57.7591761 175.038616,58.3026147 175.595257,58.1253797 C175.963807,58.0080463 176.897548,58.9037937 177.008998,58.4387832 C177.210525,58.503934 177.221822,58.686727 177.381517,58.7944884 C177.598311,58.9411551 177.832509,58.953506 178.042586,59.1304323 C178.438311,59.4626709 178.583654,59.9709095 178.965944,60.31272 C179.300296,60.61192 179.70457,60.8144744 180.04625,61.1041025 C180.613273,61.5845516 180.41541,61.9933656 180.631288,62.5896042 C180.777548,62.9928604 181.190983,63.0768463 180.997395,63.5841586 C180.834341,64.0111902 180.69541,64.4051832 181.044418,64.7874428 C181.295105,65.0622498 181.646861,65.529113 182.044418,65.4966919 C182.549761,65.4553165 183.061517,65.772734 183.558311,65.7974358 C184.05938,65.8224463 184.575105,65.9771411 185.071288,65.9570709 C185.546403,65.9376182 186.002586,65.9021095 186.478616,65.937927 C187.614494,66.0228393 188.3977,66.6866989 189.426708,67.1047761 C189.896326,67.2955972 190.32167,67.5836814 190.793731,67.7649305 C191.136632,67.8964674 191.48625,67.8717656 191.843807,67.9214779 C192.293883,67.9844674 191.926555,68.3046639 192.255715,68.5010428 C192.703654,68.7681305 192.956784,68.8681726 193.263349,69.3399761 C193.505181,69.7123551 193.773273,70.0930709 194.063349,70.428706 C194.40167,70.8205375 194.887166,71.0267972 195.277395,71.3556393 C195.550372,71.5856744 195.66457,71.9225446 196.025181,71.9784323 C196.520754,72.0550077 196.982128,71.8783902 197.465486,71.8289867 C198.50396,71.7230779 199.644418,72.2180393 200.696326,72.28072 C201.250525,72.3137586 201.818464,72.3986709 202.373578,72.3844674 C202.905486,72.3708814 203.375715,72.1186147 203.916784,72.1569025 C204.495105,72.1976604 205.062738,72.3177726 205.636174,72.3974358 C206.132662,72.4666007 206.700601,72.3841586 207.174494,72.5610849 C207.622433,72.7284393 207.90457,73.1372533 208.32228,73.3509235 C208.933883,73.6640182 209.733578,73.6593867 210.396174,73.7995691 C211.400448,74.0120042 212.322891,74.6267691 213.377853,74.3677095 C213.858769,74.2497586 213.913731,74.329113 214.205334,74.6653656 C214.491746,74.9957516 215.053883,74.6440604 215.294494,74.9089867 C215.229151,74.8370428 217.625792,73.4972814 217.854494,73.3793305 C218.314341,73.1418849 218.911288,73.0310358 219.41938,72.9655761 C220.024265,72.8877656 220.707319,72.7188674 221.309151,72.7074428 C222.206555,72.6901516 223.271593,73.0162147 224.090525,72.5200182 C224.473731,72.2878218 225.186708,72.2112463 225.472204,71.8694358 C225.745792,71.5421375 225.763807,71.0502639 225.967777,70.6812814 C226.15709,70.3385446 226.505486,70.1918779 226.82854,70.0090849 C227.011135,69.9059551 227.14854,69.7691691 227.236174,69.574334 C227.287777,69.460706 227.548845,69.5712463 227.573273,69.4662639 C227.719532,68.8292674 226.051441,68.2185165 225.760754,67.7334358 C225.480448,67.2656463 225.295715,65.9830077 226.031288,65.8270779 C226.935105,65.6353305 227.996479,66.4273305 228.89083,66.5749235 C229.084112,66.6070358 229.641975,66.7762428 229.806555,66.6076533 C230.062433,66.3439621 230.449914,66.1654919 230.600448,65.8394288 C230.734189,65.5485656 230.814189,65.2039761 231.017242,64.9510919 C231.211746,64.7090147 231.863349,64.919906 232.119838,64.9452253 C232.804112,65.0125375 233.467929,64.6620814 233.852051,64.0720182 C234.0377,63.786713 233.549151,63.3726498 233.784265,62.9335761 C234.003807,62.5244533 234.245944,62.4296604 234.693883,62.4188533 C235.017242,62.411134 235.310067,62.5747832 235.251746,62.0816744 C235.206861,61.7000323 235.708235,61.9445797 235.871288,61.9979972 C236.04228,62.0541937 236.552815,61.6240744 236.790677,61.5576884 C236.987013,61.502727 237.173273,61.5533656 237.368998,61.5768323 C237.49541,61.5950498 237.622738,61.601534 237.750372,61.5962849 C237.801059,61.5212533 237.852967,61.4471481 237.906097,61.3736604 C238.056937,61.372734 238.392204,61.5604674 238.57083,61.5953586 C238.894799,61.6580393 239.221212,61.7157797 239.550067,61.742334 C240.756784,61.8392884 239.666403,60.7761867 239.19312,60.4269656 C238.084418,59.6090288 236.832204,58.8929867 235.58457,58.3254639 C235.015715,58.066713 234.178769,57.8613797 233.813273,58.5193726 C233.344265,59.3632463 232.733578,58.48232 231.96625,58.5178288 C231.707624,58.5298709 231.164418,58.4245797 230.940906,58.5341937 C230.657242,58.6728323 230.650525,59.0421235 230.235868,58.8062218 C229.972357,58.6561586 229.017853,58.1670639 229.261212,57.7511481 C229.398006,57.5167902 229.581822,57.5248182 229.400143,57.23272 C229.219685,56.9427832 229.215715,56.7003972 229.222433,56.3724814 C229.24167,55.3853375 229.141822,54.3985025 229.066708,53.4156814 C229.791288,53.7667551 230.58854,53.7574919 231.287471,54.071513 C232.083502,54.4287621 232.198006,53.7256884 232.689303,53.2816744 C233.030677,52.9729025 233.978769,53.2480182 233.893883,52.5881726 C233.848998,52.2364814 233.645639,52.1586709 233.345486,52.0913586 C233.147013,52.0465867 233.17938,51.7387411 233.163502,51.5664463 C233.138464,51.2919481 233.323502,51.1681305 233.198616,50.8862218 C233.122891,50.7580814 233.111593,50.6234568 233.165334,50.4820393 C233.27709,50.1921025 233.112204,50.0296884 233.112204,49.7446919 C233.112204,49.140734 232.899685,48.6757235 233.467013,48.2483832 C234.101212,47.7710218 233.152509,47.2056604 232.922891,46.7848042 C232.719227,46.4114989 232.235868,46.1058147 231.803196,46.2805797 C231.416021,46.4368182 231.230677,46.1354568 231.00228,45.8794849 C231.626708,45.6667411 231.492967,44.7064604 232.229456,44.5619551 C233.107013,44.3899691 233.904876,44.0657586 234.807471,44.1160884 C235.70457,44.1658007 236.457548,43.8428253 237.373273,44.0799621 C237.763807,44.1812393 238.149456,44.3702077 238.512509,44.5443551 C239.009609,44.7824182 239.576937,44.7858147 240.058464,45.0343761 C240.065181,44.4900112 241.678311,45.1189797 241.802586,45.3400604 C241.914647,45.5392182 242.644418,45.7896323 242.869151,45.9140674 C243.043196,46.010713 242.975105,46.1987551 243.128998,46.2920042 C243.369914,46.4377446 243.612662,46.4772674 243.839532,46.6609867 C244.086861,46.8616884 244.505792,47.0256463 244.646861,47.3112604 C244.730525,47.4813937 245.152204,47.3791902 245.16228,47.6663481 C245.177242,48.0918358 245.658464,48.3014919 245.969303,48.5080604 C246.255715,48.6979551 246.53083,49.2200884 246.866403,49.3201305 C247.318311,49.4569165 247.452967,50.0204253 247.809609,50.2906007 C248.209609,50.5931972 248.665486,50.8096463 249.054799,51.1313867 C249.385181,51.4040323 249.48625,51.8301375 249.797395,52.1135902 C250.144265,52.4294639 250.42396,52.3179972 250.587319,52.8030779 C250.855105,53.5975481 252.173273,54.2861095 252.970219,54.13512 C253.307319,54.0712042 253.7177,53.9603551 254.023349,54.1317235 C254.522586,54.4120884 254.9977,54.4682849 255.514952,54.6831902 C255.225792,54.1619832 256.127471,54.8832744 256.284723,54.8832744 C256.661822,54.8832744 257.120448,55.45512 257.443807,55.6434709 C257.965639,55.9476112 258.431899,55.7033726 258.93541,55.905927 C259.085334,55.9664463 259.026708,56.4101516 259.141212,56.5490989 C259.271288,56.7068814 259.538464,56.8205095 259.710067,56.9205516 C260.219074,57.2166639 260.104265,57.4747972 260.30396,57.9308533 C260.445944,58.2547551 261.414189,59.0242147 261.77541,58.9788253 C261.977548,58.9531972 262.159532,58.8624182 262.366861,58.8624182 C262.678006,58.8624182 262.93541,59.0569446 263.252662,59.0180393 C263.609609,58.9738849 264.644723,59.0402709 264.688387,58.6024323 C264.732967,58.1559481 265.241059,57.8218568 265.672204,57.8690989 C265.699074,57.8721867 266.078616,58.0379972 266.103349,57.9277656 C266.160754,57.6724112 266.140601,57.6004674 266.423654,57.5254358 C266.683502,57.4562709 267.172357,56.9943481 267.441975,57.1728182 C267.589761,57.2706989 268.11709,57.4596674 268.287777,57.4840604 C268.258464,57.785113 268.343654,58.0308954 268.550983,58.2458007 C268.854189,58.5601305 269.528693,59.0452112 269.234341,59.57352 C269.171746,59.6856042 268.923502,59.7087621 268.829761,59.8050989 C268.595257,60.0450147 268.943654,60.2231761 269.034647,60.4180112 C269.10854,60.5761025 269.06854,60.7632182 269.103044,60.9299551 C269.16625,61.2368744 269.451441,61.495934 269.422128,61.819527 C269.388235,62.1953025 270.116784,62.7517095 269.585486,63.0197235 C269.978464,63.3102779 269.631899,63.3896323 269.649609,63.7314428 C269.662433,63.9837095 269.954647,64.1871902 269.916784,64.4530428 C269.864876,64.81832 269.442586,64.6840042 269.678922,65.1953305 C269.762891,65.3768884 269.880143,65.5541235 269.911593,65.7560604 C269.961975,66.081506 268.205334,65.5584463 267.931746,65.4957656 C267.811441,65.4682849 267.105486,65.1542639 267.052967,65.2592463 C266.936326,65.491134 266.958311,65.9082849 266.718922,66.0484674 C266.527471,66.1608604 266.129914,66.1766077 265.998006,66.3306849 C265.870983,66.4785867 266.468235,66.8617726 266.534799,66.9312463 C267.174494,67.6006639 267.652051,68.3824744 268.061212,69.2093656 C268.404418,69.9025586 269.05083,70.3641726 268.990677,71.1842709 C268.964418,71.5418288 269.204418,71.4924253 268.794952,71.6458849 C268.467624,71.7684674 268.134799,71.68232 267.936937,72.0460533 C268.482891,72.1985867 268.386403,72.4990218 268.773578,72.801927 C268.352204,72.4573375 267.771441,72.3347551 267.456937,71.85832 C267.196479,71.4637095 266.853273,71.3525516 266.3977,71.3787972 C266.479532,71.6625586 266.927777,72.4727761 266.747013,72.7497446 C266.606555,72.9649586 266.194647,72.742334 266.00228,72.907527 C265.720754,73.1492954 266.233731,73.6470358 265.616937,73.8060533 C265.064876,73.9483972 264.485334,73.8162428 263.936632,73.9579691 C264.225181,74.3538147 265.174799,74.8296323 265.051441,75.3746147 C264.985792,75.6657867 263.830983,75.4539691 263.536326,75.4082709 C263.262738,75.3662779 262.976937,75.3057586 262.73541,75.163106 C262.452051,74.9957516 262.179685,74.5066568 261.804723,74.5489586 C261.609914,74.5711902 261.575715,74.7972112 261.340906,74.8021516 C261.358616,75.3076112 261.400448,75.5802568 261.234647,76.0671902 C261.16167,76.2820954 261.126861,76.6458288 260.933273,76.7921867 C260.834036,76.8669095 260.366861,76.8854358 260.396174,77.0534077 C260.434036,77.2717095 260.240448,77.2420674 260.140906,77.4035551 C260.030067,77.5082288 259.89938,77.5727621 259.749151,77.5971551 C259.613578,77.6660112 259.48228,77.9877516 259.405028,78.011527 C258.927777,78.1581937 258.556479,78.6880463 258.56228,79.2305586 C258.569303,79.8694077 257.604112,79.8910218 257.252357,79.5161726 C257.302128,79.8536604 256.836479,79.8153726 256.635257,79.8048744 C256.720143,80.0518919 256.498769,80.0982077 256.315563,80.1293937 C255.93541,80.1936182 255.65938,80.4881867 255.361975,80.7163691 C255.067929,80.9420814 254.865181,81.0371832 254.828845,81.4453797 C254.802586,81.742727 254.463044,81.7146288 254.546708,82.0054919 C254.401364,81.9032884 254.240754,81.8588253 254.064265,81.8721025 C254.300296,82.1932253 253.275563,82.9778147 253.046555,82.2185446 C252.927166,81.8223902 253.684112,81.8301095 253.78854,81.7149375 C253.93999,81.5478919 253.74396,81.4095621 253.727471,81.2428253 C253.706708,81.034713 254.029456,80.9257165 254.128693,80.7827551 C253.444723,81.0890568 253.090525,80.6181797 252.479838,80.5159761 C252.589761,80.35912 252.756174,80.242713 252.94396,80.204734 C252.561364,79.6211551 252.832509,79.7156393 253.259685,79.2842849 C253.45541,79.0863621 253.534494,78.4959902 253.558006,78.2261235 C253.64167,77.2544182 252.156174,77.4603691 252.040143,76.6032182 C252.110067,77.1676533 251.538158,76.9212533 251.24228,76.8141095 C250.868235,76.6785586 250.066403,77.1052814 250.635868,77.3368604 C250.202586,77.4226989 249.945486,78.0982919 249.981822,78.5120463 C250.012051,78.8529305 249.016937,79.2271621 248.78854,79.3821656 C248.567777,79.53192 248.363196,79.6418428 248.238616,79.8934919 C248.035257,80.3041586 248.431899,80.5073305 248.334189,80.8222779 C248.102738,81.5691972 247.479532,81.3187832 246.927777,81.6593586 C246.550372,81.8924814 246.1577,81.281113 245.742738,81.3601586 C245.140296,81.4750218 245.44167,82.47112 245.57999,82.8481305 C245.822433,83.5079761 246.557395,83.7497446 247.082586,84.121506 C247.248082,84.2388393 247.641975,84.2823761 247.829761,84.2070358 C248.141822,84.0826007 248.213883,84.5392744 248.480143,84.5840463 C248.552509,84.4284253 248.552509,84.2728042 248.480143,84.1171832 C248.925639,84.1171832 249.536937,84.5692253 249.746097,84.9675411 C250.034341,85.5165375 249.624876,86.0466989 250.218158,86.5076954 C250.616632,86.8170849 251.102433,86.9007621 251.587013,86.822334 C251.927777,86.7667551 252.33938,86.5768604 251.951593,86.2291832 C252.139074,86.1180253 253.014494,85.3843832 252.369914,85.3846919 C252.73999,85.4544744 253.079227,85.1256323 253.412357,85.0240463 C253.726861,84.9277095 254.232815,85.2599481 254.421517,85.4924533 C254.585792,85.6950077 254.723807,85.6709235 254.951288,85.6017586 C255.08228,85.5622358 255.241059,85.8274709 255.307624,85.8957095 C255.612662,86.2084954 256.127166,85.7481165 256.43709,86.0735621 C256.472815,85.9790779 256.502433,85.8830498 256.525639,85.7845516 C256.990677,86.1158639 257.63709,85.8688463 258.085639,86.2069516 C258.004418,86.2495621 257.924112,86.2940253 257.844723,86.3403411 C258.330525,86.7386568 257.594647,86.8504323 258.054799,87.1820533 C258.239227,87.315134 258.215715,87.5173797 257.972357,87.6149516 C257.57083,87.7761305 257.529609,87.4046779 257.36228,87.1629095 C257.311593,87.2786989 257.252662,87.3898568 257.185181,87.4963832 C257.136326,87.1619832 256.929609,87.2592463 256.74396,87.4287621 C256.636479,87.5266428 255.869456,88.0805797 256.305792,87.6078498 C256.056326,87.7708814 255.605639,88.2022358 255.324112,88.2538007 C255.125028,88.2902358 254.649303,88.021913 254.766861,88.4301095 C255.090219,88.1429516 255.379685,88.5721446 255.184876,88.8747411 C255.090219,88.6403832 254.818769,88.6246358 254.766861,88.8969726 C254.72228,89.127934 254.976021,89.2625586 254.931441,89.5006218 C254.911288,89.6096182 254.581517,89.7652393 254.482586,89.7417726 C254.17083,89.6670498 254.302128,89.2989937 254.039838,89.1637516 C254.338158,89.5941797 253.921975,89.2360042 253.688998,89.2749095 C253.695105,89.5645375 254.048998,89.9711902 254.34854,89.9640884 C253.725028,90.0591902 254.087166,91.169534 253.337548,90.9867411 C253.347319,91.2862498 253.279838,91.9189235 253.126861,92.1779832 C252.872204,92.6090288 253.085639,92.8927902 253.206555,93.3210568 C253.521364,93.0172253 254.030067,93.4507411 254.281975,93.6390919 C254.778769,94.0108533 255.358616,94.1479481 255.913425,94.4036112 C256.347929,94.6040042 256.509456,95.2660112 256.766861,95.6328323 C257.15709,96.1886218 257.528387,96.8317937 258.031593,97.2887761 C258.378158,97.6037235 258.715257,98.0761446 258.746097,98.5498007 C258.782738,99.1123832 259.625792,99.1920463 260.027624,99.3726779 C260.37999,99.5310779 260.222738,99.7419691 260.394341,100.012453 C260.526861,100.220257 260.743044,100.220566 260.946708,100.324004 C261.281975,100.494446 262.029151,100.869604 261.80228,101.36858 C261.325944,101.235499 260.799838,100.755359 260.280143,100.905422 C259.582433,101.10705 259.607777,100.603443 259.011441,100.379274 C258.412662,100.15418 258.155257,100.923948 257.651135,100.644818 C257.40167,100.506797 257.261517,100.271204 257.102433,100.043948 C256.905181,99.7620393 256.61999,99.7780954 256.351899,99.6125937 C256.487777,99.7181937 256.538769,99.9006779 256.459074,100.056916 C256.582128,99.91272 256.714647,99.9053095 256.856021,100.034685 C256.773273,99.9710779 256.692662,99.9043832 256.614799,99.8349095 C256.881364,99.7339411 257.41999,100.444425 256.901822,100.212846 C257.259074,100.454306 257.673731,100.991569 258.173273,100.762152 C258.373883,100.669829 258.350677,100.473141 258.60625,100.486727 C258.826403,100.498152 259.108845,100.596959 259.250525,100.777899 C259.338464,100.890292 259.234952,101.027387 259.384265,101.102109 C259.627319,101.224383 259.91312,101.260818 260.165944,101.360552 C260.711899,101.576383 261.183349,102.074124 261.710067,102.353871 C262.000448,102.508257 262.63312,103.121787 262.614494,103.492931 C262.605944,103.665225 262.248693,103.599457 262.152204,103.608411 C261.778769,103.642685 261.576326,103.952383 261.300296,104.160187 C261.116174,104.298825 260.889914,104.37046 260.849609,104.614081 C260.831593,104.72246 260.810525,104.985534 260.655105,104.995106 C260.389761,105.011162 260.2377,104.751176 259.936326,104.868509 C259.683196,104.967008 259.497242,105.19766 259.29541,105.370264 C259.437395,105.300173 259.967777,104.857085 260.12167,104.966081 C260.414189,105.173267 260.419685,105.736159 260.858464,105.725969 C260.766555,105.667302 260.670983,105.615429 260.571746,105.570348 C261.092967,105.65032 261.417242,105.023822 261.919838,105.169253 C262.266097,105.269295 262.4377,105.554909 262.674341,105.797295 C262.955563,106.085071 263.57938,106.147443 263.958006,106.237295 C263.699074,106.360187 263.58457,106.558727 263.408387,106.770853 C263.347929,106.883555 263.274647,106.987302 263.18854,107.082095 C263.05541,107.187387 262.876784,107.131499 262.748845,107.259948 C262.791899,107.346095 262.849914,107.420201 262.922891,107.482264 C263.059074,107.287738 263.317395,107.016018 263.561059,107.237716 C263.433731,107.107415 263.459074,106.754797 263.712204,106.894362 C263.99312,107.049674 263.747013,107.289899 263.881975,107.517773 C263.884723,107.522404 264.150677,108.272102 263.866097,108.085604 C263.707929,107.981857 263.724418,107.714769 263.582433,107.593422 C263.617853,107.73978 263.639838,107.88799 263.649609,108.038053 C263.463044,108.087457 263.338769,107.968271 263.298464,107.793197 C263.378158,108.205408 263.261212,107.943878 263.164418,107.793197 C263.125944,107.972285 263.052662,108.135316 262.944265,108.282292 C263.227624,108.224243 263.651135,108.49658 263.692357,108.793618 C263.561975,108.654053 263.460296,108.668874 263.387013,108.83839 C263.618158,108.821716 263.882586,109.147471 263.618769,109.309885 C263.291441,109.511513 262.830372,109.115976 262.550372,108.994011 C262.699074,109.113197 262.787929,109.364229 262.968693,109.438334 C263.22396,109.543008 263.3977,109.331499 263.554036,109.647681 C263.628845,109.798671 264.041975,110.180622 263.836784,110.365885 C263.650525,110.534166 263.414799,110.522124 263.518616,110.861155 C263.231899,110.727766 263.216326,110.339639 262.923196,110.216439 C262.840448,110.363415 262.831288,110.393674 262.681975,110.460987 C263.118006,110.520271 262.472509,111.831625 261.759532,110.950081 C261.854799,111.274292 262.564112,111.211611 262.470677,111.586152 C262.390372,111.908509 262.064265,112.493324 262.461822,112.706685 C262.238311,112.812594 262.243196,112.957716 262.274647,113.170769 C262.342433,113.630531 261.960448,113.14792 262.089609,113.46225 C261.941212,113.331022 261.794647,113.197632 261.650219,113.062081 C261.643807,113.222643 262.419074,113.776271 261.781517,113.640102 C261.895105,113.903794 261.693883,114.144636 261.451746,114.218124 C261.71709,114.593281 261.915257,115.260229 261.143349,115.062924 C261.376326,114.965969 261.485334,114.722657 261.38457,114.484902 C261.279532,114.569197 261.199532,114.672945 261.143349,114.796145 C260.995868,114.688074 260.880754,114.530909 260.834647,114.351513 C260.743654,114.51578 260.579074,114.615204 260.395257,114.529366 C260.508845,114.65658 260.553731,114.80479 260.529303,114.973997 C260.890219,114.809422 261.307624,115.447345 260.791899,115.396397 C260.812357,115.670895 261.149761,115.81818 261.231593,115.485324 C261.503654,115.769702 261.201364,115.756734 261.016326,115.941071 C260.825486,116.130657 260.728387,116.392495 260.639227,116.641366 C260.40228,116.417506 260.039838,116.290909 259.73541,116.197043 C259.973883,116.348032 260.121059,116.772285 260.459685,116.715162 C260.794647,116.658348 260.911593,116.304187 261.188845,116.730601 C260.963502,116.824776 261.044112,117.197155 260.973273,117.432748 C260.855715,117.821801 261.45083,117.834152 261.320448,118.242348 C261.251135,117.945927 261.169914,117.945927 261.076174,118.242348 C260.938464,118.028369 260.743044,117.846194 260.505181,117.753253 C260.488998,117.94006 260.381517,118.104636 260.220906,118.197576 C260.380601,118.285267 260.782128,118.341464 260.716784,118.619976 C260.622433,119.021688 260.309456,118.443359 260.309456,118.953759 C260.25938,118.723724 260.04228,118.326025 259.802891,118.664748 C260.106097,118.772509 259.84167,119.226404 260.196479,119.24246 C260.1177,119.488552 259.604418,119.866488 259.604418,119.442545 C259.361975,119.638306 259.417853,119.690797 259.61999,119.82079 C259.871288,119.982587 259.655105,120.368243 259.537242,120.531892 C259.408387,120.403134 259.284112,120.269436 259.164723,120.131724 C259.088082,120.424439 258.70854,120.610011 258.550983,120.265113 C258.383044,120.50966 257.972967,120.355274 258.221212,120.709436 C258.053883,120.660032 257.885028,120.652313 257.714341,120.687513 C257.868235,120.85672 258.090219,120.920945 258.306708,120.843134 C258.263044,121.020987 258.347929,121.12566 258.526555,121.132145 C258.46457,121.296411 258.316174,121.295794 258.20228,121.395218 C258.02457,121.550839 258.142738,121.847569 257.866708,122.021408 C257.964418,121.805576 257.898464,121.72406 257.66854,121.77686 C257.757395,122.016467 257.607166,122.22952 257.604418,122.466039 C257.580601,122.017394 257.135715,122.488271 256.902128,122.488271 C256.853578,122.544159 256.678311,123.319176 256.439838,123.083583 C256.230372,122.876397 256.089914,122.768636 256.049914,123.157071 C256.005334,123.584102 255.80625,123.684762 255.384265,123.622081 C255.63709,123.72058 255.952815,123.714404 256.022433,124.044481 C255.73999,123.694334 255.758616,124.239625 255.558311,124.02225 C255.470067,124.29366 255.627624,124.639794 255.274036,124.748481 C255.042891,124.819499 254.641975,124.910278 254.416021,124.778124 C254.745792,125.131667 253.473731,125.310755 253.756479,124.755892 C253.565334,124.972959 253.313731,124.881871 253.096937,124.778124 C253.13999,124.967709 253.642586,125.219976 253.509761,125.451246 C253.427929,125.592973 253.241364,125.473169 253.159532,125.416664 C252.905181,125.24159 252.670067,125.269071 252.700296,124.955976 C252.564112,125.145253 252.058464,125.454952 251.888082,125.334222 C252.275868,125.471316 252.02396,125.771752 251.790067,125.706601 C251.515257,125.630334 251.525639,125.296552 251.711288,125.134138 C251.450525,125.133211 251.217548,125.270615 251.076174,125.489843 C251.370525,125.543878 251.055715,125.848327 251.381517,125.934166 C251.316784,125.993141 251.243502,126.037604 251.161364,126.067864 C251.022433,125.590502 249.936326,125.633113 249.689609,126.023401 C249.657853,125.372509 248.853273,125.202994 248.941822,124.511653 C248.854494,124.954741 248.866403,124.690124 248.679227,124.533885 C248.824876,124.285015 249.077395,124.243022 249.338769,124.289338 C248.998616,124.049731 248.71312,124.533267 248.37083,124.378264 C248.859074,124.576804 248.347624,124.95999 248.019685,124.845127 C248.142738,124.895148 248.603502,125.068369 248.627624,125.218432 C248.57938,125.257646 248.523196,125.25919 248.45938,125.223064 C248.733273,125.407092 249.394647,126.296664 249.118922,126.690348 C248.824265,127.107808 248.205639,125.900509 248.062433,125.73439 C248.042891,126.132397 248.516784,126.48872 248.700601,126.801506 C248.537548,126.839794 248.417548,126.967008 248.391899,127.13498 C248.230067,127.053773 248.108235,126.902166 248.107929,126.71258 C247.708235,126.898152 248.124723,127.357295 247.863654,127.624074 C247.562891,127.230699 247.343044,127.54719 247.13999,127.827555 C247.002586,128.017141 246.520143,127.61265 246.788845,127.357295 C246.599227,127.432018 246.480448,127.339695 246.502128,127.13498 C246.465486,127.393113 246.652662,127.659583 246.572967,127.917716 C246.472815,128.242853 245.638311,127.65279 245.467013,127.601843 C245.863349,128.109155 245.337242,127.876032 245.051746,127.891162 C245.548235,128.089394 244.826403,128.846811 244.502128,128.380257 C244.449914,128.54792 244.340906,128.713731 244.172357,128.780425 C244.335715,128.441085 243.927471,128.647345 243.703044,128.700762 C243.424876,128.767148 243.028845,128.858545 242.853273,129.113899 C242.903044,128.986685 242.968082,128.868116 243.048693,128.758194 C242.866097,128.887569 242.722891,129.11112 242.853273,129.336215 C242.376937,129.481338 242.543654,129.137983 242.257853,128.913815 C242.144876,129.167316 242.483807,129.333127 242.261517,129.561618 C242.10457,129.722488 241.764112,129.887064 241.903349,130.178853 C241.983044,130.345899 242.216937,130.354545 242.367471,130.407036 C242.576937,130.479906 242.513425,130.955106 242.346708,130.447794 C242.378464,130.838081 242.915868,131.041253 242.888082,131.42938 C242.841364,132.083359 241.962891,131.762853 241.598311,131.937618 C241.617548,131.712832 241.359227,131.353731 241.754341,131.559681 C241.673425,131.182053 241.00167,131.25832 241.268845,130.737113 C240.959227,130.778797 241.153425,130.332004 240.894494,130.303906 C240.729914,130.285997 240.683807,129.663513 240.79312,129.54865 C241.008387,129.32232 240.740601,129.164846 241.037395,128.982053 C241.493273,128.701071 240.850525,128.539583 240.676174,128.380874 C240.716174,128.460846 240.752815,128.542362 240.786097,128.625422 C240.446555,128.699218 240.27709,128.189745 240.126555,127.980706 C240.018464,128.165043 240.097242,128.338573 240.279227,128.425029 C240.151288,128.570152 239.719838,128.95025 239.555563,128.647345 C239.286555,129.271373 239.227624,128.329001 239.091441,128.224945 C238.931746,128.102671 238.360754,128.360187 238.697242,127.89178 C238.618464,127.863373 238.538158,127.841141 238.456326,127.824776 C238.436174,127.98719 238.472509,128.135709 238.565944,128.269408 C238.298769,128.228341 238.173578,127.714236 237.906403,127.780313 C238.027319,127.624074 237.974799,127.472159 237.796784,127.402376 C237.726555,127.561085 237.657853,127.785562 237.619685,127.469071 C237.56228,127.796678 238.056326,128.000159 237.872815,128.33425 C237.78457,128.494811 237.481059,128.121506 237.35709,128.136018 C237.441364,128.327766 237.352815,128.507162 237.17999,128.602881 C237.172051,128.403415 236.655715,128.335794 236.406861,128.229267 C236.058769,128.080439 235.580906,128.547302 235.442891,128.180481 C235.369914,128.225253 235.296632,128.269716 235.223044,128.31418 C235.120448,127.939948 234.637395,127.973913 234.389456,127.758081 C234.29938,127.679653 234.489303,127.566025 234.332357,127.518783 C234.106403,127.450236 233.814189,127.12726 233.574189,127.335681 C233.387013,126.744383 233.067929,126.298208 233.070372,125.690853 C233.621822,125.883218 233.404723,124.508566 232.630983,124.892678 C232.316479,125.048916 232.160448,124.774727 231.918311,124.652453 C231.624876,124.504552 231.467929,124.937141 231.14457,124.687345 C230.660601,124.313731 230.212967,124.104383 229.83709,123.579162 C229.676784,123.953394 229.232509,123.996004 228.950983,124.232215 C228.771135,124.383204 229.105486,124.685801 228.880143,124.916145 C228.694799,125.106039 227.549761,125.669239 227.663349,125.046138 C227.266097,125.062194 227.168693,126.001169 227.027319,125.911008 C226.825792,125.782559 226.660906,125.577534 226.497853,125.404622 C226.150677,125.036874 226.176021,125.435499 226.057548,125.713085 C225.630372,125.216271 225.574494,125.108818 225.24167,125.730376 C224.93541,126.302531 224.503349,125.693632 224.211441,125.448776 C223.577853,124.91738 223.47312,125.680355 223.205028,126.094727 C223.05999,126.318587 222.869151,126.058909 222.697242,126.074657 C222.580906,126.084229 222.467319,126.10646 222.355868,126.140734 C222.205944,126.186124 222.242586,125.935401 222.110983,125.935401 C221.536632,125.935401 221.816021,127.058404 221.958311,127.273001 C222.119532,127.516313 222.325944,127.749127 222.412357,128.034432 C222.474341,128.124594 222.531135,128.217843 222.582738,128.314488 C222.603807,128.476902 222.467013,128.61832 222.472815,128.781352 C222.478616,128.953955 222.833425,129.317071 222.671288,129.470222 C222.452662,129.677408 222.200754,129.208074 221.928387,129.291134 C221.51312,129.418348 221.465181,129.448608 221.295105,129.015092 C221.14854,128.642095 220.919227,128.279906 220.891135,127.869548 C220.518922,128.148987 219.879838,128.931415 219.389151,128.611527 C219.154647,128.458685 219.102433,128.812538 218.906097,128.771162 C218.705181,128.728243 218.641975,128.280832 218.73541,128.136327 C217.967471,128.126138 218.531441,127.36378 218.122891,127.159373 C217.675257,126.935204 217.124723,126.964229 216.655715,127.030924 C216.051135,127.117071 216.530219,126.234601 216.567471,126.019387 C216.622738,125.702278 216.260906,124.799738 216.845028,124.823513 C216.688693,124.355415 216.39312,124.312187 215.944265,124.312187 C215.352509,124.312187 215.405334,123.825871 215.161364,123.444538 C215.139074,123.409646 214.933273,123.179302 214.973578,123.120945 C215.179074,122.821745 214.761975,122.61672 214.636174,122.394713 C214.425181,122.021716 214.958006,121.861155 214.866708,121.489085 C214.332967,121.887401 213.670372,121.381015 213.116479,121.695962 C212.98854,121.768524 212.2377,122.369702 212.106708,122.265338 C211.839227,122.051667 212.12167,121.828425 212.208998,121.609197 C212.295715,121.391822 212.147624,121.045688 212.030067,120.866292 C211.847777,120.58778 211.737548,120.624832 211.667929,120.225281 C211.616021,119.928243 211.742128,119.71272 212.054494,119.688327 C211.816937,119.295878 212.030677,118.988032 212.008998,118.576748 C212.524112,119.047934 212.558616,117.828594 212.604418,117.665253 C213.361364,117.720215 212.81541,117.393843 213.306708,117.020538 C213.38396,116.961871 213.657242,117.117183 213.674647,116.981941 C213.709456,116.711148 213.372662,116.512608 213.285334,116.286895 C213.737548,116.465057 213.505181,115.641871 213.505181,115.416467 C213.505181,114.926138 213.365639,114.356145 213.201975,113.896074 C213.071593,113.529871 212.980296,113.146994 212.898769,112.767513 C212.802891,112.320411 212.54457,112.25279 212.140601,112.062895 C212.230372,112.240439 212.137242,112.379387 211.966555,112.441141 C211.808998,112.120636 211.512815,111.797969 211.411135,111.460173 C211.321364,111.161899 211.331746,110.905927 211.086555,110.682994 C210.681059,110.314011 210.052357,110.168271 209.700906,109.773043 C209.691441,110.075948 209.674036,110.952552 209.185181,110.468397 C208.919227,110.205324 208.761975,110.444004 208.496632,110.322039 C208.253883,110.210881 207.955563,109.99258 207.679532,109.995359 C207.424265,109.998138 207.325334,110.328832 207.052662,110.218292 C206.857242,110.139246 207.016937,109.854559 207.078311,109.744636 C207.175105,109.571415 207.359838,109.392636 207.408387,109.202124 C207.48625,108.896131 206.93083,108.756257 207.041364,108.372145 C206.845639,108.42865 206.640448,108.700369 206.418158,108.648804 C205.922586,108.533941 206.473731,108.070166 206.644418,107.994516 C206.445639,107.812341 206.178769,107.567176 205.959532,107.408467 C205.742433,107.250994 205.09999,107.738853 204.921364,107.865141 C204.737548,107.995134 204.827319,108.283218 204.652051,108.404566 C204.49541,108.513253 204.208693,108.374924 204.071593,108.316566 C204.019074,108.294025 203.365639,107.890152 203.633731,108.216524 C203.432815,108.097338 203.12228,107.85279 202.907013,107.794124 C202.659074,107.726502 202.464876,107.937085 202.222738,108.081899 C201.874036,108.290011 201.68625,108.680299 201.430067,108.981352 C201.105486,109.363302 200.791288,109.354348 200.336632,109.434629 C199.835257,109.523246 200.030677,109.866292 199.812357,110.179695 C199.611746,110.467471 199.119227,110.596846 199.031288,110.938348 C198.915868,111.384215 198.910983,111.710587 198.315563,111.732201 C197.932357,111.745787 197.649914,111.985394 197.273425,111.934446 C196.996479,111.897085 196.790677,111.868678 196.780601,111.560832 C196.772051,111.286952 196.06854,111.067106 195.833425,111.037464 C195.475868,110.992383 195.475868,111.411078 195.071593,111.217787 C194.713425,111.046727 194.374494,111.050124 193.985181,111.044257 C193.600448,111.038699 193.852662,110.605801 193.510067,110.501745 C193.073425,110.36959 192.689303,110.397071 192.301212,110.657674 C191.893578,110.931555 191.580601,111.365997 191.370525,111.807232 C191.211135,112.142559 190.888387,112.673338 190.860601,113.041085 C190.212967,112.719345 190.663654,112.015036 190.463654,111.484874 C190.151288,110.657983 189.388845,111.311036 188.815105,111.351485 C188.829151,111.433309 188.844418,111.514825 188.860601,111.596032 C188.363502,111.450601 187.662738,111.637408 187.136632,111.626601 C186.661822,111.61672 186.3577,111.432383 185.9177,111.207288 C185.764112,111.12886 185.503044,110.960888 185.319838,111.041169 C185.156784,111.112495 185.262433,111.378348 185.087777,111.41046 C184.822128,111.459246 184.29938,111.07606 184.286555,110.796004 C184.223349,110.848495 184.210219,111.761843 183.985486,111.382671 C183.756479,110.996706 183.26396,110.769141 183.120143,110.329141 C183.042586,110.688243 181.849609,110.53818 181.762586,110.221071 C181.716174,110.051555 181.888387,109.752973 181.753425,109.61279 C181.613578,109.467667 181.191288,109.793731 180.948235,109.646446 C180.56167,109.412088 179.692357,109.11752 179.539074,108.658994 C179.350677,108.094559 178.77541,107.476706 178.187929,108.070474 C177.976326,108.284453 177.295715,107.366166 177.186708,107.234011 C176.88625,106.870278 176.292051,106.794011 175.845944,106.519513 C175.151288,106.091864 174.531746,105.616664 173.93541,105.076313 C173.707624,104.869745 173.394341,104.900313 173.120143,104.811078 C172.824265,104.714741 172.821212,105.094531 172.503349,104.971331 C172.624265,105.780313 172.173578,105.882516 171.707013,105.365324 C171.289609,104.902474 170.764723,104.686334 170.185181,104.52639 C170.062738,104.492425 169.77541,104.45599 169.688082,104.349155 C169.553425,104.183962 169.802586,103.917801 169.510983,103.800467 C169.290219,103.711541 169.17999,103.685604 168.987624,103.507134 C168.657853,103.201141 168.440448,103.421295 168.088387,103.316313 C167.55709,103.158222 167.342738,102.579274 166.987624,102.226348 C166.629456,101.870025 166.241975,102.880636 166.017548,102.169225 C165.938158,101.918811 166.034036,101.665001 165.885944,101.430952 C165.736326,101.194124 165.6777,101.000215 165.632509,100.726952 C165.583654,100.433001 165.292662,100.253913 165.091746,100.072664 C164.794647,99.8046498 164.863044,99.3930568 164.610525,99.1021937 C165.209914,98.6507691 165.327471,98.97992 165.672815,99.3970709 C165.843196,99.602713 166.098769,99.6388393 166.235563,99.4081867 C166.405944,99.1201025 166.762891,99.1741375 166.944876,98.9237235 C167.168998,98.6149516 166.805639,98.2820954 166.626403,98.0684253 C166.484112,97.8986007 166.556479,97.4326639 166.381517,97.3795551 C165.666403,97.1609446 165.398006,96.9049726 165.139074,96.1904744 C165.704265,96.2463621 164.488387,95.279906 165.380296,95.1230498 C165.568998,95.0900112 165.919838,95.2586007 166.060906,95.0711761 C166.226708,94.850713 166.16167,94.3650147 166.040143,94.1448604 C166.160143,94.1112042 166.626708,94.1315832 166.441364,93.8898147 C166.352509,93.7737165 166.754341,93.4207902 166.868845,93.393927 C167.344876,93.2818428 167.13999,91.9559761 167.117395,91.6104604 C167.1177,91.6141656 167.312509,90.8372954 166.904876,91.1673726 C166.570525,91.4378568 166.469456,91.3344182 166.272204,91.0012533 C166.19312,90.8669375 165.760754,90.8465586 165.623349,90.7597937 C165.323807,90.5705165 165.099074,90.0999481 164.76228,89.972734 C164.385181,89.8303902 163.550372,90.0520884 163.232204,90.2605095 C162.707929,90.6035551 162.138769,91.2448744 161.496937,91.2729726 C160.788845,91.3044674 158.652357,91.1559481 158.607471,90.1209446 C158.397395,90.1755972 158.094799,90.518334 157.869761,90.3136182 C157.695105,90.1546007 157.227319,89.8745446 157.13541,89.6682849 C157.051135,89.4790077 157.072204,89.1016884 157.014799,88.881534 C156.936021,88.57832 156.788235,88.3346989 156.561059,88.1201025 C156.240754,87.8181235 155.690219,87.9870218 155.491441,87.6776323 C155.275868,87.3429235 154.57083,86.9378147 154.29938,87.4309235 C154.080448,86.8942779 153.470677,87.289506 153.262128,86.8986007 C152.986708,86.382334 153.944876,86.600327 154.083502,86.5750077 C154.657853,86.470334 154.430372,85.9318358 154.10457,85.7292814 C153.829151,85.5572954 153.959227,85.467134 153.950067,85.1969586 C153.946097,85.0762288 153.740601,84.7137305 153.685334,84.5843551 C153.607166,84.4015621 153.387624,84.3818007 153.316479,84.1780112 C153.23312,83.9390218 153.310983,83.6824323 153.261822,83.4385025 C153.17083,82.9886218 152.424876,82.8654218 152.057853,82.7842147 C151.57083,82.6758358 151.226403,83.3338288 150.855105,82.8610989 C150.734799,82.7082568 150.227929,82.009506 150.7177,82.0064182 C150.560754,81.7828674 150.347929,81.6114989 150.158006,81.4194428 C149.970219,81.2304744 150.047166,80.8991621 149.966555,80.6703621" id="path564-copy" stroke="#CAC8D2" fill="#CAC8D2" sketch:type="MSShapeGroup"></path>
    </g>
</svg>