<?xml version="1.0" encoding="UTF-8" standalone="no"?>
<svg width="278px" height="152px" viewBox="0 0 278 152" version="1.1" xmlns="http://www.w3.org/2000/svg" xmlns:xlink="http://www.w3.org/1999/xlink" xmlns:sketch="http://www.bohemiancoding.com/sketch/ns">
    <title>Untitled 6</title>
    <description>Created with Sketch (http://www.bohemiancoding.com/sketch)</description>
    <defs></defs>
    <g id="Page-1" stroke="none" stroke-width="1" fill="none" fill-rule="evenodd" sketch:type="MSPage">
        <g id="Group" sketch:type="MSLayerGroup" transform="translate(40.000000, 43.000000)" stroke="#C73F3B" fill="#C73F3B">
            <path d="M56.2584281,10.1726477 C55.8187138,10.1428642 55.4179709,10.3673306 55.1481128,10.6956763 C55.61871,11.3879627 56.4532848,10.9383034 56.2584281,10.1726477" id="path1160" sketch:type="MSShapeGroup"></path>
            <path d="M1.18630284,75.7148193 C0.952474838,75.5310329 0.294374025,75.5303065 0.0671638007,75.7220836 C-0.235783165,75.97706 0.575997054,76.7623293 0.720117456,76.9090679 C1.19144999,77.3877843 1.88043375,77.4132093 2.47676867,77.6485722 C2.93927751,77.8309058 3.00839648,78.5696836 3.40766882,78.8537172 C3.07383891,78.6859122 2.6047123,78.8544436 2.29735348,78.6445058 C1.95175864,78.4091429 1.89072806,77.8911993 1.60689911,77.599175 C0.583350136,78.3851708 2.78339218,79.19078 2.82751067,80.0051065 C2.98854316,79.7116293 4.28342085,78.6299772 4.52901378,79.3099143 C4.66136925,79.6782136 4.48195405,80.3160179 5.16726127,80.1671 C5.92683461,80.0007479 5.26138071,78.0328529 4.04738693,78.8021408 C4.44004149,78.0851558 3.81797078,77.4488043 3.30472567,77.02457 C4.13268267,75.8535672 5.84153886,78.2064693 6.33272472,78.890765 C7.06729758,79.9150293 7.75775195,81.3032343 7.02832625,82.5882865 C6.59449443,83.3532158 6.00110073,83.1578065 6.35110742,84.1835236 C6.53346385,84.7189015 6.80332195,85.1227958 7.11141607,85.5891629 C7.34524407,85.9443865 8.85409643,88.2486179 7.42980451,87.7466558 C7.98349156,88.3263458 8.33496887,88.7345986 9.17983795,88.8188643 C9.60264015,88.8609972 9.78205534,89.3542422 10.2386817,89.2634386 C10.8989885,89.131955 10.4136851,88.6125586 10.124709,88.45565 C9.47543184,88.1055115 8.9408628,86.8219122 9.43131335,86.162315 C9.99529471,85.4024708 11.1114925,86.8139215 9.87102763,86.4390843 C10.0930907,87.0601808 10.6269244,87.4815093 10.9232536,88.0597465 C11.2835546,88.7651086 11.1328165,89.4559422 11.0850214,90.2041636 C11.9034194,89.8779972 12.2806325,89.0999922 12.9894696,88.6350779 C11.5276769,87.6783715 12.5328432,87.3107986 13.7321308,87.9028379 C14.5755293,86.2814493 13.1166779,83.91983 13.2365331,82.1466179 C13.2578571,81.8291686 12.976234,80.49254 13.1299134,80.2361108 C13.6122756,79.4370393 14.5299402,78.5675043 13.2541805,77.9660215 C13.3733004,77.78732 13.4983028,77.6137036 13.6291877,77.4429929 C12.849761,77.4785879 12.7909364,76.9446629 12.3203391,76.5197022 C11.7445928,76.0003058 10.8158986,76.3860393 10.239417,75.8216043 C11.0717859,75.4257008 11.2938489,74.0512979 10.3600076,73.6270636 C9.05924741,73.0357508 7.94966738,75.05159 6.70258473,73.2805572 C5.98639457,72.2621043 6.48566882,71.781935 5.10549538,71.9490136 C4.13194736,72.066695 2.81280451,72.8250865 3.51134727,74.0433072 C2.21205773,73.9960893 2.77898033,74.0774493 1.9304347,74.9847586 C1.37748296,73.72949 1.00982887,75.0072779 1.18630284,75.7148193" id="path1358" sketch:type="MSShapeGroup"></path>
            <path d="M7.8313132,71.797361 C9.55855209,71.1987838 10.6960738,71.6128481 12.2600743,72.5368653 C11.6924164,72.0995553 11.3100561,69.3689103 12.3637528,69.2940881 C12.9519993,69.2526817 13.2336223,70.0059881 13.7593677,70.1585381 C14.1373161,70.2675024 15.8616137,69.4001467 16.1277953,69.1371796 C16.1322071,69.4052317 16.2483858,69.5657724 16.4770667,69.6180753 C16.6285401,69.4321096 16.65207,69.219266 16.5476562,68.9809974 C16.9814881,69.2860974 17.4998803,69.1814917 17.4520853,68.5625746 C18.0513615,68.9177981 18.5550475,68.2305967 19.1910891,68.4601481 C20.1131656,68.7928524 20.7499424,67.5404896 19.7241875,67.8833638 C20.7139123,67.6291138 21.5874584,67.0058381 22.5985072,66.8365803 C23.7191168,66.6484353 24.5742802,67.6857753 25.585329,67.4918188 C26.3382845,67.3472596 27.1780065,66.6418974 27.7338994,67.6095003 C28.1942024,68.4114774 27.2780084,69.3834388 26.606672,69.7132374 C27.1831536,70.1411038 27.6625745,70.7353224 27.5890437,71.4915346 C27.5059539,72.3436353 28.5339147,72.7315481 29.1464264,73.0337424 C29.8089391,73.3613617 30.0207078,74.1589803 30.7427805,74.4190417 C31.2891144,74.6159038 31.7883887,74.9413438 32.3553113,75.0851767 C33.0229711,75.2544346 33.404596,72.3356446 33.5259219,71.9099574 C33.6421006,71.5046103 33.5678345,70.5457246 33.9215177,70.246436 C34.614178,69.661661 35.6046381,70.1461888 36.3495053,69.7655403 C35.6803748,68.9207038 35.1803653,68.4114774 34.1788755,67.9516481 C32.9575287,67.3908453 33.4023901,66.844571 33.3862133,65.7709096 C33.3781249,65.2892874 33.8376926,64.3739874 34.2744656,65.2900138 C34.5288822,65.8253917 34.3891737,67.078481 35.3428684,66.8888831 C35.0083032,66.600491 34.9193309,66.2518053 35.0781574,65.842826 C35.3928693,67.2404746 37.1090786,66.0084517 37.4090843,67.098821 C37.0024589,67.2041531 36.7039238,67.4998096 36.7178947,67.9349403 C38.5142525,66.890336 40.6356166,67.5484803 42.5422707,67.8303346 C41.2973939,66.6607846 43.3577274,63.2734481 44.9320222,65.1628888 C44.7342243,65.2282674 44.537897,65.2980046 44.3430404,65.3713738 C44.7776075,65.9946496 44.6592229,67.3196553 45.5011507,67.622576 C46.4151388,67.9523746 46.5857303,66.5503674 46.5291116,65.9866588 C46.4577867,65.2696738 45.747479,64.8200146 45.6754188,64.1008503 C45.5239453,62.6022281 48.0960533,63.773231 48.5269439,64.220711 C48.9468048,63.5553024 46.7747045,62.324006 48.2107614,62.0247174 C47.4151579,61.0789074 50.3843323,60.686636 49.5622578,62.471471 C49.3519596,62.9283946 49.2681345,65.675021 50.0850619,65.883506 C50.4019797,65.9641396 52.2189262,64.2417774 52.2270146,63.849506 C52.2402501,63.2371267 51.7762707,62.8252417 51.7542114,62.2535424 C51.7196519,61.3505917 52.652758,61.0229724 53.2910055,60.6641167 C51.5711197,59.562851 50.3608024,57.9283867 49.7872621,55.9873696 C49.5776992,55.2791017 49.4872563,54.4836624 49.5034331,53.7470638 C49.5129921,53.2966781 49.5901995,53.3250088 49.9630007,53.1550246 C50.2997719,53.0010217 49.9652067,52.693016 49.9519711,52.4525681 C49.8365277,50.3393874 48.026199,48.6722338 46.9827967,46.987646 C45.7592439,45.0132131 46.7158798,43.240001 48.9526873,44.6594424 C48.1291421,43.7855488 46.5394059,40.1366981 48.210026,39.7960031 C47.6239854,39.3289096 48.0850237,38.4223267 47.6673686,37.8390046 C47.3283916,37.366826 47.3600098,36.8045703 46.9467666,36.3004288 C46.4798459,35.7301824 46.2688125,34.9805081 45.7835091,34.3906481 C45.3482067,33.8610817 44.9018746,33.6300774 44.5540738,33.0423967 C43.8070007,31.7805903 42.1165272,31.168211 41.0282712,30.2441938 C39.6083911,29.0383224 38.5730772,27.0217567 38.100274,25.2558088 C37.3002587,25.9756996 35.3972812,24.0971553 34.9038894,24.9042174 C34.1759343,26.093381 36.6862764,27.715496 37.0406949,26.0403517 C37.8605636,26.4231796 38.7355803,27.6660988 38.1510103,28.5508888 C37.632618,28.2218167 37.0752544,27.9581231 36.5120084,27.7147696 C36.7428951,28.0808896 36.7428951,28.4470096 36.5120084,28.8131296 C35.6274326,28.5966538 35.3399271,27.6486646 34.8127112,27.0348324 C34.2590241,26.3904903 33.4766562,26.6396553 32.8567915,26.1449574 C32.8398794,26.9048017 34.4215272,28.4978596 33.7296023,29.0891724 C33.3744484,29.3928196 32.0950122,29.713901 32.8303204,30.4425088 C33.3943017,31.000406 34.4752047,31.7449953 34.7171211,32.4728767 C34.9333017,33.1223038 34.9619787,34.6826724 33.8641637,33.9380831 C34.077403,34.6739553 34.4612339,34.5657174 35.0781574,34.5642646 C35.8994967,34.5620853 36.5083318,35.4788381 36.8789271,36.0825003 C37.8326218,37.6348781 38.1230686,40.3350131 37.8701226,42.1002346 C37.6737953,43.468826 39.0399979,45.8609553 37.5598225,46.6680174 C35.8649372,47.5913081 36.7171594,49.1988946 35.8619959,50.7614424 C35.1575707,52.0494003 33.600188,52.1162317 32.4678134,52.8600946 C31.7611823,53.3250088 30.8721947,55.479596 29.8265865,53.669336 C29.5427575,53.1782703 29.646436,52.5041446 28.9339224,52.3748403 C28.5074436,52.2978388 28.00964,51.467531 28.5809744,51.5685046 C29.7765855,51.7784424 29.3162826,49.8751996 29.5184924,49.5243346 C28.6853882,49.2947831 27.2662434,50.0292024 26.9993266,50.842076 C26.6324078,51.9644081 28.6397991,53.2952253 28.3809706,54.7466296 C28.1736137,55.9081888 27.6515449,56.6229946 26.9522669,57.5273981 C25.7868034,59.0354638 28.2250853,59.9122631 28.1434661,61.1871453 C27.1677121,60.3902531 27.9441976,61.7348724 26.9816792,61.3963567 C27.348598,63.0983788 23.9705922,61.1500974 25.077231,62.3378081 C24.7566367,62.1351346 24.0169166,62.1133417 23.9330915,61.6564181 C23.841178,61.1486446 24.2066261,60.3699131 23.3183739,60.6161724 C22.9360136,60.722231 22.6088015,60.9597731 22.233059,61.0709167 C21.3065707,61.3455067 20.3139047,61.0614731 19.4344761,61.5024153 C18.8168173,61.8126003 18.2513653,62.0145474 17.5616462,62.1075303 C16.9079572,62.1961546 15.5498431,61.7987981 15.0520394,62.1293231 C14.3483495,62.5971431 14.0689324,62.2637124 13.4240671,61.9034038 C12.6990533,61.4980567 11.4424116,62.2869581 10.7740165,62.5462931 C11.9519802,63.8502324 7.26880245,67.4148174 6.92173699,68.4071188 C6.55702414,69.4495438 4.38345319,68.5335174 4.41213021,69.5577817 C4.43566007,70.3742874 5.10037865,71.3135596 5.48788606,72.0138367 C5.57024057,70.9932046 6.98791473,72.0901117 7.8313132,71.797361 Z" id="path1366" sketch:type="MSShapeGroup"></path>
            <path d="M11.3675911,56.6614286 C10.9367005,56.8749986 10.8800818,57.4822929 11.4190627,57.6036064 C12.29555,57.7997421 11.8198057,56.8335921 11.3675911,56.6614286" id="path1382" sketch:type="MSShapeGroup"></path>
            <path d="M14.4561586,73.6312967 C14.0767396,74.4942939 13.0627496,74.711496 12.5002389,75.4095939 C13.1649575,75.4546324 13.5774654,74.8516967 14.1392408,74.625051 C14.2627726,74.9272453 14.5068949,75.8447246 14.9642566,75.809856 C15.5613268,75.7648174 15.7929489,76.1919574 14.9848452,76.3510453 C15.5863273,76.5479074 15.585592,78.1649374 16.394431,78.0588789 C17.1069446,77.9644432 17.2187114,78.8020153 17.7937224,79.018491 C18.3613803,79.232061 18.9533034,78.8971774 19.4327243,79.384611 C18.3282914,78.6276724 18.99301,76.5493603 19.4422833,75.6100882 C20.5930406,73.201251 22.6070497,74.9475853 24.0945781,75.8803196 C24.2482575,75.3282339 24.079872,74.7565346 24.2489928,74.2066282 C24.449732,73.5506632 25.0784204,73.1322403 25.4284271,72.5583617 C25.7607864,72.0128139 24.3482594,70.5628624 24.3085528,69.8131882 C23.0747057,70.0659853 22.2636608,69.229866 21.1180506,69.026466 C20.16215,68.8572082 19.3334577,70.1168353 18.6393268,69.7085824 C19.6121395,70.5635889 19.1283067,71.1461846 18.0584333,71.4345767 C16.5238452,71.848641 16.7135547,70.8294617 15.3091161,70.597731 C15.1841137,71.2921967 15.2164673,73.3966603 14.4561586,73.6312967" id="path1388" sketch:type="MSShapeGroup"></path>
            <path d="M23.5298614,0.27220503 C23.9901644,1.0138886 24.1011959,1.87906503 24.7842972,2.48635932 C25.802699,3.39148932 26.9990454,4.33584646 27.613763,5.57295432 C28.1534792,6.65751217 28.782903,7.87573289 29.1990874,9.0075086 C29.5976245,10.086255 28.463044,10.5228386 29.2446765,11.45412 C30.0476331,12.4115529 31.9211983,14.6765572 29.3226192,14.377995 C28.1520086,14.2436057 26.8291892,13.2730972 25.7093149,13.3036072 C25.0159193,13.3224943 25.8041696,14.3736365 26.0284386,14.5232807 C26.6659508,14.9504207 27.2997864,15.1698022 27.1630191,16.0880079 C26.9144849,17.73918 25.0541553,16.7977286 25.8262289,18.974835 C26.4122695,20.62746 28.1483321,20.5453736 29.1851166,21.7367165 C29.8417468,22.4900229 29.493946,23.60727 30.0718982,24.4521065 C30.9910334,25.7952729 31.3079513,24.9024922 32.376354,24.4884279 C31.6491343,23.9239929 32.3778247,23.2331593 33.0271018,23.1111193 C33.2021051,23.07843 35.4396479,23.6799129 34.8808137,22.7566222 C34.4822766,22.0984779 32.991807,21.730905 32.3520889,21.28851 C31.4167769,20.6419886 30.1601352,20.7451415 29.1917344,20.0826386 C28.6498122,19.7114336 28.277011,18.9094565 28.6343708,18.2803693 C28.9865834,17.6599993 30.0226326,18.2309722 30.4461701,18.4467215 C30.9998571,18.7285757 31.4733956,19.2472457 32.0359064,19.4695329 C32.631506,19.7048957 33.3734319,18.3384836 33.924913,18.0268457 C35.7433301,16.9989493 38.1992594,19.3075393 39.830173,19.8886822 C41.0103426,20.3085579 43.4545069,21.8660207 44.707472,21.7185557 C45.4729279,21.6284786 45.0685084,20.8424829 44.8537984,20.4378622 C44.3390827,19.4688065 44.2243746,18.7423779 44.6530592,17.6767072 C45.5552824,15.4334957 46.9582504,15.3659379 49.1560865,15.9114857 C48.1759207,14.68818 51.4546598,16.0713 50.376698,14.6554907 C50.8921491,14.4382886 51.4517186,14.286465 52.0164353,14.3939765 C51.9473163,13.9334207 52.2215862,13.5600365 52.648065,13.4009486 C51.9473163,12.6040565 51.9833464,13.6515665 51.4818662,13.8912879 C51.1767133,14.0365736 50.6303794,13.391505 50.5259656,13.299975 C50.2855198,13.0885843 48.341365,11.2877679 49.7877162,11.9364686 C48.761226,11.4780922 47.5839976,11.255805 47.3692876,9.96930003 C47.2295791,9.12882217 47.4648777,7.5328586 46.4567702,7.12387932 C46.3067673,7.94910217 46.0795571,9.38307217 45.1207152,9.68526646 C43.9684873,10.0484807 42.1838944,8.27890074 41.5302054,9.0075086 C41.328731,8.37406289 40.8566632,8.4176486 40.3117998,8.51135789 C39.5529618,8.6413886 39.4073708,8.08276503 38.777947,7.84377003 C36.8183507,7.09845432 35.0315518,6.45338574 33.206517,5.35357289 C31.102065,4.08595503 29.143204,2.60622003 27.0446345,1.32770574 C26.3593273,0.910009316 25.5078404,0.17050503 24.6997367,0.0106907442 C24.118108,-0.10408497 24.1651677,0.753827173 23.5298614,0.27220503" id="path1402" sketch:type="MSShapeGroup"></path>
        </g>
        <g id="Group" sketch:type="MSLayerGroup" transform="translate(179.000000, 43.000000)" stroke="#CAC8D2" fill="#CAC8D2">
            <path d="M56.2584281,10.1726477 C55.8187138,10.1428642 55.4179709,10.3673306 55.1481128,10.6956763 C55.61871,11.3879627 56.4532848,10.9383034 56.2584281,10.1726477" id="path1160" sketch:type="MSShapeGroup"></path>
            <path d="M1.18630284,75.7148193 C0.952474838,75.5310329 0.294374025,75.5303065 0.0671638007,75.7220836 C-0.235783165,75.97706 0.575997054,76.7623293 0.720117456,76.9090679 C1.19144999,77.3877843 1.88043375,77.4132093 2.47676867,77.6485722 C2.93927751,77.8309058 3.00839648,78.5696836 3.40766882,78.8537172 C3.07383891,78.6859122 2.6047123,78.8544436 2.29735348,78.6445058 C1.95175864,78.4091429 1.89072806,77.8911993 1.60689911,77.599175 C0.583350136,78.3851708 2.78339218,79.19078 2.82751067,80.0051065 C2.98854316,79.7116293 4.28342085,78.6299772 4.52901378,79.3099143 C4.66136925,79.6782136 4.48195405,80.3160179 5.16726127,80.1671 C5.92683461,80.0007479 5.26138071,78.0328529 4.04738693,78.8021408 C4.44004149,78.0851558 3.81797078,77.4488043 3.30472567,77.02457 C4.13268267,75.8535672 5.84153886,78.2064693 6.33272472,78.890765 C7.06729758,79.9150293 7.75775195,81.3032343 7.02832625,82.5882865 C6.59449443,83.3532158 6.00110073,83.1578065 6.35110742,84.1835236 C6.53346385,84.7189015 6.80332195,85.1227958 7.11141607,85.5891629 C7.34524407,85.9443865 8.85409643,88.2486179 7.42980451,87.7466558 C7.98349156,88.3263458 8.33496887,88.7345986 9.17983795,88.8188643 C9.60264015,88.8609972 9.78205534,89.3542422 10.2386817,89.2634386 C10.8989885,89.131955 10.4136851,88.6125586 10.124709,88.45565 C9.47543184,88.1055115 8.9408628,86.8219122 9.43131335,86.162315 C9.99529471,85.4024708 11.1114925,86.8139215 9.87102763,86.4390843 C10.0930907,87.0601808 10.6269244,87.4815093 10.9232536,88.0597465 C11.2835546,88.7651086 11.1328165,89.4559422 11.0850214,90.2041636 C11.9034194,89.8779972 12.2806325,89.0999922 12.9894696,88.6350779 C11.5276769,87.6783715 12.5328432,87.3107986 13.7321308,87.9028379 C14.5755293,86.2814493 13.1166779,83.91983 13.2365331,82.1466179 C13.2578571,81.8291686 12.976234,80.49254 13.1299134,80.2361108 C13.6122756,79.4370393 14.5299402,78.5675043 13.2541805,77.9660215 C13.3733004,77.78732 13.4983028,77.6137036 13.6291877,77.4429929 C12.849761,77.4785879 12.7909364,76.9446629 12.3203391,76.5197022 C11.7445928,76.0003058 10.8158986,76.3860393 10.239417,75.8216043 C11.0717859,75.4257008 11.2938489,74.0512979 10.3600076,73.6270636 C9.05924741,73.0357508 7.94966738,75.05159 6.70258473,73.2805572 C5.98639457,72.2621043 6.48566882,71.781935 5.10549538,71.9490136 C4.13194736,72.066695 2.81280451,72.8250865 3.51134727,74.0433072 C2.21205773,73.9960893 2.77898033,74.0774493 1.9304347,74.9847586 C1.37748296,73.72949 1.00982887,75.0072779 1.18630284,75.7148193" id="path1358" sketch:type="MSShapeGroup"></path>
            <path d="M7.8313132,71.797361 C9.55855209,71.1987838 10.6960738,71.6128481 12.2600743,72.5368653 C11.6924164,72.0995553 11.3100561,69.3689103 12.3637528,69.2940881 C12.9519993,69.2526817 13.2336223,70.0059881 13.7593677,70.1585381 C14.1373161,70.2675024 15.8616137,69.4001467 16.1277953,69.1371796 C16.1322071,69.4052317 16.2483858,69.5657724 16.4770667,69.6180753 C16.6285401,69.4321096 16.65207,69.219266 16.5476562,68.9809974 C16.9814881,69.2860974 17.4998803,69.1814917 17.4520853,68.5625746 C18.0513615,68.9177981 18.5550475,68.2305967 19.1910891,68.4601481 C20.1131656,68.7928524 20.7499424,67.5404896 19.7241875,67.8833638 C20.7139123,67.6291138 21.5874584,67.0058381 22.5985072,66.8365803 C23.7191168,66.6484353 24.5742802,67.6857753 25.585329,67.4918188 C26.3382845,67.3472596 27.1780065,66.6418974 27.7338994,67.6095003 C28.1942024,68.4114774 27.2780084,69.3834388 26.606672,69.7132374 C27.1831536,70.1411038 27.6625745,70.7353224 27.5890437,71.4915346 C27.5059539,72.3436353 28.5339147,72.7315481 29.1464264,73.0337424 C29.8089391,73.3613617 30.0207078,74.1589803 30.7427805,74.4190417 C31.2891144,74.6159038 31.7883887,74.9413438 32.3553113,75.0851767 C33.0229711,75.2544346 33.404596,72.3356446 33.5259219,71.9099574 C33.6421006,71.5046103 33.5678345,70.5457246 33.9215177,70.246436 C34.614178,69.661661 35.6046381,70.1461888 36.3495053,69.7655403 C35.6803748,68.9207038 35.1803653,68.4114774 34.1788755,67.9516481 C32.9575287,67.3908453 33.4023901,66.844571 33.3862133,65.7709096 C33.3781249,65.2892874 33.8376926,64.3739874 34.2744656,65.2900138 C34.5288822,65.8253917 34.3891737,67.078481 35.3428684,66.8888831 C35.0083032,66.600491 34.9193309,66.2518053 35.0781574,65.842826 C35.3928693,67.2404746 37.1090786,66.0084517 37.4090843,67.098821 C37.0024589,67.2041531 36.7039238,67.4998096 36.7178947,67.9349403 C38.5142525,66.890336 40.6356166,67.5484803 42.5422707,67.8303346 C41.2973939,66.6607846 43.3577274,63.2734481 44.9320222,65.1628888 C44.7342243,65.2282674 44.537897,65.2980046 44.3430404,65.3713738 C44.7776075,65.9946496 44.6592229,67.3196553 45.5011507,67.622576 C46.4151388,67.9523746 46.5857303,66.5503674 46.5291116,65.9866588 C46.4577867,65.2696738 45.747479,64.8200146 45.6754188,64.1008503 C45.5239453,62.6022281 48.0960533,63.773231 48.5269439,64.220711 C48.9468048,63.5553024 46.7747045,62.324006 48.2107614,62.0247174 C47.4151579,61.0789074 50.3843323,60.686636 49.5622578,62.471471 C49.3519596,62.9283946 49.2681345,65.675021 50.0850619,65.883506 C50.4019797,65.9641396 52.2189262,64.2417774 52.2270146,63.849506 C52.2402501,63.2371267 51.7762707,62.8252417 51.7542114,62.2535424 C51.7196519,61.3505917 52.652758,61.0229724 53.2910055,60.6641167 C51.5711197,59.562851 50.3608024,57.9283867 49.7872621,55.9873696 C49.5776992,55.2791017 49.4872563,54.4836624 49.5034331,53.7470638 C49.5129921,53.2966781 49.5901995,53.3250088 49.9630007,53.1550246 C50.2997719,53.0010217 49.9652067,52.693016 49.9519711,52.4525681 C49.8365277,50.3393874 48.026199,48.6722338 46.9827967,46.987646 C45.7592439,45.0132131 46.7158798,43.240001 48.9526873,44.6594424 C48.1291421,43.7855488 46.5394059,40.1366981 48.210026,39.7960031 C47.6239854,39.3289096 48.0850237,38.4223267 47.6673686,37.8390046 C47.3283916,37.366826 47.3600098,36.8045703 46.9467666,36.3004288 C46.4798459,35.7301824 46.2688125,34.9805081 45.7835091,34.3906481 C45.3482067,33.8610817 44.9018746,33.6300774 44.5540738,33.0423967 C43.8070007,31.7805903 42.1165272,31.168211 41.0282712,30.2441938 C39.6083911,29.0383224 38.5730772,27.0217567 38.100274,25.2558088 C37.3002587,25.9756996 35.3972812,24.0971553 34.9038894,24.9042174 C34.1759343,26.093381 36.6862764,27.715496 37.0406949,26.0403517 C37.8605636,26.4231796 38.7355803,27.6660988 38.1510103,28.5508888 C37.632618,28.2218167 37.0752544,27.9581231 36.5120084,27.7147696 C36.7428951,28.0808896 36.7428951,28.4470096 36.5120084,28.8131296 C35.6274326,28.5966538 35.3399271,27.6486646 34.8127112,27.0348324 C34.2590241,26.3904903 33.4766562,26.6396553 32.8567915,26.1449574 C32.8398794,26.9048017 34.4215272,28.4978596 33.7296023,29.0891724 C33.3744484,29.3928196 32.0950122,29.713901 32.8303204,30.4425088 C33.3943017,31.000406 34.4752047,31.7449953 34.7171211,32.4728767 C34.9333017,33.1223038 34.9619787,34.6826724 33.8641637,33.9380831 C34.077403,34.6739553 34.4612339,34.5657174 35.0781574,34.5642646 C35.8994967,34.5620853 36.5083318,35.4788381 36.8789271,36.0825003 C37.8326218,37.6348781 38.1230686,40.3350131 37.8701226,42.1002346 C37.6737953,43.468826 39.0399979,45.8609553 37.5598225,46.6680174 C35.8649372,47.5913081 36.7171594,49.1988946 35.8619959,50.7614424 C35.1575707,52.0494003 33.600188,52.1162317 32.4678134,52.8600946 C31.7611823,53.3250088 30.8721947,55.479596 29.8265865,53.669336 C29.5427575,53.1782703 29.646436,52.5041446 28.9339224,52.3748403 C28.5074436,52.2978388 28.00964,51.467531 28.5809744,51.5685046 C29.7765855,51.7784424 29.3162826,49.8751996 29.5184924,49.5243346 C28.6853882,49.2947831 27.2662434,50.0292024 26.9993266,50.842076 C26.6324078,51.9644081 28.6397991,53.2952253 28.3809706,54.7466296 C28.1736137,55.9081888 27.6515449,56.6229946 26.9522669,57.5273981 C25.7868034,59.0354638 28.2250853,59.9122631 28.1434661,61.1871453 C27.1677121,60.3902531 27.9441976,61.7348724 26.9816792,61.3963567 C27.348598,63.0983788 23.9705922,61.1500974 25.077231,62.3378081 C24.7566367,62.1351346 24.0169166,62.1133417 23.9330915,61.6564181 C23.841178,61.1486446 24.2066261,60.3699131 23.3183739,60.6161724 C22.9360136,60.722231 22.6088015,60.9597731 22.233059,61.0709167 C21.3065707,61.3455067 20.3139047,61.0614731 19.4344761,61.5024153 C18.8168173,61.8126003 18.2513653,62.0145474 17.5616462,62.1075303 C16.9079572,62.1961546 15.5498431,61.7987981 15.0520394,62.1293231 C14.3483495,62.5971431 14.0689324,62.2637124 13.4240671,61.9034038 C12.6990533,61.4980567 11.4424116,62.2869581 10.7740165,62.5462931 C11.9519802,63.8502324 7.26880245,67.4148174 6.92173699,68.4071188 C6.55702414,69.4495438 4.38345319,68.5335174 4.41213021,69.5577817 C4.43566007,70.3742874 5.10037865,71.3135596 5.48788606,72.0138367 C5.57024057,70.9932046 6.98791473,72.0901117 7.8313132,71.797361 Z" id="path1366" sketch:type="MSShapeGroup"></path>
            <path d="M11.3675911,56.6614286 C10.9367005,56.8749986 10.8800818,57.4822929 11.4190627,57.6036064 C12.29555,57.7997421 11.8198057,56.8335921 11.3675911,56.6614286" id="path1382" sketch:type="MSShapeGroup"></path>
            <path d="M14.4561586,73.6312967 C14.0767396,74.4942939 13.0627496,74.711496 12.5002389,75.4095939 C13.1649575,75.4546324 13.5774654,74.8516967 14.1392408,74.625051 C14.2627726,74.9272453 14.5068949,75.8447246 14.9642566,75.809856 C15.5613268,75.7648174 15.7929489,76.1919574 14.9848452,76.3510453 C15.5863273,76.5479074 15.585592,78.1649374 16.394431,78.0588789 C17.1069446,77.9644432 17.2187114,78.8020153 17.7937224,79.018491 C18.3613803,79.232061 18.9533034,78.8971774 19.4327243,79.384611 C18.3282914,78.6276724 18.99301,76.5493603 19.4422833,75.6100882 C20.5930406,73.201251 22.6070497,74.9475853 24.0945781,75.8803196 C24.2482575,75.3282339 24.079872,74.7565346 24.2489928,74.2066282 C24.449732,73.5506632 25.0784204,73.1322403 25.4284271,72.5583617 C25.7607864,72.0128139 24.3482594,70.5628624 24.3085528,69.8131882 C23.0747057,70.0659853 22.2636608,69.229866 21.1180506,69.026466 C20.16215,68.8572082 19.3334577,70.1168353 18.6393268,69.7085824 C19.6121395,70.5635889 19.1283067,71.1461846 18.0584333,71.4345767 C16.5238452,71.848641 16.7135547,70.8294617 15.3091161,70.597731 C15.1841137,71.2921967 15.2164673,73.3966603 14.4561586,73.6312967" id="path1388" sketch:type="MSShapeGroup"></path>
            <path d="M23.5298614,0.27220503 C23.9901644,1.0138886 24.1011959,1.87906503 24.7842972,2.48635932 C25.802699,3.39148932 26.9990454,4.33584646 27.613763,5.57295432 C28.1534792,6.65751217 28.782903,7.87573289 29.1990874,9.0075086 C29.5976245,10.086255 28.463044,10.5228386 29.2446765,11.45412 C30.0476331,12.4115529 31.9211983,14.6765572 29.3226192,14.377995 C28.1520086,14.2436057 26.8291892,13.2730972 25.7093149,13.3036072 C25.0159193,13.3224943 25.8041696,14.3736365 26.0284386,14.5232807 C26.6659508,14.9504207 27.2997864,15.1698022 27.1630191,16.0880079 C26.9144849,17.73918 25.0541553,16.7977286 25.8262289,18.974835 C26.4122695,20.62746 28.1483321,20.5453736 29.1851166,21.7367165 C29.8417468,22.4900229 29.493946,23.60727 30.0718982,24.4521065 C30.9910334,25.7952729 31.3079513,24.9024922 32.376354,24.4884279 C31.6491343,23.9239929 32.3778247,23.2331593 33.0271018,23.1111193 C33.2021051,23.07843 35.4396479,23.6799129 34.8808137,22.7566222 C34.4822766,22.0984779 32.991807,21.730905 32.3520889,21.28851 C31.4167769,20.6419886 30.1601352,20.7451415 29.1917344,20.0826386 C28.6498122,19.7114336 28.277011,18.9094565 28.6343708,18.2803693 C28.9865834,17.6599993 30.0226326,18.2309722 30.4461701,18.4467215 C30.9998571,18.7285757 31.4733956,19.2472457 32.0359064,19.4695329 C32.631506,19.7048957 33.3734319,18.3384836 33.924913,18.0268457 C35.7433301,16.9989493 38.1992594,19.3075393 39.830173,19.8886822 C41.0103426,20.3085579 43.4545069,21.8660207 44.707472,21.7185557 C45.4729279,21.6284786 45.0685084,20.8424829 44.8537984,20.4378622 C44.3390827,19.4688065 44.2243746,18.7423779 44.6530592,17.6767072 C45.5552824,15.4334957 46.9582504,15.3659379 49.1560865,15.9114857 C48.1759207,14.68818 51.4546598,16.0713 50.376698,14.6554907 C50.8921491,14.4382886 51.4517186,14.286465 52.0164353,14.3939765 C51.9473163,13.9334207 52.2215862,13.5600365 52.648065,13.4009486 C51.9473163,12.6040565 51.9833464,13.6515665 51.4818662,13.8912879 C51.1767133,14.0365736 50.6303794,13.391505 50.5259656,13.299975 C50.2855198,13.0885843 48.341365,11.2877679 49.7877162,11.9364686 C48.761226,11.4780922 47.5839976,11.255805 47.3692876,9.96930003 C47.2295791,9.12882217 47.4648777,7.5328586 46.4567702,7.12387932 C46.3067673,7.94910217 46.0795571,9.38307217 45.1207152,9.68526646 C43.9684873,10.0484807 42.1838944,8.27890074 41.5302054,9.0075086 C41.328731,8.37406289 40.8566632,8.4176486 40.3117998,8.51135789 C39.5529618,8.6413886 39.4073708,8.08276503 38.777947,7.84377003 C36.8183507,7.09845432 35.0315518,6.45338574 33.206517,5.35357289 C31.102065,4.08595503 29.143204,2.60622003 27.0446345,1.32770574 C26.3593273,0.910009316 25.5078404,0.17050503 24.6997367,0.0106907442 C24.118108,-0.10408497 24.1651677,0.753827173 23.5298614,0.27220503" id="path1402" sketch:type="MSShapeGroup"></path>
        </g>
    </g>
</svg>