<?xml version="1.0" encoding="UTF-8" standalone="no"?>
<svg width="278px" height="152px" viewBox="0 0 278 152" version="1.1" xmlns="http://www.w3.org/2000/svg" xmlns:xlink="http://www.w3.org/1999/xlink" xmlns:sketch="http://www.bohemiancoding.com/sketch/ns">
    <title>Untitled 6</title>
    <description>Created with Sketch (http://www.bohemiancoding.com/sketch)</description>
    <defs></defs>
    <g id="Page-1" stroke="none" stroke-width="1" fill="none" fill-rule="evenodd" sketch:type="MSPage">
        <g id="tz" sketch:type="MSLayerGroup" transform="translate(27.541806, 42.008000)" fill="#C73F3B">
            <path d="M72.0949005,42.510357 C72.3712876,44.2590624 72.6231724,44.883114 74.0178493,46.0845591 C74.9852043,46.9176 75.2655119,42.6940731 73.7110792,43.9781419 C73.9649241,42.9040344 73.6365919,41.1426925 73.0749967,40.1959226 C72.8427139,40.950228 71.8616376,41.6423226 72.0949005,42.510357" id="path4894" sketch:type="MSShapeGroup"></path>
            <path d="M75.2694323,59.0934108 C76.0270467,58.4158968 77.2854903,57.9736172 76.8179843,56.7119054 C76.3877221,57.7267183 75.1018358,57.7772645 75.2694323,59.0934108" id="path4896" sketch:type="MSShapeGroup"></path>
            <path d="M75.7594804,33.8980559 C75.8751317,34.7894194 76.6484277,35.5369204 75.613446,35.6477333 C75.8594502,35.799372 76.0976136,35.9607312 76.3279362,36.1337548 C74.8705331,36.9551312 76.1779815,38.2100387 76.7885815,36.8861161 C77.5118925,35.3162667 77.3090126,33.7901591 75.8290672,33.199157 C75.8055449,33.4314753 75.7820226,33.6647656 75.7594804,33.8980559" id="path4898" sketch:type="MSShapeGroup"></path>
            <path d="M1.53032229,37.2741363 C2.0955438,33.15733 2.25314328,36.0219991 0.50004511,32.3273413 C0.166028306,31.6234169 0.938442165,30.3642324 0.563261318,29.187934 C2.27842977,29.0080963 2.56099152,28.8644089 3.67242067,27.6021333 C4.56185802,26.591996 6.00887213,25.2112089 6.9086005,24.1180104 C7.5602665,23.3262814 6.18068301,22.554314 6.46099054,21.9740043 C6.79814365,21.2760774 8.20448377,21.8396582 7.95749951,21.0124496 C7.79480353,20.4651894 9.19036259,19.6770667 9.48439147,19.3961462 C10.3253141,18.5932387 9.11489518,17.6493849 9.84800718,16.8873032 C7.59574598,17.5162151 6.18244718,16.1718796 7.44677135,14.1655828 C6.22165103,14.282228 7.08315564,13.3908645 7.53203973,12.6841892 C8.10245575,11.7869935 9.20751428,12.1419253 9.68580125,11.2262608 C10.5767087,9.51935329 9.20663219,6.45742753 8.43323823,4.81590933 C7.89232311,3.66770297 6.0065199,1.03968748 7.79980202,0.457783656 C10.0085469,-0.258913376 14.9316684,0.29652172 17.3051676,0.366197763 C18.2925165,4.04373781 16.5749958,4.12072361 16.7044666,4.54757686 C17.1511944,6.02018314 15.8582514,7.76995776 15.9080403,8.13103286 C16.6815323,9.16165118 15.8351212,10.1476916 15.9953669,10.6801768 C16.5319696,12.4626898 16.9774234,11.0487852 17.1945147,15.397171 C17.3089899,14.4760631 17.9910389,13.9818375 18.5465575,14.9842569 C18.3263298,13.1990221 18.5678256,13.027719 19.6860174,13.1701233 C18.8420565,12.7145656 19.3964969,11.6876313 20.7160005,10.9578409 C20.9730798,11.2139936 22.2597501,13.9444916 23.6132631,12.1999855 C23.4374338,12.6179348 24.4260569,12.7632941 24.5942414,13.3180002 C24.925808,14.4118499 24.9151249,16.3834156 23.9500241,15.9498358 L24.5180879,16.6852155 C24.9981391,16.1314426 24.1379086,15.9328056 26.0406675,15.7797671 C24.8965031,15.9855584 23.1694755,9.57389462 29.1152294,13.244329 C29.375543,11.6719425 33.3981521,9.88882684 32.1797944,9.76620361 C30.7044555,9.6177046 30.8873415,10.2325218 30.0727835,10.1245667 C27.6158782,9.79889342 27.7294713,9.32393376 27.594218,9.43045996 C28.1763952,8.76978176 27.6331279,8.77091905 30.1951975,8.59227699 C29.9692853,7.66370374 27.6624327,8.16919527 28.2095225,8.01500981 C28.4606231,7.78914589 27.4250534,7.39990099 30.2548853,7.0232246 C30.5658699,6.98182529 30.9964262,6.48331303 30.8650933,5.91926563 C30.7854115,5.57697041 31.2061668,5.85901841 31.3424982,5.68265092 C30.2272466,4.51662701 31.0130878,4.37744017 31.2787919,4.22714288 C31.5396935,4.07962563 31.8200011,4.37509755 33.0681536,4.6202954 C32.8218555,4.64829024 32.1189304,3.57272465 32.6867002,2.94544585 C33.0327722,2.49411656 32.6899345,3.43901041 33.0117001,3.01958357 C32.6246601,2.74078219 32.7582472,2.09261419 33.0469836,1.75291432 C33.3381702,1.38610417 33.7507907,0.984699011 34.0398211,0.616596043 L56.4256116,14.5370393 C58.3211178,15.7297361 60.6825617,16.5876515 61.2470971,18.8768128 C61.4882008,19.8585763 60.706182,19.8238452 60.5003618,20.6656344 C60.3484469,21.2867699 61.4314532,21.9885849 61.7872282,22.5057118 C63.0113684,24.2874667 65.4420071,25.4782194 67.0425043,26.9110108 C67.9951578,27.7644645 72.5093832,30.6496631 72.3408066,31.8938782 C72.0712802,33.8904545 71.3402264,36.1347269 70.5061645,37.9738323 C70.0817828,38.9099097 69.6270181,39.8372387 69.3231883,40.8209462 C69.1732335,41.2855828 69.0781642,41.7599398 69.0399405,42.2459613 C68.9977963,42.9108387 69.6162371,43.5183656 69.5103867,44.1083957 C69.0585623,46.6269591 73.1632054,46.8213677 72.6525753,49.5080946 C74.8705331,48.8111398 74.574544,51.415243 73.7424423,52.4592172 C72.4173521,54.1194667 73.1935884,56.0820215 72.2987605,57.6926968 C73.8365315,56.3046194 73.739502,59.1838108 73.3807868,59.9206194 C72.853495,61.0025032 72.4340138,62.3108731 72.5927894,63.5268989 C72.7398038,64.6525247 74.3991068,66.5480086 73.1514442,66.7910194 C74.0982172,66.9698753 73.5444628,68.7146925 74.2775748,68.6427613 C75.4723122,68.5270882 74.859752,69.8364301 74.6000265,70.4070194 C74.1217395,71.4626581 75.3645016,71.8505032 75.5811029,72.8147699 C75.7016547,73.3513376 75.2909944,73.6691957 75.5811029,74.2096516 C75.9613802,74.9172989 76.1338772,75.3459699 75.4046855,75.9573849 C76.6454874,75.7289548 77.1335753,76.7768172 77.374679,77.7751054 C77.2663784,76.0312311 81.5745875,78.5456828 80.1975522,80.4740508 C77.232467,82.7454918 74.6221767,84.0782697 71.8832977,85.7514765 C70.8885,86.0965517 70.7473661,85.473375 69.7437476,85.8145621 C68.689164,86.1722739 67.0944494,87.4284645 66.0232042,87.777428 C64.9647002,88.1215312 63.6848905,86.0701705 62.4870169,86.6654108 C61.103121,87.3531215 60.5106528,89.4376677 59.036294,90.084261 C56.5747822,91.1637536 56.094241,90.3378767 55.3143785,89.674331 C53.7873885,88.3750108 53.2303018,90.7621735 51.5498287,90.5686106 C49.618255,90.3461294 48.9620806,90.6068119 47.9002443,89.279215 C47.0739252,88.2460499 46.1239179,87.768213 44.9174194,88.8748645 C44.0653237,89.6563871 41.1116076,89.5170933 39.5929484,89.2049023 C39.4514225,89.0687677 39.3771313,88.2885865 39.1820921,88.0008618 C38.6461755,87.2103867 38.1026141,86.4151 37.6586305,85.5392892 C37.0401897,84.3213193 37.4636893,82.9972606 37.2069041,81.7054155 C36.8628903,79.9810112 37.1583893,78.3855484 36.7232266,76.6893333 C36.269442,74.9211871 35.1579149,73.2834113 33.7419698,72.1907183 C32.3627784,71.1264381 32.0933499,73.191213 32.2206644,73.5078366 C30.8132462,72.0050581 29.4901162,73.4086882 28.1689465,71.9739527 C27.7543658,71.5229247 26.1903282,71.4066392 25.5854128,71.0582882 C24.559252,70.4673638 23.6369814,69.9832378 22.0984263,69.7596387 C21.8546764,69.7242175 21.6440537,69.3498351 21.5293824,69.1350136 C21.0412945,68.5372071 20.6432774,68.6806224 20.0189561,68.3705406 C19.4338386,68.0808718 18.6561322,68.1790968 18.0778754,67.8748473 C17.5447031,67.5939269 17.4192508,66.9348817 16.9301827,66.6957591 C16.5293234,66.4994065 16.0636796,66.9753576 15.640278,66.8528802 C14.9502903,66.6526393 14.8542408,65.9248902 14.4886649,65.4191167 C13.7704504,64.4256207 12.8585688,64.2426239 11.8811189,64.3104142 C11.4212577,63.2857448 8.99208912,58.3681014 7.8697809,55.4049352 C6.83411318,52.6705296 7.60868325,47.590176 3.74818211,46.1411709 C3.16571091,45.922539 3.64027351,46.5804372 2.97067175,46.2738451 C1.55492271,45.6256479 0.13613537,44.0442992 2.64812207,41.5930983 C3.61694722,40.6477962 1.97303177,38.8488557 1.53032229,37.243167" id="path5432" sketch:type="MSShapeGroup"></path>
        </g>
        <g id="tz" sketch:type="MSLayerGroup" transform="translate(167.993311, 42.008000)" fill="#CAC8D2">
            <path d="M72.0949005,42.510357 C72.3712876,44.2590624 72.6231724,44.883114 74.0178493,46.0845591 C74.9852043,46.9176 75.2655119,42.6940731 73.7110792,43.9781419 C73.9649241,42.9040344 73.6365919,41.1426925 73.0749967,40.1959226 C72.8427139,40.950228 71.8616376,41.6423226 72.0949005,42.510357" id="path4894" sketch:type="MSShapeGroup"></path>
            <path d="M75.2694323,59.0934108 C76.0270467,58.4158968 77.2854903,57.9736172 76.8179843,56.7119054 C76.3877221,57.7267183 75.1018358,57.7772645 75.2694323,59.0934108" id="path4896" sketch:type="MSShapeGroup"></path>
            <path d="M75.7594804,33.8980559 C75.8751317,34.7894194 76.6484277,35.5369204 75.613446,35.6477333 C75.8594502,35.799372 76.0976136,35.9607312 76.3279362,36.1337548 C74.8705331,36.9551312 76.1779815,38.2100387 76.7885815,36.8861161 C77.5118925,35.3162667 77.3090126,33.7901591 75.8290672,33.199157 C75.8055449,33.4314753 75.7820226,33.6647656 75.7594804,33.8980559" id="path4898" sketch:type="MSShapeGroup"></path>
            <path d="M1.53032229,37.2741363 C2.0955438,33.15733 2.25314328,36.0219991 0.50004511,32.3273413 C0.166028306,31.6234169 0.938442165,30.3642324 0.563261318,29.187934 C2.27842977,29.0080963 2.56099152,28.8644089 3.67242067,27.6021333 C4.56185802,26.591996 6.00887213,25.2112089 6.9086005,24.1180104 C7.5602665,23.3262814 6.18068301,22.554314 6.46099054,21.9740043 C6.79814365,21.2760774 8.20448377,21.8396582 7.95749951,21.0124496 C7.79480353,20.4651894 9.19036259,19.6770667 9.48439147,19.3961462 C10.3253141,18.5932387 9.11489518,17.6493849 9.84800718,16.8873032 C7.59574598,17.5162151 6.18244718,16.1718796 7.44677135,14.1655828 C6.22165103,14.282228 7.08315564,13.3908645 7.53203973,12.6841892 C8.10245575,11.7869935 9.20751428,12.1419253 9.68580125,11.2262608 C10.5767087,9.51935329 9.20663219,6.45742753 8.43323823,4.81590933 C7.89232311,3.66770297 6.0065199,1.03968748 7.79980202,0.457783656 C10.0085469,-0.258913376 14.9316684,0.29652172 17.3051676,0.366197763 C18.2925165,4.04373781 16.5749958,4.12072361 16.7044666,4.54757686 C17.1511944,6.02018314 15.8582514,7.76995776 15.9080403,8.13103286 C16.6815323,9.16165118 15.8351212,10.1476916 15.9953669,10.6801768 C16.5319696,12.4626898 16.9774234,11.0487852 17.1945147,15.397171 C17.3089899,14.4760631 17.9910389,13.9818375 18.5465575,14.9842569 C18.3263298,13.1990221 18.5678256,13.027719 19.6860174,13.1701233 C18.8420565,12.7145656 19.3964969,11.6876313 20.7160005,10.9578409 C20.9730798,11.2139936 22.2597501,13.9444916 23.6132631,12.1999855 C23.4374338,12.6179348 24.4260569,12.7632941 24.5942414,13.3180002 C24.925808,14.4118499 24.9151249,16.3834156 23.9500241,15.9498358 L24.5180879,16.6852155 C24.9981391,16.1314426 24.1379086,15.9328056 26.0406675,15.7797671 C24.8965031,15.9855584 23.1694755,9.57389462 29.1152294,13.244329 C29.375543,11.6719425 33.3981521,9.88882684 32.1797944,9.76620361 C30.7044555,9.6177046 30.8873415,10.2325218 30.0727835,10.1245667 C27.6158782,9.79889342 27.7294713,9.32393376 27.594218,9.43045996 C28.1763952,8.76978176 27.6331279,8.77091905 30.1951975,8.59227699 C29.9692853,7.66370374 27.6624327,8.16919527 28.2095225,8.01500981 C28.4606231,7.78914589 27.4250534,7.39990099 30.2548853,7.0232246 C30.5658699,6.98182529 30.9964262,6.48331303 30.8650933,5.91926563 C30.7854115,5.57697041 31.2061668,5.85901841 31.3424982,5.68265092 C30.2272466,4.51662701 31.0130878,4.37744017 31.2787919,4.22714288 C31.5396935,4.07962563 31.8200011,4.37509755 33.0681536,4.6202954 C32.8218555,4.64829024 32.1189304,3.57272465 32.6867002,2.94544585 C33.0327722,2.49411656 32.6899345,3.43901041 33.0117001,3.01958357 C32.6246601,2.74078219 32.7582472,2.09261419 33.0469836,1.75291432 C33.3381702,1.38610417 33.7507907,0.984699011 34.0398211,0.616596043 L56.4256116,14.5370393 C58.3211178,15.7297361 60.6825617,16.5876515 61.2470971,18.8768128 C61.4882008,19.8585763 60.706182,19.8238452 60.5003618,20.6656344 C60.3484469,21.2867699 61.4314532,21.9885849 61.7872282,22.5057118 C63.0113684,24.2874667 65.4420071,25.4782194 67.0425043,26.9110108 C67.9951578,27.7644645 72.5093832,30.6496631 72.3408066,31.8938782 C72.0712802,33.8904545 71.3402264,36.1347269 70.5061645,37.9738323 C70.0817828,38.9099097 69.6270181,39.8372387 69.3231883,40.8209462 C69.1732335,41.2855828 69.0781642,41.7599398 69.0399405,42.2459613 C68.9977963,42.9108387 69.6162371,43.5183656 69.5103867,44.1083957 C69.0585623,46.6269591 73.1632054,46.8213677 72.6525753,49.5080946 C74.8705331,48.8111398 74.574544,51.415243 73.7424423,52.4592172 C72.4173521,54.1194667 73.1935884,56.0820215 72.2987605,57.6926968 C73.8365315,56.3046194 73.739502,59.1838108 73.3807868,59.9206194 C72.853495,61.0025032 72.4340138,62.3108731 72.5927894,63.5268989 C72.7398038,64.6525247 74.3991068,66.5480086 73.1514442,66.7910194 C74.0982172,66.9698753 73.5444628,68.7146925 74.2775748,68.6427613 C75.4723122,68.5270882 74.859752,69.8364301 74.6000265,70.4070194 C74.1217395,71.4626581 75.3645016,71.8505032 75.5811029,72.8147699 C75.7016547,73.3513376 75.2909944,73.6691957 75.5811029,74.2096516 C75.9613802,74.9172989 76.1338772,75.3459699 75.4046855,75.9573849 C76.6454874,75.7289548 77.1335753,76.7768172 77.374679,77.7751054 C77.2663784,76.0312311 81.5745875,78.5456828 80.1975522,80.4740508 C77.232467,82.7454918 74.6221767,84.0782697 71.8832977,85.7514765 C70.8885,86.0965517 70.7473661,85.473375 69.7437476,85.8145621 C68.689164,86.1722739 67.0944494,87.4284645 66.0232042,87.777428 C64.9647002,88.1215312 63.6848905,86.0701705 62.4870169,86.6654108 C61.103121,87.3531215 60.5106528,89.4376677 59.036294,90.084261 C56.5747822,91.1637536 56.094241,90.3378767 55.3143785,89.674331 C53.7873885,88.3750108 53.2303018,90.7621735 51.5498287,90.5686106 C49.618255,90.3461294 48.9620806,90.6068119 47.9002443,89.279215 C47.0739252,88.2460499 46.1239179,87.768213 44.9174194,88.8748645 C44.0653237,89.6563871 41.1116076,89.5170933 39.5929484,89.2049023 C39.4514225,89.0687677 39.3771313,88.2885865 39.1820921,88.0008618 C38.6461755,87.2103867 38.1026141,86.4151 37.6586305,85.5392892 C37.0401897,84.3213193 37.4636893,82.9972606 37.2069041,81.7054155 C36.8628903,79.9810112 37.1583893,78.3855484 36.7232266,76.6893333 C36.269442,74.9211871 35.1579149,73.2834113 33.7419698,72.1907183 C32.3627784,71.1264381 32.0933499,73.191213 32.2206644,73.5078366 C30.8132462,72.0050581 29.4901162,73.4086882 28.1689465,71.9739527 C27.7543658,71.5229247 26.1903282,71.4066392 25.5854128,71.0582882 C24.559252,70.4673638 23.6369814,69.9832378 22.0984263,69.7596387 C21.8546764,69.7242175 21.6440537,69.3498351 21.5293824,69.1350136 C21.0412945,68.5372071 20.6432774,68.6806224 20.0189561,68.3705406 C19.4338386,68.0808718 18.6561322,68.1790968 18.0778754,67.8748473 C17.5447031,67.5939269 17.4192508,66.9348817 16.9301827,66.6957591 C16.5293234,66.4994065 16.0636796,66.9753576 15.640278,66.8528802 C14.9502903,66.6526393 14.8542408,65.9248902 14.4886649,65.4191167 C13.7704504,64.4256207 12.8585688,64.2426239 11.8811189,64.3104142 C11.4212577,63.2857448 8.99208912,58.3681014 7.8697809,55.4049352 C6.83411318,52.6705296 7.60868325,47.590176 3.74818211,46.1411709 C3.16571091,45.922539 3.64027351,46.5804372 2.97067175,46.2738451 C1.55492271,45.6256479 0.13613537,44.0442992 2.64812207,41.5930983 C3.61694722,40.6477962 1.97303177,38.8488557 1.53032229,37.243167" id="path5432" sketch:type="MSShapeGroup"></path>
        </g>
    </g>
</svg>