<?xml version="1.0" encoding="UTF-8" standalone="no"?>
<svg width="278px" height="152px" viewBox="0 0 278 152" version="1.1" xmlns="http://www.w3.org/2000/svg" xmlns:xlink="http://www.w3.org/1999/xlink" xmlns:sketch="http://www.bohemiancoding.com/sketch/ns">
    <title>Untitled 6</title>
    <description>Created with Sketch (http://www.bohemiancoding.com/sketch)</description>
    <defs></defs>
    <g id="Page-1" stroke="none" stroke-width="1" fill="none" fill-rule="evenodd" sketch:type="MSPage">
        <g id="Simple_Globe" sketch:type="MSLayerGroup" transform="translate(23.000000, 47.000000)" fill="#C73F3B">
            <g id="layer1" sketch:type="MSShapeGroup">
                <g id="path3315-Clipped">
                    <path d="M29.470604,3.68852459 C29.2531259,3.68852459 29.0139,3.78156807 28.7704918,3.92526372 C29.3436721,3.75091589 29.6132195,3.68852459 29.470604,3.68852459 L29.470604,3.68852459 Z M44.8569389,6.63934426 L45,4.42622951 L42.7868852,4.57228393 L43.0789243,6.63934426 L44.8569389,6.63934426 L44.8569389,6.63934426 Z M18.9251496,43.6378814 C18.4688025,43.2045403 18.7741857,41.3255668 18.7741857,41.3255668 C18.7741857,41.3255668 11.9736863,37.7191146 4.57041129,35.5506657 C3.65750125,35.2836422 4.11881562,33.3857045 5.02200696,32.6668118 L4.72245498,30.6402668 C4.57278698,29.6327708 6.23533287,24.7225899 7.8967989,24.2927366 C9.55956077,23.8567798 7.74453925,27.1776804 7.74453925,27.1776804 L6.08415306,28.1884461 C6.08415306,28.1884461 8.04776274,30.497273 8.50281394,30.497273 C8.95462558,30.497273 9.71030863,29.3398079 9.71030863,29.3398079 L7.5959511,27.9002787 L9.5593448,27.0309809 L9.68331224,26.2704544 L10.0133161,26.1642989 L13.2662736,21.1924302 C15.5138853,20.2642782 18.2765882,19.1140064 18.6275413,18.9450731 C19.2335564,18.6582136 23.4624874,16.2053029 24.2183864,15.6289681 C24.9764452,15.0478378 26.6344557,15.1956271 27.238095,15.1956271 C27.8454059,15.1956271 28.749893,14.9050619 28.9006409,13.3142557 C29.0516047,11.7271552 29.6565399,11.4378979 30.1115911,11.8723288 C30.5655625,12.3010923 29.6565399,13.0260883 30.7154465,13.3142557 C31.7721933,13.6048209 32.6790561,14.3265473 33.436035,13.6048209 C33.9882732,13.0768773 33.248788,12.4743851 32.7514065,12.0199002 L41.1410217,12.0199002 L42.0491803,9.41571252 L40.0844908,9.12776309 L32.8287241,8.40734456 L32.8287241,7.53935467 L32.2507853,7.63875281 C33.0358405,3.28201904 37.7010332,4.00025779 34.1884785,1.47890193 C33.9755309,1.32413728 30.9029094,6.36554113 30.12023,6.26788682 C28.7030273,6.07868159 26.8743996,6.0634231 26.4847876,6.52880693 C25.9673208,7.14285201 27.6430409,4.41703244 29.0846483,3.59067642 C27.3646541,4.10205369 24.2827458,2.52192845 18.7258082,6.48390338 C16.8466433,7.82447039 12.1298334,13.2556196 10.1889007,15.3436344 C1.98890817,25.114733 1.32782049,33.4739857 1.32782049,33.8447669 C1.32782049,34.5662753 3.06422851,34.9736769 3.21389652,35.8429747 C3.3659402,36.7039893 0.343639967,39.5961263 0.343639967,41.0393612 C0.343639967,41.7028873 -1.16923792,48.9114322 2.15369415,57.9318133 C5.1010524,66.4889903 10.8042025,74.0358376 11.5365607,74.5081967 L13.6368801,73.3838643 C13.6368801,73.3838643 10.1616883,67.1745323 10.0120203,66.5957997 C9.86235232,66.0188109 13.9401036,57.6438638 15.9069528,57.9361728 C17.8703465,58.2173649 17.417455,58.801111 18.6262455,58.0778588 C19.8361159,57.360274 20.5907191,51.4340959 21.9504734,50.8599409 C23.3113076,50.2794644 24.82073,49.5588279 24.670846,48.1151572 C24.513403,46.6669088 19.3767452,44.0701325 18.9251496,43.6378814 L18.9251496,43.6378814 Z M52.3770492,1.38236221 L47.9508197,0 L48.7710126,2.21311475 L52.3770492,1.38236221 L52.3770492,1.38236221 Z M36.2203731,6.63934426 C36.6808223,6.63934426 45.8520002,0.460007461 44.935691,0.310912351 C44.0204744,0.165372416 43.8677198,0.310912351 41.4168713,0.0160551078 C38.974327,-0.277691144 36.3722536,3.54923146 35.7623277,4.14050134 C35.149998,4.72866044 35.3560747,6.63934426 36.2203731,6.63934426 L36.2203731,6.63934426 Z M77.8093951,49.8298566 L78.9344262,48.3513977 L77.8093951,47.9508197 L76.9662445,49.0240744 L75.9836066,50.5002202 L76.8242664,50.9016393 L77.8093951,49.8298566 L77.8093951,49.8298566 Z M82.8709064,54.8933571 L82.5827935,52.6288104 L80.7162216,52.6288104 L80.5713153,54.3245636 L78.8420006,54.0435986 L78.4136559,52.2059238 L77.5503796,51.6393443 L76.5421971,52.9113252 L75.5361392,52.6305816 L75.2459016,53.6162838 L76.399203,53.9043338 L76.399203,63.0880584 L80.4699658,64.1098499 C80.3754155,64.2778975 80.3061494,64.4220332 80.2832024,64.4986399 C79.9933897,65.4898773 81.4318293,65.9189633 82.4385246,65.4898773 C82.8109891,65.3337856 85.1575366,64.3934718 85.9007658,62.5489333 C86.9374197,59.9795097 87.6069209,56.2800267 87.7868852,55.0826598 L87.330919,54.0435986 L84.4529774,55.1765362 L82.8666569,54.8931357 L82.8709064,54.8931357 L82.8709064,54.8933571 Z M81.2505193,18.3407303 C74.5848154,8.1408475 58.5688792,1.47540984 58.5688792,1.47540984 L54.4448272,3.65531369 L53.8591197,2.68837357 L52.4043188,2.13183471 L52.4043188,3.38106142 L53.7149522,4.49175055 L52.8428463,4.90692897 L49.489983,5.18226696 L41.9134416,9.34230263 L42.6409497,12.6693757 L41.7641099,12.948188 L41.3305314,13.6400073 L43.8076307,17.3798702 L43.9520134,18.6303998 L41.9130112,19.0457954 L41.9130112,21.5399059 L40.7484819,21.8163296 L40.8941557,23.7584613 L30.9836066,30.6935912 L31.2751692,34.5700374 C32.0024621,35.5417547 37.6869662,41.3651098 37.6869662,41.3651098 C37.6869662,41.3651098 44.2420699,41.6393621 45.699453,40.8111766 C47.1576967,39.9792998 46.1351832,41.6430535 46.5747865,42.0593176 C47.0085802,42.4768846 47.1576967,45.3863907 47.5912752,45.6641173 C48.0298027,45.9401067 47.5912752,47.601689 48.1741854,48.1617021 C48.7573107,48.7119438 48.7573107,55.3686958 48.7573107,55.3686958 C48.7573107,55.3686958 52.2543415,61.3281998 52.2543415,62.8531988 C52.2543415,64.3777635 52.1073767,64.2390088 54.8771146,64.1000369 C57.6449159,63.9636708 58.227611,62.8531988 58.8107363,62.4391061 C59.3936465,62.0247962 59.3936465,61.053079 59.9763415,60.217945 C60.5639856,59.384331 61.5804742,56.2010069 62.8932594,55.0929235 C64.2010956,53.9798458 67.7009236,53.1473175 67.9899042,51.2106144 C68.2816821,49.267397 69.5914548,47.742398 69.5914548,47.742398 L75.8913605,41.0178973 L75.7142711,41.9214315 L75.5698884,45.3848707 L77.4655838,44.6928343 L77.3209859,40.9471085 L76.6423227,40.2211977 L76.7382909,40.1154488 C76.7382909,40.1154488 76.2999786,39.2835719 75.7196505,39.2835719 C75.1360948,39.2835719 71.6369123,40.1154488 71.056369,39.9775627 C70.4730285,39.8377222 67.9948532,33.1827075 67.559123,32.909758 C67.1203804,32.6320315 64.3553763,28.0546459 64.3553763,28.0546459 C64.3553763,28.0546459 70.7624394,35.8177441 71.7834467,38.8673078 C72.3753943,40.6435418 74.5998777,38.9895596 76.4090725,37.1366739 L76.8871923,38.3155461 L78.0506457,38.035431 L77.906263,36.6498381 L79.216251,36.6498381 L79.216251,38.7285531 L78.7807359,39.8392422 L78.6314042,41.6393621 L79.7995915,42.7509198 L80.3827169,41.7826768 L82.2710963,39.9779969 L84.4577088,38.8688278 L85.0432011,39.9779969 L85.3345486,41.5038645 L84.7516384,43.1660982 L83.5860332,44.1367297 L83.0033382,46.631926 L83.0033382,47.8789813 L81.6927048,47.0460187 L81.5483221,44.4146735 L79.6547784,44.5553825 L78.7831029,46.9096526 L80.0933059,48.8526528 L83.1522396,49.2695684 L85.628263,46.9096526 L85.9196106,42.3400842 L87.0228149,40.8708911 C87.7408552,42.733114 88.2540486,44.6813257 88.2540486,46.4979484 C88.2540486,48.4885031 89.8160069,45.4930082 89.0517038,39.4227609 C89.0523494,39.4225438 87.8538223,25.0039966 81.2505193,18.3407303 L81.2505193,18.3407303 Z M53.1147541,24.3442623 L45,24.0725509 L48.4535591,21.3934426 L50.2573557,21.3934426 L53.1147541,23.2681255 L53.1147541,24.3442623 L53.1147541,24.3442623 Z M62.6824741,23.3131389 L62.6824741,24.6399912 L59.2454683,24.6399912 L59.5443768,25.5274088 L57.4487061,25.825217 L57.3030048,26.557377 L55.8080209,26.2671931 L53.1147541,25.673887 L53.5646621,24.9389546 L54.0143494,24.0503817 L55.5091125,22.4280316 L56.1095785,23.6097919 L58.3485221,23.4605412 L59.5445975,22.1311475 L64.1803279,23.01741 L62.6824741,23.3131389 L62.6824741,23.3131389 Z M62.7024672,21.8368516 L60.8052783,22.1311475 L60.4918033,20.8011518 L62.8593214,20.5080118 L63.1781649,19.1803279 L64.9180328,20.9525767 L62.7024672,21.8343086 L62.7024672,21.8368516 L62.7024672,21.8368516 Z M71.2296022,64.9631783 L70.0819672,65.7942063 L70.2449478,67.8688525 L71.7170932,67.8688525 L71.7170932,66.0759804 L73.0327869,64.5505881 L73.0327869,61.372886 L72.2096622,61.2295082 L71.2296022,64.9631783 L71.2296022,64.9631783 Z M60.9226872,60.5378749 C60.9226872,60.5378749 59.8609492,60.7991964 61.0707847,61.2123555 C62.2828572,61.6210673 67.1311475,54.5901639 67.1311475,54.5901639 L63.0392281,57.0227409 L60.9202264,60.5380867 L60.9226872,60.5380867 L60.9226872,60.5378749 Z M53.3372001,87.0618038 L52.4654309,86.2396579 L50.7169442,85.96497 L50.4280039,86.78946 L48.0966883,86.5171162 L47.9501742,85.4228396 L46.2025481,85.4228396 L44.3096988,86.5171162 L40.9620362,86.5171162 L40.6705142,85.6953965 L35.283058,85.1434635 L34.4089223,85.9675272 L32.2277781,85.4228396 L31.9353955,83.5015159 L30.916682,83.3606557 L29.7510242,85.4228396 L25.8196721,85.2843236 C26.5236279,85.6120738 32.3925795,89.082646 41.3968451,89.8050603 C53.3374153,90.7612471 59.0163934,87.8890641 59.0163934,87.8890641 L58.580724,87.4733029 L53.3374153,87.0645741 L53.3374153,87.0618038 L53.3372001,87.0618038 L53.3372001,87.0618038 Z" id="path3315"></path>
                </g>
            </g>
        </g>
        <g id="Simple_Globe" sketch:type="MSLayerGroup" transform="translate(162.000000, 47.000000)" fill="#CAC8D2">
            <g id="layer1" sketch:type="MSShapeGroup">
                <g id="path3315-Clipped">
                    <path d="M29.470604,3.68852459 C29.2531259,3.68852459 29.0139,3.78156807 28.7704918,3.92526372 C29.3436721,3.75091589 29.6132195,3.68852459 29.470604,3.68852459 L29.470604,3.68852459 Z M44.8569389,6.63934426 L45,4.42622951 L42.7868852,4.57228393 L43.0789243,6.63934426 L44.8569389,6.63934426 L44.8569389,6.63934426 Z M18.9251496,43.6378814 C18.4688025,43.2045403 18.7741857,41.3255668 18.7741857,41.3255668 C18.7741857,41.3255668 11.9736863,37.7191146 4.57041129,35.5506657 C3.65750125,35.2836422 4.11881562,33.3857045 5.02200696,32.6668118 L4.72245498,30.6402668 C4.57278698,29.6327708 6.23533287,24.7225899 7.8967989,24.2927366 C9.55956077,23.8567798 7.74453925,27.1776804 7.74453925,27.1776804 L6.08415306,28.1884461 C6.08415306,28.1884461 8.04776274,30.497273 8.50281394,30.497273 C8.95462558,30.497273 9.71030863,29.3398079 9.71030863,29.3398079 L7.5959511,27.9002787 L9.5593448,27.0309809 L9.68331224,26.2704544 L10.0133161,26.1642989 L13.2662736,21.1924302 C15.5138853,20.2642782 18.2765882,19.1140064 18.6275413,18.9450731 C19.2335564,18.6582136 23.4624874,16.2053029 24.2183864,15.6289681 C24.9764452,15.0478378 26.6344557,15.1956271 27.238095,15.1956271 C27.8454059,15.1956271 28.749893,14.9050619 28.9006409,13.3142557 C29.0516047,11.7271552 29.6565399,11.4378979 30.1115911,11.8723288 C30.5655625,12.3010923 29.6565399,13.0260883 30.7154465,13.3142557 C31.7721933,13.6048209 32.6790561,14.3265473 33.436035,13.6048209 C33.9882732,13.0768773 33.248788,12.4743851 32.7514065,12.0199002 L41.1410217,12.0199002 L42.0491803,9.41571252 L40.0844908,9.12776309 L32.8287241,8.40734456 L32.8287241,7.53935467 L32.2507853,7.63875281 C33.0358405,3.28201904 37.7010332,4.00025779 34.1884785,1.47890193 C33.9755309,1.32413728 30.9029094,6.36554113 30.12023,6.26788682 C28.7030273,6.07868159 26.8743996,6.0634231 26.4847876,6.52880693 C25.9673208,7.14285201 27.6430409,4.41703244 29.0846483,3.59067642 C27.3646541,4.10205369 24.2827458,2.52192845 18.7258082,6.48390338 C16.8466433,7.82447039 12.1298334,13.2556196 10.1889007,15.3436344 C1.98890817,25.114733 1.32782049,33.4739857 1.32782049,33.8447669 C1.32782049,34.5662753 3.06422851,34.9736769 3.21389652,35.8429747 C3.3659402,36.7039893 0.343639967,39.5961263 0.343639967,41.0393612 C0.343639967,41.7028873 -1.16923792,48.9114322 2.15369415,57.9318133 C5.1010524,66.4889903 10.8042025,74.0358376 11.5365607,74.5081967 L13.6368801,73.3838643 C13.6368801,73.3838643 10.1616883,67.1745323 10.0120203,66.5957997 C9.86235232,66.0188109 13.9401036,57.6438638 15.9069528,57.9361728 C17.8703465,58.2173649 17.417455,58.801111 18.6262455,58.0778588 C19.8361159,57.360274 20.5907191,51.4340959 21.9504734,50.8599409 C23.3113076,50.2794644 24.82073,49.5588279 24.670846,48.1151572 C24.513403,46.6669088 19.3767452,44.0701325 18.9251496,43.6378814 L18.9251496,43.6378814 Z M52.3770492,1.38236221 L47.9508197,0 L48.7710126,2.21311475 L52.3770492,1.38236221 L52.3770492,1.38236221 Z M36.2203731,6.63934426 C36.6808223,6.63934426 45.8520002,0.460007461 44.935691,0.310912351 C44.0204744,0.165372416 43.8677198,0.310912351 41.4168713,0.0160551078 C38.974327,-0.277691144 36.3722536,3.54923146 35.7623277,4.14050134 C35.149998,4.72866044 35.3560747,6.63934426 36.2203731,6.63934426 L36.2203731,6.63934426 Z M77.8093951,49.8298566 L78.9344262,48.3513977 L77.8093951,47.9508197 L76.9662445,49.0240744 L75.9836066,50.5002202 L76.8242664,50.9016393 L77.8093951,49.8298566 L77.8093951,49.8298566 Z M82.8709064,54.8933571 L82.5827935,52.6288104 L80.7162216,52.6288104 L80.5713153,54.3245636 L78.8420006,54.0435986 L78.4136559,52.2059238 L77.5503796,51.6393443 L76.5421971,52.9113252 L75.5361392,52.6305816 L75.2459016,53.6162838 L76.399203,53.9043338 L76.399203,63.0880584 L80.4699658,64.1098499 C80.3754155,64.2778975 80.3061494,64.4220332 80.2832024,64.4986399 C79.9933897,65.4898773 81.4318293,65.9189633 82.4385246,65.4898773 C82.8109891,65.3337856 85.1575366,64.3934718 85.9007658,62.5489333 C86.9374197,59.9795097 87.6069209,56.2800267 87.7868852,55.0826598 L87.330919,54.0435986 L84.4529774,55.1765362 L82.8666569,54.8931357 L82.8709064,54.8931357 L82.8709064,54.8933571 Z M81.2505193,18.3407303 C74.5848154,8.1408475 58.5688792,1.47540984 58.5688792,1.47540984 L54.4448272,3.65531369 L53.8591197,2.68837357 L52.4043188,2.13183471 L52.4043188,3.38106142 L53.7149522,4.49175055 L52.8428463,4.90692897 L49.489983,5.18226696 L41.9134416,9.34230263 L42.6409497,12.6693757 L41.7641099,12.948188 L41.3305314,13.6400073 L43.8076307,17.3798702 L43.9520134,18.6303998 L41.9130112,19.0457954 L41.9130112,21.5399059 L40.7484819,21.8163296 L40.8941557,23.7584613 L30.9836066,30.6935912 L31.2751692,34.5700374 C32.0024621,35.5417547 37.6869662,41.3651098 37.6869662,41.3651098 C37.6869662,41.3651098 44.2420699,41.6393621 45.699453,40.8111766 C47.1576967,39.9792998 46.1351832,41.6430535 46.5747865,42.0593176 C47.0085802,42.4768846 47.1576967,45.3863907 47.5912752,45.6641173 C48.0298027,45.9401067 47.5912752,47.601689 48.1741854,48.1617021 C48.7573107,48.7119438 48.7573107,55.3686958 48.7573107,55.3686958 C48.7573107,55.3686958 52.2543415,61.3281998 52.2543415,62.8531988 C52.2543415,64.3777635 52.1073767,64.2390088 54.8771146,64.1000369 C57.6449159,63.9636708 58.227611,62.8531988 58.8107363,62.4391061 C59.3936465,62.0247962 59.3936465,61.053079 59.9763415,60.217945 C60.5639856,59.384331 61.5804742,56.2010069 62.8932594,55.0929235 C64.2010956,53.9798458 67.7009236,53.1473175 67.9899042,51.2106144 C68.2816821,49.267397 69.5914548,47.742398 69.5914548,47.742398 L75.8913605,41.0178973 L75.7142711,41.9214315 L75.5698884,45.3848707 L77.4655838,44.6928343 L77.3209859,40.9471085 L76.6423227,40.2211977 L76.7382909,40.1154488 C76.7382909,40.1154488 76.2999786,39.2835719 75.7196505,39.2835719 C75.1360948,39.2835719 71.6369123,40.1154488 71.056369,39.9775627 C70.4730285,39.8377222 67.9948532,33.1827075 67.559123,32.909758 C67.1203804,32.6320315 64.3553763,28.0546459 64.3553763,28.0546459 C64.3553763,28.0546459 70.7624394,35.8177441 71.7834467,38.8673078 C72.3753943,40.6435418 74.5998777,38.9895596 76.4090725,37.1366739 L76.8871923,38.3155461 L78.0506457,38.035431 L77.906263,36.6498381 L79.216251,36.6498381 L79.216251,38.7285531 L78.7807359,39.8392422 L78.6314042,41.6393621 L79.7995915,42.7509198 L80.3827169,41.7826768 L82.2710963,39.9779969 L84.4577088,38.8688278 L85.0432011,39.9779969 L85.3345486,41.5038645 L84.7516384,43.1660982 L83.5860332,44.1367297 L83.0033382,46.631926 L83.0033382,47.8789813 L81.6927048,47.0460187 L81.5483221,44.4146735 L79.6547784,44.5553825 L78.7831029,46.9096526 L80.0933059,48.8526528 L83.1522396,49.2695684 L85.628263,46.9096526 L85.9196106,42.3400842 L87.0228149,40.8708911 C87.7408552,42.733114 88.2540486,44.6813257 88.2540486,46.4979484 C88.2540486,48.4885031 89.8160069,45.4930082 89.0517038,39.4227609 C89.0523494,39.4225438 87.8538223,25.0039966 81.2505193,18.3407303 L81.2505193,18.3407303 Z M53.1147541,24.3442623 L45,24.0725509 L48.4535591,21.3934426 L50.2573557,21.3934426 L53.1147541,23.2681255 L53.1147541,24.3442623 L53.1147541,24.3442623 Z M62.6824741,23.3131389 L62.6824741,24.6399912 L59.2454683,24.6399912 L59.5443768,25.5274088 L57.4487061,25.825217 L57.3030048,26.557377 L55.8080209,26.2671931 L53.1147541,25.673887 L53.5646621,24.9389546 L54.0143494,24.0503817 L55.5091125,22.4280316 L56.1095785,23.6097919 L58.3485221,23.4605412 L59.5445975,22.1311475 L64.1803279,23.01741 L62.6824741,23.3131389 L62.6824741,23.3131389 Z M62.7024672,21.8368516 L60.8052783,22.1311475 L60.4918033,20.8011518 L62.8593214,20.5080118 L63.1781649,19.1803279 L64.9180328,20.9525767 L62.7024672,21.8343086 L62.7024672,21.8368516 L62.7024672,21.8368516 Z M71.2296022,64.9631783 L70.0819672,65.7942063 L70.2449478,67.8688525 L71.7170932,67.8688525 L71.7170932,66.0759804 L73.0327869,64.5505881 L73.0327869,61.372886 L72.2096622,61.2295082 L71.2296022,64.9631783 L71.2296022,64.9631783 Z M60.9226872,60.5378749 C60.9226872,60.5378749 59.8609492,60.7991964 61.0707847,61.2123555 C62.2828572,61.6210673 67.1311475,54.5901639 67.1311475,54.5901639 L63.0392281,57.0227409 L60.9202264,60.5380867 L60.9226872,60.5380867 L60.9226872,60.5378749 Z M53.3372001,87.0618038 L52.4654309,86.2396579 L50.7169442,85.96497 L50.4280039,86.78946 L48.0966883,86.5171162 L47.9501742,85.4228396 L46.2025481,85.4228396 L44.3096988,86.5171162 L40.9620362,86.5171162 L40.6705142,85.6953965 L35.283058,85.1434635 L34.4089223,85.9675272 L32.2277781,85.4228396 L31.9353955,83.5015159 L30.916682,83.3606557 L29.7510242,85.4228396 L25.8196721,85.2843236 C26.5236279,85.6120738 32.3925795,89.082646 41.3968451,89.8050603 C53.3374153,90.7612471 59.0163934,87.8890641 59.0163934,87.8890641 L58.580724,87.4733029 L53.3374153,87.0645741 L53.3374153,87.0618038 L53.3372001,87.0618038 L53.3372001,87.0618038 Z" id="path3315"></path>
                </g>
            </g>
        </g>
    </g>
</svg>